<svg xmlns="http://www.w3.org/2000/svg" viewBox="0 0 2456 1030" width="2456" height="1030" font-family="monospace">
  <title>SalesDataPipeline — Agent Team Topology</title>
  <defs>
    <marker id="arrow" viewBox="0 0 10 10" refX="9" refY="5" markerWidth="7" markerHeight="7" orient="auto-start-reverse">
      <polygon points="0,0 10,5 0,10" fill="#8a8a8a"/>
    </marker>
  </defs>
  <path d="M352,571 L424,571" fill="none" stroke="#8a8a8a" stroke-width="1.5" marker-end="url(#arrow)"/>
  <path d="M352,571 C388,571 388,365 424,365 L576,365 C612,365 612,211 648,211 L776,211 C812,211 812,253 848,253 L984,253 C1020,253 1020,445 1056,445" fill="none" stroke="#8a8a8a" stroke-width="1.5" marker-start="url(#arrow)" marker-end="url(#arrow)"/>
  <path d="M848,375 C812,375 812,379 776,379 L648,379 C612,379 612,571 576,571" fill="none" stroke="#8a8a8a" stroke-width="1.5" stroke-dasharray="4,3" marker-end="url(#arrow)"/>
  <path d="M984,375 C1020,375 1020,445 1056,445" fill="none" stroke="#8a8a8a" stroke-width="1.5" marker-start="url(#arrow)" marker-end="url(#arrow)"/>
  <path d="M648,473 C612,473 612,477 576,477 L424,477 C388,477 388,571 352,571" fill="none" stroke="#8a8a8a" stroke-width="1.5" stroke-dasharray="4,3" marker-end="url(#arrow)"/>
  <path d="M776,473 C812,473 812,375 848,375" fill="none" stroke="#8a8a8a" stroke-width="1.5" marker-end="url(#arrow)"/>
  <path d="M648,473 C612,473 612,571 576,571" fill="none" stroke="#8a8a8a" stroke-width="1.5" marker-start="url(#arrow)" marker-end="url(#arrow)"/>
  <path d="M776,473 C812,473 812,497 848,497 L984,497 C1020,497 1020,445 1056,445" fill="none" stroke="#8a8a8a" stroke-width="1.5" marker-start="url(#arrow)" marker-end="url(#arrow)"/>
  <path d="M1624,261 L1576,261 C1540,261 1540,105 1504,105 L1248,105 C1212,105 1212,445 1176,445" fill="none" stroke="#8a8a8a" stroke-width="1.5" marker-start="url(#arrow)" marker-end="url(#arrow)"/>
  <path d="M1316,143 L1248,143 C1212,143 1212,267 1176,267 L1056,267 C1020,267 1020,375 984,375" fill="none" stroke="#8a8a8a" stroke-width="1.5" stroke-dasharray="4,3" marker-end="url(#arrow)"/>
  <path d="M1436,143 L1504,143 C1540,143 1540,261 1576,261 L1624,261" fill="none" stroke="#8a8a8a" stroke-width="1.5" marker-end="url(#arrow)"/>
  <path d="M1316,143 L1248,143 C1212,143 1212,239 1176,239 L1056,239 C1020,239 1020,169 984,169 L848,169 C812,169 812,295 776,295 L648,295 C612,295 612,571 576,571" fill="none" stroke="#8a8a8a" stroke-width="1.5" stroke-dasharray="4,3" marker-end="url(#arrow)"/>
  <path d="M1316,143 L1248,143 C1212,143 1212,445 1176,445" fill="none" stroke="#8a8a8a" stroke-width="1.5" marker-start="url(#arrow)" marker-end="url(#arrow)"/>
  <path d="M1436,143 L1504,143 C1540,143 1540,573 1576,573 L1620,573" fill="none" stroke="#8a8a8a" stroke-width="1.5" marker-end="url(#arrow)"/>
  <path d="M1296,695 L1248,695 C1212,695 1212,445 1176,445" fill="none" stroke="#8a8a8a" stroke-width="1.5" marker-start="url(#arrow)" marker-end="url(#arrow)"/>
  <path d="M1456,695 L1504,695 C1540,695 1540,535 1576,535 L1752,535 C1788,535 1788,393 1824,393" fill="none" stroke="#8a8a8a" stroke-width="1.5" marker-start="url(#arrow)" marker-end="url(#arrow)"/>
  <path d="M576,571 C612,571 612,323 648,323 L776,323 C812,323 812,197 848,197 L984,197 C1020,197 1020,211 1056,211 L1176,211 C1212,211 1212,21 1248,21 L1504,21 C1540,21 1540,309 1576,309" fill="none" stroke="#8a8a8a" stroke-width="1.5" marker-end="url(#arrow)"/>
  <path d="M576,571 C612,571 612,435 648,435 L776,435 C812,435 812,441 848,441 L984,441 C1020,441 1020,445 1056,445" fill="none" stroke="#8a8a8a" stroke-width="1.5" marker-start="url(#arrow)" marker-end="url(#arrow)"/>
  <path d="M576,571 C612,571 612,511 648,511 L776,511 C812,511 812,469 848,469 L984,469 C1020,469 1020,379 1056,379 L1176,379 C1212,379 1212,77 1248,77 L1504,77 C1540,77 1540,195 1576,195 L1752,195 C1788,195 1788,355 1824,355 L1968,355 C2004,355 2004,585 2040,585" fill="none" stroke="#8a8a8a" stroke-width="1.5" marker-start="url(#arrow)" marker-end="url(#arrow)"/>
  <path d="M1576,309 C1540,309 1540,49 1504,49 L1248,49 C1212,49 1212,295 1176,295 L1056,295 C1020,295 1020,413 984,413 L848,413 C812,413 812,473 776,473" fill="none" stroke="#8a8a8a" stroke-width="1.5" stroke-dasharray="4,3" marker-end="url(#arrow)"/>
  <path d="M1576,309 C1540,309 1540,229 1504,229 L1248,229 C1212,229 1212,445 1176,445" fill="none" stroke="#8a8a8a" stroke-width="1.5" marker-start="url(#arrow)" marker-end="url(#arrow)"/>
  <path d="M168,491 C204,491 204,571 240,571" fill="none" stroke="#8a8a8a" stroke-width="1.5" marker-end="url(#arrow)"/>
  <path d="M168,491 C204,491 204,533 240,533 L352,533 C388,533 388,571 424,571" fill="none" stroke="#8a8a8a" stroke-width="1.5" marker-end="url(#arrow)"/>
  <path d="M168,491 C204,491 204,449 240,449 L352,449 C388,449 388,337 424,337 L576,337 C612,337 612,239 648,239 L776,239 C812,239 812,281 848,281 L984,281 C1020,281 1020,445 1056,445" fill="none" stroke="#8a8a8a" stroke-width="1.5" marker-end="url(#arrow)"/>
  <path d="M168,491 C204,491 204,477 240,477 L352,477 C388,477 388,393 424,393 L576,393 C612,393 612,407 648,407 L776,407 C812,407 812,525 848,525 L984,525 C1020,525 1020,539 1056,539 L1176,539 C1212,539 1212,733 1248,733 L1504,733 C1540,733 1540,611 1576,611 L1752,611 C1788,611 1788,479 1824,479 L1968,479 C2004,479 2004,463 2040,463 L2216,463 C2252,463 2252,515 2288,515" fill="none" stroke="#8a8a8a" stroke-width="1.5" marker-end="url(#arrow)"/>
  <path d="M168,491 C204,491 204,505 240,505 L352,505 L424,505 L576,505 C612,505 612,567 648,567 L776,567 C812,567 812,637 848,637 L984,637 C1020,637 1020,623 1056,623 L1176,623 C1212,623 1212,885 1248,885 L1504,885 C1540,885 1540,723 1576,723 L1752,723 C1788,723 1788,619 1824,619 L1968,619 C2004,619 2004,585 2040,585" fill="none" stroke="#8a8a8a" stroke-width="1.5" marker-end="url(#arrow)"/>
  <path d="M1588,385 L1576,385 C1540,385 1540,257 1504,257 L1248,257 C1212,257 1212,445 1176,445" fill="none" stroke="#8a8a8a" stroke-width="1.5" marker-start="url(#arrow)" marker-end="url(#arrow)"/>
  <path d="M1740,385 L1752,385 C1788,385 1788,441 1824,441" fill="none" stroke="#8a8a8a" stroke-width="1.5" marker-start="url(#arrow)" marker-end="url(#arrow)"/>
  <path d="M1740,385 L1752,385 C1788,385 1788,393 1824,393" fill="none" stroke="#8a8a8a" stroke-width="1.5" marker-end="url(#arrow)"/>
  <path d="M1308,295 L1248,295 C1212,295 1212,351 1176,351 L1056,351 C1020,351 1020,309 984,309 L848,309 C812,309 812,473 776,473" fill="none" stroke="#8a8a8a" stroke-width="1.5" stroke-dasharray="4,3" marker-end="url(#arrow)"/>
  <path d="M1444,295 L1504,295 C1540,295 1540,309 1576,309" fill="none" stroke="#8a8a8a" stroke-width="1.5" marker-end="url(#arrow)"/>
  <path d="M1308,295 L1248,295 C1212,295 1212,445 1176,445" fill="none" stroke="#8a8a8a" stroke-width="1.5" marker-start="url(#arrow)" marker-end="url(#arrow)"/>
  <path d="M1444,295 L1504,295 C1540,295 1540,573 1576,573 L1620,573" fill="none" stroke="#8a8a8a" stroke-width="1.5" marker-end="url(#arrow)"/>
  <path d="M1284,191 L1248,191 C1212,191 1212,323 1176,323 L1056,323 C1020,323 1020,225 984,225 L848,225 C812,225 812,267 776,267 L648,267 C612,267 612,421 576,421 L424,421 C388,421 388,571 352,571" fill="none" stroke="#8a8a8a" stroke-width="1.5" stroke-dasharray="4,3" marker-end="url(#arrow)"/>
  <path d="M1284,191 L1248,191 C1212,191 1212,445 1176,445" fill="none" stroke="#8a8a8a" stroke-width="1.5" marker-start="url(#arrow)" marker-end="url(#arrow)"/>
  <path d="M1468,191 L1504,191 C1540,191 1540,223 1576,223 L1752,223 C1788,223 1788,299 1824,299 L1968,299 C2004,299 2004,379 2040,379 L2216,379 C2252,379 2252,515 2288,515" fill="none" stroke="#8a8a8a" stroke-width="1.5" marker-end="url(#arrow)"/>
  <path d="M1292,391 L1248,391 C1212,391 1212,407 1176,407 L1056,407 C1020,407 1020,337 984,337 L848,337 C812,337 812,351 776,351 L648,351 C612,351 612,449 576,449 L424,449 C388,449 388,571 352,571" fill="none" stroke="#8a8a8a" stroke-width="1.5" stroke-dasharray="4,3" marker-end="url(#arrow)"/>
  <path d="M1292,391 L1248,391 C1212,391 1212,445 1176,445" fill="none" stroke="#8a8a8a" stroke-width="1.5" marker-start="url(#arrow)" marker-end="url(#arrow)"/>
  <path d="M1460,391 L1504,391 C1540,391 1540,347 1576,347 L1752,347 C1788,347 1788,327 1824,327 L1968,327 C2004,327 2004,407 2040,407 L2216,407 C2252,407 2252,515 2288,515" fill="none" stroke="#8a8a8a" stroke-width="1.5" marker-end="url(#arrow)"/>
  <path d="M1328,467 L1248,467 C1212,467 1212,445 1176,445" fill="none" stroke="#8a8a8a" stroke-width="1.5" marker-start="url(#arrow)" marker-end="url(#arrow)"/>
  <path d="M1176,445 C1212,445 1212,429 1248,429 L1504,429 C1540,429 1540,451 1576,451 L1752,451 C1788,451 1788,441 1824,441" fill="none" stroke="#8a8a8a" stroke-width="1.5" marker-start="url(#arrow)" marker-end="url(#arrow)"/>
  <path d="M1176,445 C1212,445 1212,571 1248,571 L1272,571" fill="none" stroke="#8a8a8a" stroke-width="1.5" marker-start="url(#arrow)" marker-end="url(#arrow)"/>
  <path d="M1176,445 C1212,445 1212,657 1248,657 L1504,657 C1540,657 1540,639 1576,639 L1752,639 C1788,639 1788,535 1824,535 L1968,535 C2004,535 2004,491 2040,491 L2216,491 C2252,491 2252,515 2288,515" fill="none" stroke="#8a8a8a" stroke-width="1.5" marker-start="url(#arrow)" marker-end="url(#arrow)"/>
  <path d="M1176,445 C1212,445 1212,505 1248,505 L1504,505 C1540,505 1540,479 1576,479 L1752,479 C1788,479 1788,393 1824,393" fill="none" stroke="#8a8a8a" stroke-width="1.5" marker-start="url(#arrow)" marker-end="url(#arrow)"/>
  <path d="M1176,445 C1212,445 1212,619 1248,619 L1316,619" fill="none" stroke="#8a8a8a" stroke-width="1.5" marker-start="url(#arrow)" marker-end="url(#arrow)"/>
  <path d="M1176,445 C1212,445 1212,533 1248,533 L1504,533 C1540,533 1540,573 1576,573 L1620,573" fill="none" stroke="#8a8a8a" stroke-width="1.5" marker-start="url(#arrow)" marker-end="url(#arrow)"/>
  <path d="M1176,445 C1212,445 1212,761 1248,761 L1504,761 C1540,761 1540,695 1576,695 L1752,695 C1788,695 1788,591 1824,591 L1968,591 C2004,591 2004,585 2040,585" fill="none" stroke="#8a8a8a" stroke-width="1.5" marker-start="url(#arrow)" marker-end="url(#arrow)"/>
  <path d="M1176,445 C1212,445 1212,799 1248,799" fill="none" stroke="#8a8a8a" stroke-width="1.5" marker-start="url(#arrow)" marker-end="url(#arrow)"/>
  <path d="M1176,445 C1212,445 1212,847 1248,847 L1272,847" fill="none" stroke="#8a8a8a" stroke-width="1.5" marker-start="url(#arrow)" marker-end="url(#arrow)"/>
  <path d="M1176,445 C1212,445 1212,343 1248,343 L1304,343" fill="none" stroke="#8a8a8a" stroke-width="1.5" marker-start="url(#arrow)" marker-end="url(#arrow)"/>
  <path d="M1176,445 C1212,445 1212,923 1248,923 L1252,923" fill="none" stroke="#8a8a8a" stroke-width="1.5" marker-start="url(#arrow)" marker-end="url(#arrow)"/>
  <path d="M1176,445 C1212,445 1212,971 1248,971 L1304,971" fill="none" stroke="#8a8a8a" stroke-width="1.5" marker-start="url(#arrow)" marker-end="url(#arrow)"/>
  <path d="M1968,441 C2004,441 2004,585 2040,585" fill="none" stroke="#8a8a8a" stroke-width="1.5" marker-end="url(#arrow)"/>
  <path d="M1272,571 L1248,571 C1212,571 1212,483 1176,483 L1056,483 C1020,483 1020,553 984,553 L848,553 C812,553 812,539 776,539 L648,539 C612,539 612,533 576,533 L424,533 C388,533 388,571 352,571" fill="none" stroke="#8a8a8a" stroke-width="1.5" stroke-dasharray="4,3" marker-end="url(#arrow)"/>
  <path d="M1272,571 L1248,571 C1212,571 1212,511 1176,511 L1056,511 C1020,511 1020,609 984,609 L848,609 C812,609 812,595 776,595 L648,595 C612,595 612,571 576,571" fill="none" stroke="#8a8a8a" stroke-width="1.5" stroke-dasharray="4,3" marker-end="url(#arrow)"/>
  <path d="M1480,571 L1504,571 C1540,571 1540,573 1576,573 L1620,573" fill="none" stroke="#8a8a8a" stroke-width="1.5" marker-end="url(#arrow)"/>
  <path d="M1480,571 L1504,571 C1540,571 1540,507 1576,507 L1752,507 L1824,507 L1968,507 C2004,507 2004,585 2040,585" fill="none" stroke="#8a8a8a" stroke-width="1.5" marker-end="url(#arrow)"/>
  <path d="M2288,515 C2252,515 2252,519 2216,519 L2040,519 C2004,519 2004,563 1968,563 L1824,563 C1788,563 1788,667 1752,667 L1576,667 C1540,667 1540,695 1504,695 L1456,695" fill="none" stroke="#8a8a8a" stroke-width="1.5" stroke-dasharray="4,3" marker-end="url(#arrow)"/>
  <path d="M2288,515 C2252,515 2252,623 2216,623 L2040,623 C2004,623 2004,703 1968,703 L1824,703 C1788,703 1788,835 1752,835 L1576,835 C1540,835 1540,1009 1504,1009 L1248,1009 C1212,1009 1212,735 1176,735 L1056,735 C1020,735 1020,749 984,749 L848,749 C812,749 812,707 776,707 L648,707 C612,707 612,571 576,571" fill="none" stroke="#8a8a8a" stroke-width="1.5" stroke-dasharray="4,3" marker-end="url(#arrow)"/>
  <path d="M2288,515 C2252,515 2252,435 2216,435 L2040,435 C2004,435 2004,393 1968,393" fill="none" stroke="#8a8a8a" stroke-width="1.5" marker-start="url(#arrow)" marker-end="url(#arrow)"/>
  <path d="M1316,619 L1248,619 C1212,619 1212,567 1176,567 L1056,567 C1020,567 1020,665 984,665 L848,665 C812,665 812,623 776,623 L648,623 C612,623 612,571 576,571" fill="none" stroke="#8a8a8a" stroke-width="1.5" stroke-dasharray="4,3" marker-end="url(#arrow)"/>
  <path d="M1436,619 L1504,619 C1540,619 1540,573 1576,573 L1620,573" fill="none" stroke="#8a8a8a" stroke-width="1.5" marker-end="url(#arrow)"/>
  <path d="M2216,585 C2252,585 2252,515 2288,515" fill="none" stroke="#8a8a8a" stroke-width="1.5" marker-end="url(#arrow)"/>
  <path d="M1248,799 C1212,799 1212,651 1176,651 L1056,651 C1020,651 1020,693 984,693 L848,693 C812,693 812,651 776,651 L648,651 C612,651 612,609 576,609 L424,609 C388,609 388,571 352,571" fill="none" stroke="#8a8a8a" stroke-width="1.5" stroke-dasharray="4,3" marker-end="url(#arrow)"/>
  <path d="M1248,799 C1212,799 1212,595 1176,595 L1056,595 C1020,595 1020,581 984,581 L848,581 C812,581 812,473 776,473" fill="none" stroke="#8a8a8a" stroke-width="1.5" stroke-dasharray="4,3" marker-end="url(#arrow)"/>
  <path d="M1248,799 C1212,799 1212,679 1176,679 L1056,679 C1020,679 1020,721 984,721 L848,721 C812,721 812,679 776,679 L648,679 C612,679 612,571 576,571" fill="none" stroke="#8a8a8a" stroke-width="1.5" stroke-dasharray="4,3" marker-end="url(#arrow)"/>
  <path d="M1272,847 L1248,847 C1212,847 1212,707 1176,707 L1056,707 C1020,707 1020,777 984,777 L848,777 C812,777 812,735 776,735 L648,735 C612,735 612,637 576,637 L424,637 C388,637 388,571 352,571" fill="none" stroke="#8a8a8a" stroke-width="1.5" stroke-dasharray="4,3" marker-end="url(#arrow)"/>
  <path d="M1480,847 L1504,847 C1540,847 1540,751 1576,751 L1752,751 C1788,751 1788,647 1824,647 L1968,647 C2004,647 2004,547 2040,547 L2216,547 C2252,547 2252,515 2288,515" fill="none" stroke="#8a8a8a" stroke-width="1.5" marker-end="url(#arrow)"/>
  <path d="M1448,343 L1504,343 C1540,343 1540,385 1576,385 L1588,385" fill="none" stroke="#8a8a8a" stroke-width="1.5" marker-end="url(#arrow)"/>
  <path d="M1448,343 L1504,343 C1540,343 1540,423 1576,423 L1752,423 C1788,423 1788,393 1824,393" fill="none" stroke="#8a8a8a" stroke-width="1.5" marker-end="url(#arrow)"/>
  <path d="M1252,923 L1248,923 C1212,923 1212,763 1176,763 L1056,763 C1020,763 1020,805 984,805 L848,805 C812,805 812,791 776,791 L648,791 C612,791 612,665 576,665 L424,665 C388,665 388,571 352,571" fill="none" stroke="#8a8a8a" stroke-width="1.5" stroke-dasharray="4,3" marker-end="url(#arrow)"/>
  <path d="M1500,923 L1504,923 C1540,923 1540,807 1576,807 L1752,807 C1788,807 1788,731 1824,731 L1968,731 C2004,731 2004,651 2040,651 L2216,651 C2252,651 2252,515 2288,515" fill="none" stroke="#8a8a8a" stroke-width="1.5" marker-end="url(#arrow)"/>
  <path d="M1304,971 L1248,971 C1212,971 1212,819 1176,819 L1056,819 C1020,819 1020,861 984,861 L848,861 C812,861 812,819 776,819 L648,819 C612,819 612,693 576,693 L424,693 C388,693 388,571 352,571" fill="none" stroke="#8a8a8a" stroke-width="1.5" stroke-dasharray="4,3" marker-end="url(#arrow)"/>
  <path d="M1304,971 L1248,971 C1212,971 1212,791 1176,791 L1056,791 C1020,791 1020,833 984,833 L848,833 C812,833 812,763 776,763 L648,763 C612,763 612,571 576,571" fill="none" stroke="#8a8a8a" stroke-width="1.5" stroke-dasharray="4,3" marker-end="url(#arrow)"/>
  <path d="M1448,971 L1504,971 C1540,971 1540,779 1576,779 L1752,779 C1788,779 1788,675 1824,675 L1968,675 C2004,675 2004,585 2040,585" fill="none" stroke="#8a8a8a" stroke-width="1.5" marker-end="url(#arrow)"/>
  <rect x="240" y="556" width="112" height="30" rx="6" fill="#e8e8ff" stroke="#6666cc" stroke-width="1.5"/>
  <text x="296" y="576" font-size="13" text-anchor="middle" fill="#000000">Adversarial</text>
  <rect x="848" y="360" width="136" height="30" rx="6" fill="#e8e8ff" stroke="#6666cc" stroke-width="1.5"/>
  <text x="916" y="380" font-size="13" text-anchor="middle" fill="#000000">Agent Refactor</text>
  <rect x="648" y="458" width="128" height="30" rx="6" fill="#e8e8ff" stroke="#6666cc" stroke-width="1.5"/>
  <text x="712" y="478" font-size="13" text-anchor="middle" fill="#000000">Agent Updater</text>
  <rect x="1624" y="246" width="80" height="30" rx="6" fill="#e8e8ff" stroke="#6666cc" stroke-width="1.5"/>
  <text x="1664" y="266" font-size="13" text-anchor="middle" fill="#000000">Cleanup</text>
  <rect x="1316" y="128" width="120" height="30" rx="6" fill="#e8e8ff" stroke="#6666cc" stroke-width="1.5"/>
  <text x="1376" y="148" font-size="13" text-anchor="middle" fill="#000000">Code Hygiene</text>
  <rect x="1296" y="680" width="160" height="30" rx="6" fill="#e8ffe8" stroke="#66aa66" stroke-width="1.5"/>
  <text x="1376" y="700" font-size="13" text-anchor="middle" fill="#000000">Cohesion Repairer</text>
  <rect x="424" y="556" width="152" height="30" rx="6" fill="#e8e8ff" stroke="#6666cc" stroke-width="1.5"/>
  <text x="500" y="576" font-size="13" text-anchor="middle" fill="#000000">Conflict Auditor</text>
  <rect x="1576" y="294" width="176" height="30" rx="6" fill="#e8e8ff" stroke="#6666cc" stroke-width="1.5"/>
  <text x="1664" y="314" font-size="13" text-anchor="middle" fill="#000000">Conflict Resolution</text>
  <rect x="16" y="476" width="152" height="30" rx="6" fill="#e8ffe8" stroke="#66aa66" stroke-width="1.5"/>
  <text x="92" y="496" font-size="13" text-anchor="middle" fill="#000000">Content Enricher</text>
  <rect x="1588" y="370" width="152" height="30" rx="6" fill="#e8ffe8" stroke="#66aa66" stroke-width="1.5"/>
  <text x="1664" y="390" font-size="13" text-anchor="middle" fill="#000000">Format Converter</text>
  <rect x="1308" y="280" width="136" height="30" rx="6" fill="#e8e8ff" stroke="#6666cc" stroke-width="1.5"/>
  <text x="1376" y="300" font-size="13" text-anchor="middle" fill="#000000">Git Operations</text>
  <rect x="1284" y="176" width="184" height="30" rx="6" fill="#fff8e8" stroke="#ccaa44" stroke-width="1.5"/>
  <text x="1376" y="196" font-size="13" text-anchor="middle" fill="#000000">Ingest Module Expert</text>
  <rect x="1292" y="376" width="168" height="30" rx="6" fill="#fff8e8" stroke="#ccaa44" stroke-width="1.5"/>
  <text x="1376" y="396" font-size="13" text-anchor="middle" fill="#000000">Load Module Expert</text>
  <rect x="1328" y="452" width="96" height="30" rx="6" fill="#e8e8ff" stroke="#6666cc" stroke-width="1.5"/>
  <text x="1376" y="472" font-size="13" text-anchor="middle" fill="#000000">Navigator</text>
  <rect x="1056" y="430" width="120" height="30" rx="6" fill="#e8e8ff" stroke="#6666cc" stroke-width="1.5"/>
  <text x="1116" y="450" font-size="13" text-anchor="middle" fill="#000000">Orchestrator</text>
  <rect x="1824" y="426" width="144" height="30" rx="6" fill="#e8ffe8" stroke="#66aa66" stroke-width="1.5"/>
  <text x="1896" y="446" font-size="13" text-anchor="middle" fill="#000000">Output Compiler</text>
  <rect x="1272" y="556" width="208" height="30" rx="6" fill="#f5f5f5" stroke="#999999" stroke-width="1.5"/>
  <text x="1376" y="576" font-size="13" text-anchor="middle" fill="#000000">Post-Production Auditor</text>
  <rect x="2288" y="500" width="152" height="30" rx="6" fill="#e8ffe8" stroke="#66aa66" stroke-width="1.5"/>
  <text x="2364" y="520" font-size="13" text-anchor="middle" fill="#000000">Primary Producer</text>
  <rect x="1824" y="378" width="144" height="30" rx="6" fill="#e8ffe8" stroke="#66aa66" stroke-width="1.5"/>
  <text x="1896" y="398" font-size="13" text-anchor="middle" fill="#000000">Quality Auditor</text>
  <rect x="1316" y="604" width="120" height="30" rx="6" fill="#e8e8ff" stroke="#6666cc" stroke-width="1.5"/>
  <text x="1376" y="624" font-size="13" text-anchor="middle" fill="#000000">Repo Liaison</text>
  <rect x="1620" y="558" width="88" height="30" rx="6" fill="#e8e8ff" stroke="#6666cc" stroke-width="1.5"/>
  <text x="1664" y="578" font-size="13" text-anchor="middle" fill="#000000">Security</text>
  <rect x="32" y="524" width="120" height="30" rx="6" fill="#e8e8ff" stroke="#6666cc" stroke-width="1.5"/>
  <text x="92" y="544" font-size="13" text-anchor="middle" fill="#000000">Team Builder</text>
  <rect x="2040" y="570" width="176" height="30" rx="6" fill="#e8ffe8" stroke="#66aa66" stroke-width="1.5"/>
  <text x="2128" y="590" font-size="13" text-anchor="middle" fill="#000000">Technical Validator</text>
  <rect x="1248" y="784" width="256" height="30" rx="6" fill="#ffe8e8" stroke="#cc6666" stroke-width="1.5"/>
  <text x="1376" y="804" font-size="13" text-anchor="middle" fill="#000000">Tool Documentation Researcher</text>
  <rect x="1272" y="832" width="208" height="30" rx="6" fill="#fff8e8" stroke="#ccaa44" stroke-width="1.5"/>
  <text x="1376" y="852" font-size="13" text-anchor="middle" fill="#000000">Transform Module Expert</text>
  <rect x="1304" y="328" width="144" height="30" rx="6" fill="#e8ffe8" stroke="#66aa66" stroke-width="1.5"/>
  <text x="1376" y="348" font-size="13" text-anchor="middle" fill="#000000">Visual Designer</text>
  <rect x="1252" y="908" width="248" height="30" rx="6" fill="#fff8e8" stroke="#ccaa44" stroke-width="1.5"/>
  <text x="1376" y="928" font-size="13" text-anchor="middle" fill="#000000">Weekly Summary Report Expert</text>
  <rect x="1304" y="956" width="144" height="30" rx="6" fill="#e8ffe8" stroke="#66aa66" stroke-width="1.5"/>
  <text x="1376" y="976" font-size="13" text-anchor="middle" fill="#000000">Work Summarizer</text>
</svg>
