<svg xmlns="http://www.w3.org/2000/svg" viewBox="0 0 2504 446" width="2504" height="446" font-family="monospace">
  <title>WebAppBackend — Agent Team Topology</title>
  <defs>
    <marker id="arrow" viewBox="0 0 10 10" refX="9" refY="5" markerWidth="7" markerHeight="7" orient="auto-start-reverse">
      <polygon points="0,0 10,5 0,10" fill="#8a8a8a"/>
    </marker>
  </defs>
  <path d="M148,223 C194,223 194,223 240,223" fill="none" stroke="#8a8a8a" stroke-width="1.5" marker-end="url(#arrow)"/>
  <path d="M148,223 C510,223 510,223 872,223" fill="none" stroke="#8a8a8a" stroke-width="1.5" marker-start="url(#arrow)" marker-end="url(#arrow)"/>
  <path d="M800,223 C520,223 520,223 240,223" fill="none" stroke="#8a8a8a" stroke-width="1.5" stroke-dasharray="4,3" marker-end="url(#arrow)"/>
  <path d="M800,223 C836,223 836,223 872,223" fill="none" stroke="#8a8a8a" stroke-width="1.5" marker-start="url(#arrow)" marker-end="url(#arrow)"/>
  <path d="M592,223 C314,223 314,223 36,223" fill="none" stroke="#8a8a8a" stroke-width="1.5" stroke-dasharray="4,3" marker-end="url(#arrow)"/>
  <path d="M592,223 C628,223 628,223 664,223" fill="none" stroke="#8a8a8a" stroke-width="1.5" marker-end="url(#arrow)"/>
  <path d="M592,223 C416,223 416,223 240,223" fill="none" stroke="#8a8a8a" stroke-width="1.5" marker-start="url(#arrow)" marker-end="url(#arrow)"/>
  <path d="M592,223 C732,223 732,223 872,223" fill="none" stroke="#8a8a8a" stroke-width="1.5" marker-start="url(#arrow)" marker-end="url(#arrow)"/>
  <path d="M1316,175 C676,175 676,223 36,223" fill="none" stroke="#8a8a8a" stroke-width="1.5" stroke-dasharray="4,3" marker-end="url(#arrow)"/>
  <path d="M1316,175 C1094,175 1094,223 872,223" fill="none" stroke="#8a8a8a" stroke-width="1.5" marker-start="url(#arrow)" marker-end="url(#arrow)"/>
  <path d="M1316,175 C1602,175 1602,223 1888,223" fill="none" stroke="#8a8a8a" stroke-width="1.5" marker-end="url(#arrow)"/>
  <path d="M1520,199 C1196,199 1196,223 872,223" fill="none" stroke="#8a8a8a" stroke-width="1.5" marker-start="url(#arrow)" marker-end="url(#arrow)"/>
  <path d="M1252,319 C958,319 958,223 664,223" fill="none" stroke="#8a8a8a" stroke-width="1.5" stroke-dasharray="4,3" marker-end="url(#arrow)"/>
  <path d="M1252,319 C1346,319 1346,199 1440,199" fill="none" stroke="#8a8a8a" stroke-width="1.5" marker-end="url(#arrow)"/>
  <path d="M1252,319 C746,319 746,223 240,223" fill="none" stroke="#8a8a8a" stroke-width="1.5" stroke-dasharray="4,3" marker-end="url(#arrow)"/>
  <path d="M1252,319 C1062,319 1062,223 872,223" fill="none" stroke="#8a8a8a" stroke-width="1.5" marker-start="url(#arrow)" marker-end="url(#arrow)"/>
  <path d="M1252,319 C1344,319 1344,295 1436,295" fill="none" stroke="#8a8a8a" stroke-width="1.5" marker-end="url(#arrow)"/>
  <path d="M2272,223 C1572,223 1572,223 872,223" fill="none" stroke="#8a8a8a" stroke-width="1.5" marker-start="url(#arrow)" marker-end="url(#arrow)"/>
  <path d="M2272,223 C2308,223 2308,223 2344,223" fill="none" stroke="#8a8a8a" stroke-width="1.5" marker-start="url(#arrow)" marker-end="url(#arrow)"/>
  <path d="M392,223 C892,223 892,151 1392,151" fill="none" stroke="#8a8a8a" stroke-width="1.5" marker-end="url(#arrow)"/>
  <path d="M392,223 C632,223 632,223 872,223" fill="none" stroke="#8a8a8a" stroke-width="1.5" marker-start="url(#arrow)" marker-end="url(#arrow)"/>
  <path d="M392,223 C1016,223 1016,223 1640,223" fill="none" stroke="#8a8a8a" stroke-width="1.5" marker-start="url(#arrow)" marker-end="url(#arrow)"/>
  <path d="M1568,151 C1016,151 1016,223 464,223" fill="none" stroke="#8a8a8a" stroke-width="1.5" stroke-dasharray="4,3" marker-end="url(#arrow)"/>
  <path d="M1568,151 C1220,151 1220,223 872,223" fill="none" stroke="#8a8a8a" stroke-width="1.5" marker-start="url(#arrow)" marker-end="url(#arrow)"/>
  <path d="M168,175 C520,175 520,223 872,223" fill="none" stroke="#8a8a8a" stroke-width="1.5" marker-end="url(#arrow)"/>
  <path d="M168,175 C1028,175 1028,223 1888,223" fill="none" stroke="#8a8a8a" stroke-width="1.5" marker-end="url(#arrow)"/>
  <path d="M168,175 C904,175 904,223 1640,223" fill="none" stroke="#8a8a8a" stroke-width="1.5" marker-end="url(#arrow)"/>
  <path d="M1268,415 C1070,415 1070,223 872,223" fill="none" stroke="#8a8a8a" stroke-width="1.5" marker-start="url(#arrow)" marker-end="url(#arrow)"/>
  <path d="M1268,415 C1338,415 1338,247 1408,247" fill="none" stroke="#8a8a8a" stroke-width="1.5" marker-start="url(#arrow)" marker-end="url(#arrow)"/>
  <path d="M1268,415 C1806,415 1806,223 2344,223" fill="none" stroke="#8a8a8a" stroke-width="1.5" marker-end="url(#arrow)"/>
  <path d="M1260,271 C862,271 862,223 464,223" fill="none" stroke="#8a8a8a" stroke-width="1.5" stroke-dasharray="4,3" marker-end="url(#arrow)"/>
  <path d="M1260,271 C1326,271 1326,151 1392,151" fill="none" stroke="#8a8a8a" stroke-width="1.5" marker-end="url(#arrow)"/>
  <path d="M1260,271 C1066,271 1066,223 872,223" fill="none" stroke="#8a8a8a" stroke-width="1.5" marker-start="url(#arrow)" marker-end="url(#arrow)"/>
  <path d="M1260,271 C1348,271 1348,295 1436,295" fill="none" stroke="#8a8a8a" stroke-width="1.5" marker-end="url(#arrow)"/>
  <path d="M1240,31 C1056,31 1056,223 872,223" fill="none" stroke="#8a8a8a" stroke-width="1.5" marker-start="url(#arrow)" marker-end="url(#arrow)"/>
  <path d="M992,223 C1200,223 1200,247 1408,247" fill="none" stroke="#8a8a8a" stroke-width="1.5" marker-start="url(#arrow)" marker-end="url(#arrow)"/>
  <path d="M992,223 C1440,223 1440,223 1888,223" fill="none" stroke="#8a8a8a" stroke-width="1.5" marker-start="url(#arrow)" marker-end="url(#arrow)"/>
  <path d="M992,223 C1668,223 1668,223 2344,223" fill="none" stroke="#8a8a8a" stroke-width="1.5" marker-start="url(#arrow)" marker-end="url(#arrow)"/>
  <path d="M992,223 C1062,223 1062,367 1132,367" fill="none" stroke="#8a8a8a" stroke-width="1.5" marker-start="url(#arrow)" marker-end="url(#arrow)"/>
  <path d="M992,223 C1214,223 1214,295 1436,295" fill="none" stroke="#8a8a8a" stroke-width="1.5" marker-start="url(#arrow)" marker-end="url(#arrow)"/>
  <path d="M992,223 C1054,223 1054,223 1116,223" fill="none" stroke="#8a8a8a" stroke-width="1.5" marker-start="url(#arrow)" marker-end="url(#arrow)"/>
  <path d="M992,223 C1316,223 1316,223 1640,223" fill="none" stroke="#8a8a8a" stroke-width="1.5" marker-start="url(#arrow)" marker-end="url(#arrow)"/>
  <path d="M992,223 C1028,223 1028,79 1064,79" fill="none" stroke="#8a8a8a" stroke-width="1.5" marker-start="url(#arrow)" marker-end="url(#arrow)"/>
  <path d="M992,223 C1056,223 1056,127 1120,127" fill="none" stroke="#8a8a8a" stroke-width="1.5" marker-start="url(#arrow)" marker-end="url(#arrow)"/>
  <path d="M1552,247 C1596,247 1596,223 1640,223" fill="none" stroke="#8a8a8a" stroke-width="1.5" marker-end="url(#arrow)"/>
  <path d="M2040,223 C2076,223 2076,223 2112,223" fill="none" stroke="#8a8a8a" stroke-width="1.5" marker-end="url(#arrow)"/>
  <path d="M2040,223 C1140,223 1140,223 240,223" fill="none" stroke="#8a8a8a" stroke-width="1.5" stroke-dasharray="4,3" marker-end="url(#arrow)"/>
  <path d="M2040,223 C2192,223 2192,223 2344,223" fill="none" stroke="#8a8a8a" stroke-width="1.5" marker-start="url(#arrow)" marker-end="url(#arrow)"/>
  <path d="M1252,367 C746,367 746,223 240,223" fill="none" stroke="#8a8a8a" stroke-width="1.5" stroke-dasharray="4,3" marker-end="url(#arrow)"/>
  <path d="M1252,367 C1344,367 1344,295 1436,295" fill="none" stroke="#8a8a8a" stroke-width="1.5" marker-end="url(#arrow)"/>
  <path d="M1268,223 C652,223 652,223 36,223" fill="none" stroke="#8a8a8a" stroke-width="1.5" stroke-dasharray="4,3" marker-end="url(#arrow)"/>
  <path d="M1268,223 C1578,223 1578,223 1888,223" fill="none" stroke="#8a8a8a" stroke-width="1.5" marker-end="url(#arrow)"/>
  <path d="M1816,223 C1852,223 1852,223 1888,223" fill="none" stroke="#8a8a8a" stroke-width="1.5" marker-end="url(#arrow)"/>
  <path d="M1320,79 C892,79 892,223 464,223" fill="none" stroke="#8a8a8a" stroke-width="1.5" stroke-dasharray="4,3" marker-end="url(#arrow)"/>
  <path d="M1264,127 C650,127 650,223 36,223" fill="none" stroke="#8a8a8a" stroke-width="1.5" stroke-dasharray="4,3" marker-end="url(#arrow)"/>
  <path d="M1264,127 C752,127 752,223 240,223" fill="none" stroke="#8a8a8a" stroke-width="1.5" stroke-dasharray="4,3" marker-end="url(#arrow)"/>
  <path d="M1264,127 C1452,127 1452,223 1640,223" fill="none" stroke="#8a8a8a" stroke-width="1.5" marker-end="url(#arrow)"/>
  <rect x="36" y="208" width="112" height="30" rx="6" fill="#e8e8ff" stroke="#6666cc" stroke-width="1.5"/>
  <text x="92" y="228" font-size="13" text-anchor="middle" fill="#000000">Adversarial</text>
  <rect x="664" y="208" width="136" height="30" rx="6" fill="#e8e8ff" stroke="#6666cc" stroke-width="1.5"/>
  <text x="732" y="228" font-size="13" text-anchor="middle" fill="#000000">Agent Refactor</text>
  <rect x="464" y="208" width="128" height="30" rx="6" fill="#e8e8ff" stroke="#6666cc" stroke-width="1.5"/>
  <text x="528" y="228" font-size="13" text-anchor="middle" fill="#000000">Agent Updater</text>
  <rect x="1068" y="160" width="248" height="30" rx="6" fill="#fff8e8" stroke="#ccaa44" stroke-width="1.5"/>
  <text x="1192" y="180" font-size="13" text-anchor="middle" fill="#000000">Authentication Module Expert</text>
  <rect x="1440" y="184" width="80" height="30" rx="6" fill="#e8e8ff" stroke="#6666cc" stroke-width="1.5"/>
  <text x="1480" y="204" font-size="13" text-anchor="middle" fill="#000000">Cleanup</text>
  <rect x="1132" y="304" width="120" height="30" rx="6" fill="#e8e8ff" stroke="#6666cc" stroke-width="1.5"/>
  <text x="1192" y="324" font-size="13" text-anchor="middle" fill="#000000">Code Hygiene</text>
  <rect x="2112" y="208" width="160" height="30" rx="6" fill="#e8ffe8" stroke="#66aa66" stroke-width="1.5"/>
  <text x="2192" y="228" font-size="13" text-anchor="middle" fill="#000000">Cohesion Repairer</text>
  <rect x="240" y="208" width="152" height="30" rx="6" fill="#e8e8ff" stroke="#6666cc" stroke-width="1.5"/>
  <text x="316" y="228" font-size="13" text-anchor="middle" fill="#000000">Conflict Auditor</text>
  <rect x="1392" y="136" width="176" height="30" rx="6" fill="#e8e8ff" stroke="#6666cc" stroke-width="1.5"/>
  <text x="1480" y="156" font-size="13" text-anchor="middle" fill="#000000">Conflict Resolution</text>
  <rect x="16" y="160" width="152" height="30" rx="6" fill="#e8ffe8" stroke="#66aa66" stroke-width="1.5"/>
  <text x="92" y="180" font-size="13" text-anchor="middle" fill="#000000">Content Enricher</text>
  <rect x="1116" y="400" width="152" height="30" rx="6" fill="#e8ffe8" stroke="#66aa66" stroke-width="1.5"/>
  <text x="1192" y="420" font-size="13" text-anchor="middle" fill="#000000">Format Converter</text>
  <rect x="1124" y="256" width="136" height="30" rx="6" fill="#e8e8ff" stroke="#6666cc" stroke-width="1.5"/>
  <text x="1192" y="276" font-size="13" text-anchor="middle" fill="#000000">Git Operations</text>
  <rect x="1144" y="16" width="96" height="30" rx="6" fill="#e8e8ff" stroke="#6666cc" stroke-width="1.5"/>
  <text x="1192" y="36" font-size="13" text-anchor="middle" fill="#000000">Navigator</text>
  <rect x="872" y="208" width="120" height="30" rx="6" fill="#e8e8ff" stroke="#6666cc" stroke-width="1.5"/>
  <text x="932" y="228" font-size="13" text-anchor="middle" fill="#000000">Orchestrator</text>
  <rect x="1408" y="232" width="144" height="30" rx="6" fill="#e8ffe8" stroke="#66aa66" stroke-width="1.5"/>
  <text x="1480" y="252" font-size="13" text-anchor="middle" fill="#000000">Output Compiler</text>
  <rect x="1888" y="208" width="152" height="30" rx="6" fill="#e8ffe8" stroke="#66aa66" stroke-width="1.5"/>
  <text x="1964" y="228" font-size="13" text-anchor="middle" fill="#000000">Primary Producer</text>
  <rect x="2344" y="208" width="144" height="30" rx="6" fill="#e8ffe8" stroke="#66aa66" stroke-width="1.5"/>
  <text x="2416" y="228" font-size="13" text-anchor="middle" fill="#000000">Quality Auditor</text>
  <rect x="1132" y="352" width="120" height="30" rx="6" fill="#e8e8ff" stroke="#6666cc" stroke-width="1.5"/>
  <text x="1192" y="372" font-size="13" text-anchor="middle" fill="#000000">Repo Liaison</text>
  <rect x="1436" y="280" width="88" height="30" rx="6" fill="#e8e8ff" stroke="#6666cc" stroke-width="1.5"/>
  <text x="1480" y="300" font-size="13" text-anchor="middle" fill="#000000">Security</text>
  <rect x="1116" y="208" width="152" height="30" rx="6" fill="#fff8e8" stroke="#ccaa44" stroke-width="1.5"/>
  <text x="1192" y="228" font-size="13" text-anchor="middle" fill="#000000">Tasks API Expert</text>
  <rect x="32" y="256" width="120" height="30" rx="6" fill="#e8e8ff" stroke="#6666cc" stroke-width="1.5"/>
  <text x="92" y="276" font-size="13" text-anchor="middle" fill="#000000">Team Builder</text>
  <rect x="1640" y="208" width="176" height="30" rx="6" fill="#e8ffe8" stroke="#66aa66" stroke-width="1.5"/>
  <text x="1728" y="228" font-size="13" text-anchor="middle" fill="#000000">Technical Validator</text>
  <rect x="1064" y="64" width="256" height="30" rx="6" fill="#ffe8e8" stroke="#cc6666" stroke-width="1.5"/>
  <text x="1192" y="84" font-size="13" text-anchor="middle" fill="#000000">Tool Documentation Researcher</text>
  <rect x="1120" y="112" width="144" height="30" rx="6" fill="#e8ffe8" stroke="#66aa66" stroke-width="1.5"/>
  <text x="1192" y="132" font-size="13" text-anchor="middle" fill="#000000">Work Summarizer</text>
</svg>
