<svg xmlns="http://www.w3.org/2000/svg" viewBox="0 0 2512 830" width="2512" height="830" font-family="monospace">
  <title>agentteams — Module Dependencies</title>
  <defs>
    <marker id="arrow" viewBox="0 0 10 10" refX="9" refY="5" markerWidth="7" markerHeight="7" orient="auto-start-reverse">
      <polygon points="0,0 10,5 0,10" fill="#8a8a8a"/>
    </marker>
  </defs>
  <path d="M672,799 C898,799 898,535 1124,535" fill="none" stroke="#8a8a8a" stroke-width="1.5" marker-end="url(#arrow)"/>
  <path d="M672,799 C750,799 750,655 828,655" fill="none" stroke="#8a8a8a" stroke-width="1.5" marker-end="url(#arrow)"/>
  <path d="M672,799 C760,799 760,703 848,703" fill="none" stroke="#8a8a8a" stroke-width="1.5" marker-end="url(#arrow)"/>
  <path d="M672,799 C758,799 758,751 844,751" fill="none" stroke="#8a8a8a" stroke-width="1.5" marker-start="url(#arrow)" marker-end="url(#arrow)"/>
  <path d="M672,799 C754,799 754,799 836,799" fill="none" stroke="#8a8a8a" stroke-width="1.5" marker-end="url(#arrow)"/>
  <path d="M960,223 C1034,223 1034,343 1108,343" fill="none" stroke="#8a8a8a" stroke-width="1.5" marker-end="url(#arrow)"/>
  <path d="M1708,463 C1800,463 1800,583 1892,583" fill="none" stroke="#8a8a8a" stroke-width="1.5" marker-end="url(#arrow)"/>
  <path d="M1708,463 C1804,463 1804,535 1900,535" fill="none" stroke="#8a8a8a" stroke-width="1.5" marker-end="url(#arrow)"/>
  <path d="M1708,463 C1796,463 1796,487 1884,487" fill="none" stroke="#8a8a8a" stroke-width="1.5" marker-end="url(#arrow)"/>
  <path d="M208,151 C264,151 264,271 320,271" fill="none" stroke="#8a8a8a" stroke-width="1.5" marker-end="url(#arrow)"/>
  <path d="M1196,439 C1416,439 1416,463 1636,463" fill="none" stroke="#8a8a8a" stroke-width="1.5" marker-end="url(#arrow)"/>
  <path d="M1196,439 C1270,439 1270,367 1344,367" fill="none" stroke="#8a8a8a" stroke-width="1.5" marker-end="url(#arrow)"/>
  <path d="M1196,439 C1396,439 1396,367 1596,367" fill="none" stroke="#8a8a8a" stroke-width="1.5" marker-end="url(#arrow)"/>
  <path d="M1196,439 C1254,439 1254,319 1312,319" fill="none" stroke="#8a8a8a" stroke-width="1.5" marker-end="url(#arrow)"/>
  <path d="M1196,439 C1532,439 1532,439 1868,439" fill="none" stroke="#8a8a8a" stroke-width="1.5" marker-end="url(#arrow)"/>
  <path d="M1196,439 C1278,439 1278,607 1360,607" fill="none" stroke="#8a8a8a" stroke-width="1.5" marker-end="url(#arrow)"/>
  <path d="M1196,439 C1262,439 1262,415 1328,415" fill="none" stroke="#8a8a8a" stroke-width="1.5" marker-end="url(#arrow)"/>
  <path d="M1196,439 C1284,439 1284,271 1372,271" fill="none" stroke="#8a8a8a" stroke-width="1.5" marker-end="url(#arrow)"/>
  <path d="M1196,439 C1272,439 1272,463 1348,463" fill="none" stroke="#8a8a8a" stroke-width="1.5" marker-end="url(#arrow)"/>
  <path d="M1196,439 C1268,439 1268,511 1340,511" fill="none" stroke="#8a8a8a" stroke-width="1.5" marker-end="url(#arrow)"/>
  <path d="M1196,439 C1272,439 1272,655 1348,655" fill="none" stroke="#8a8a8a" stroke-width="1.5" marker-end="url(#arrow)"/>
  <path d="M1512,319 C1554,319 1554,367 1596,367" fill="none" stroke="#8a8a8a" stroke-width="1.5" marker-end="url(#arrow)"/>
  <path d="M1512,319 C1690,319 1690,439 1868,439" fill="none" stroke="#8a8a8a" stroke-width="1.5" marker-end="url(#arrow)"/>
  <path d="M172,199 C262,199 262,319 352,319" fill="none" stroke="#8a8a8a" stroke-width="1.5" marker-end="url(#arrow)"/>
  <path d="M172,199 C254,199 254,511 336,511" fill="none" stroke="#8a8a8a" stroke-width="1.5" marker-end="url(#arrow)"/>
  <path d="M172,199 C254,199 254,559 336,559" fill="none" stroke="#8a8a8a" stroke-width="1.5" marker-end="url(#arrow)"/>
  <path d="M172,199 C364,199 364,31 556,31" fill="none" stroke="#8a8a8a" stroke-width="1.5" marker-end="url(#arrow)"/>
  <path d="M172,199 C258,199 258,463 344,463" fill="none" stroke="#8a8a8a" stroke-width="1.5" marker-end="url(#arrow)"/>
  <path d="M172,199 C246,199 246,415 320,415" fill="none" stroke="#8a8a8a" stroke-width="1.5" marker-end="url(#arrow)"/>
  <path d="M172,199 C358,199 358,175 544,175" fill="none" stroke="#8a8a8a" stroke-width="1.5" marker-end="url(#arrow)"/>
  <path d="M172,199 C892,199 892,415 1612,415" fill="none" stroke="#8a8a8a" stroke-width="1.5" marker-end="url(#arrow)"/>
  <path d="M172,199 C650,199 650,391 1128,391" fill="none" stroke="#8a8a8a" stroke-width="1.5" marker-end="url(#arrow)"/>
  <path d="M172,199 C1020,199 1020,439 1868,439" fill="none" stroke="#8a8a8a" stroke-width="1.5" marker-end="url(#arrow)"/>
  <path d="M172,199 C378,199 378,271 584,271" fill="none" stroke="#8a8a8a" stroke-width="1.5" marker-end="url(#arrow)"/>
  <path d="M172,199 C252,199 252,367 332,367" fill="none" stroke="#8a8a8a" stroke-width="1.5" marker-end="url(#arrow)"/>
  <path d="M696,751 C1294,751 1294,583 1892,583" fill="none" stroke="#8a8a8a" stroke-width="1.5" marker-end="url(#arrow)"/>
  <path d="M696,751 C912,751 912,487 1128,487" fill="none" stroke="#8a8a8a" stroke-width="1.5" marker-end="url(#arrow)"/>
  <path d="M696,751 C780,751 780,415 864,415" fill="none" stroke="#8a8a8a" stroke-width="1.5" marker-end="url(#arrow)"/>
  <path d="M696,751 C772,751 772,559 848,559" fill="none" stroke="#8a8a8a" stroke-width="1.5" marker-end="url(#arrow)"/>
  <path d="M696,751 C776,751 776,463 856,463" fill="none" stroke="#8a8a8a" stroke-width="1.5" marker-end="url(#arrow)"/>
  <path d="M696,751 C898,751 898,583 1100,583" fill="none" stroke="#8a8a8a" stroke-width="1.5" marker-end="url(#arrow)"/>
  <path d="M696,751 C744,751 744,511 792,511" fill="none" stroke="#8a8a8a" stroke-width="1.5" marker-end="url(#arrow)"/>
  <path d="M696,751 C766,751 766,607 836,607" fill="none" stroke="#8a8a8a" stroke-width="1.5" marker-end="url(#arrow)"/>
  <path d="M456,511 C790,511 790,439 1124,439" fill="none" stroke="#8a8a8a" stroke-width="1.5" marker-end="url(#arrow)"/>
  <path d="M456,511 C504,511 504,367 552,367" fill="none" stroke="#8a8a8a" stroke-width="1.5" marker-end="url(#arrow)"/>
  <path d="M456,511 C524,511 524,79 592,79" fill="none" stroke="#8a8a8a" stroke-width="1.5" marker-end="url(#arrow)"/>
  <path d="M456,511 C792,511 792,487 1128,487" fill="none" stroke="#8a8a8a" stroke-width="1.5" marker-end="url(#arrow)"/>
  <path d="M456,511 C920,511 920,559 1384,559" fill="none" stroke="#8a8a8a" stroke-width="1.5" marker-end="url(#arrow)"/>
  <path d="M456,511 C1020,511 1020,319 1584,319" fill="none" stroke="#8a8a8a" stroke-width="1.5" marker-end="url(#arrow)"/>
  <path d="M456,511 C914,511 914,271 1372,271" fill="none" stroke="#8a8a8a" stroke-width="1.5" marker-end="url(#arrow)"/>
  <path d="M456,511 C512,511 512,415 568,415" fill="none" stroke="#8a8a8a" stroke-width="1.5" marker-end="url(#arrow)"/>
  <path d="M456,511 C644,511 644,367 832,367" fill="none" stroke="#8a8a8a" stroke-width="1.5" marker-end="url(#arrow)"/>
  <path d="M456,511 C508,511 508,319 560,319" fill="none" stroke="#8a8a8a" stroke-width="1.5" marker-start="url(#arrow)" marker-end="url(#arrow)"/>
  <path d="M456,559 C512,559 512,463 568,463" fill="none" stroke="#8a8a8a" stroke-width="1.5" marker-end="url(#arrow)"/>
  <path d="M456,559 C524,559 524,799 592,799" fill="none" stroke="#8a8a8a" stroke-width="1.5" marker-end="url(#arrow)"/>
  <path d="M456,559 C528,559 528,511 600,511" fill="none" stroke="#8a8a8a" stroke-width="1.5" marker-end="url(#arrow)"/>
  <path d="M456,559 C526,559 526,559 596,559" fill="none" stroke="#8a8a8a" stroke-width="1.5" marker-end="url(#arrow)"/>
  <path d="M456,559 C512,559 512,751 568,751" fill="none" stroke="#8a8a8a" stroke-width="1.5" marker-end="url(#arrow)"/>
  <path d="M456,559 C500,559 500,175 544,175" fill="none" stroke="#8a8a8a" stroke-width="1.5" marker-end="url(#arrow)"/>
  <path d="M456,559 C504,559 504,367 552,367" fill="none" stroke="#8a8a8a" stroke-width="1.5" marker-end="url(#arrow)"/>
  <path d="M456,559 C792,559 792,487 1128,487" fill="none" stroke="#8a8a8a" stroke-width="1.5" marker-end="url(#arrow)"/>
  <path d="M456,559 C920,559 920,559 1384,559" fill="none" stroke="#8a8a8a" stroke-width="1.5" marker-end="url(#arrow)"/>
  <path d="M456,559 C526,559 526,127 596,127" fill="none" stroke="#8a8a8a" stroke-width="1.5" marker-end="url(#arrow)"/>
  <path d="M456,559 C660,559 660,415 864,415" fill="none" stroke="#8a8a8a" stroke-width="1.5" marker-end="url(#arrow)"/>
  <path d="M456,559 C502,559 502,607 548,607" fill="none" stroke="#8a8a8a" stroke-width="1.5" marker-end="url(#arrow)"/>
  <path d="M456,559 C1020,559 1020,319 1584,319" fill="none" stroke="#8a8a8a" stroke-width="1.5" marker-end="url(#arrow)"/>
  <path d="M456,559 C520,559 520,271 584,271" fill="none" stroke="#8a8a8a" stroke-width="1.5" marker-end="url(#arrow)"/>
  <path d="M456,559 C662,559 662,271 868,271" fill="none" stroke="#8a8a8a" stroke-width="1.5" marker-end="url(#arrow)"/>
  <path d="M456,559 C526,559 526,655 596,655" fill="none" stroke="#8a8a8a" stroke-width="1.5" marker-end="url(#arrow)"/>
  <path d="M456,559 C1170,559 1170,487 1884,487" fill="none" stroke="#8a8a8a" stroke-width="1.5" marker-end="url(#arrow)"/>
  <path d="M456,559 C660,559 660,319 864,319" fill="none" stroke="#8a8a8a" stroke-width="1.5" marker-end="url(#arrow)"/>
  <path d="M456,559 C530,559 530,703 604,703" fill="none" stroke="#8a8a8a" stroke-width="1.5" marker-end="url(#arrow)"/>
  <path d="M456,559 C512,559 512,415 568,415" fill="none" stroke="#8a8a8a" stroke-width="1.5" marker-end="url(#arrow)"/>
  <path d="M708,31 C774,31 774,31 840,31" fill="none" stroke="#8a8a8a" stroke-width="1.5" marker-end="url(#arrow)"/>
  <path d="M448,463 C1170,463 1170,583 1892,583" fill="none" stroke="#8a8a8a" stroke-width="1.5" marker-end="url(#arrow)"/>
  <path d="M448,463 C502,463 502,31 556,31" fill="none" stroke="#8a8a8a" stroke-width="1.5" marker-end="url(#arrow)"/>
  <path d="M448,463 C496,463 496,223 544,223" fill="none" stroke="#8a8a8a" stroke-width="1.5" marker-end="url(#arrow)"/>
  <path d="M448,463 C916,463 916,559 1384,559" fill="none" stroke="#8a8a8a" stroke-width="1.5" marker-end="url(#arrow)"/>
  <path d="M448,463 C1016,463 1016,319 1584,319" fill="none" stroke="#8a8a8a" stroke-width="1.5" marker-end="url(#arrow)"/>
  <path d="M472,415 C1170,415 1170,439 1868,439" fill="none" stroke="#8a8a8a" stroke-width="1.5" marker-end="url(#arrow)"/>
  <path d="M720,175 C1052,175 1052,559 1384,559" fill="none" stroke="#8a8a8a" stroke-width="1.5" marker-end="url(#arrow)"/>
  <path d="M720,175 C1286,175 1286,247 1852,247" fill="none" stroke="#8a8a8a" stroke-width="1.5" marker-end="url(#arrow)"/>
  <path d="M720,175 C1424,175 1424,415 2128,415" fill="none" stroke="#8a8a8a" stroke-width="1.5" marker-end="url(#arrow)"/>
  <path d="M720,175 C1292,175 1292,295 1864,295" fill="none" stroke="#8a8a8a" stroke-width="1.5" marker-end="url(#arrow)"/>
  <path d="M720,175 C1282,175 1282,391 1844,391" fill="none" stroke="#8a8a8a" stroke-width="1.5" marker-end="url(#arrow)"/>
  <path d="M720,175 C1276,175 1276,343 1832,343" fill="none" stroke="#8a8a8a" stroke-width="1.5" marker-end="url(#arrow)"/>
  <path d="M720,175 C1294,175 1294,439 1868,439" fill="none" stroke="#8a8a8a" stroke-width="1.5" marker-end="url(#arrow)"/>
  <path d="M720,175 C794,175 794,271 868,271" fill="none" stroke="#8a8a8a" stroke-width="1.5" marker-end="url(#arrow)"/>
  <path d="M720,175 C792,175 792,319 864,319" fill="none" stroke="#8a8a8a" stroke-width="1.5" marker-end="url(#arrow)"/>
  <path d="M720,175 C780,175 780,175 840,175" fill="none" stroke="#8a8a8a" stroke-width="1.5" marker-end="url(#arrow)"/>
  <path d="M672,79 C1400,79 1400,415 2128,415" fill="none" stroke="#8a8a8a" stroke-width="1.5" marker-end="url(#arrow)"/>
  <path d="M672,79 C1128,79 1128,319 1584,319" fill="none" stroke="#8a8a8a" stroke-width="1.5" marker-end="url(#arrow)"/>
  <path d="M1192,487 C1288,487 1288,559 1384,559" fill="none" stroke="#8a8a8a" stroke-width="1.5" marker-end="url(#arrow)"/>
  <path d="M1440,559 C1670,559 1670,535 1900,535" fill="none" stroke="#8a8a8a" stroke-width="1.5" marker-end="url(#arrow)"/>
  <path d="M1440,559 C1538,559 1538,463 1636,463" fill="none" stroke="#8a8a8a" stroke-width="1.5" marker-end="url(#arrow)"/>
  <path d="M1440,559 C1526,559 1526,415 1612,415" fill="none" stroke="#8a8a8a" stroke-width="1.5" marker-start="url(#arrow)" marker-end="url(#arrow)"/>
  <path d="M1440,559 C1538,559 1538,511 1636,511" fill="none" stroke="#8a8a8a" stroke-width="1.5" marker-end="url(#arrow)"/>
  <path d="M668,127 C752,127 752,127 836,127" fill="none" stroke="#8a8a8a" stroke-width="1.5" marker-end="url(#arrow)"/>
  <path d="M668,127 C750,127 750,79 832,79" fill="none" stroke="#8a8a8a" stroke-width="1.5" marker-end="url(#arrow)"/>
  <path d="M668,127 C1006,127 1006,175 1344,175" fill="none" stroke="#8a8a8a" stroke-width="1.5" marker-end="url(#arrow)"/>
  <path d="M668,127 C1008,127 1008,223 1348,223" fill="none" stroke="#8a8a8a" stroke-width="1.5" marker-end="url(#arrow)"/>
  <path d="M964,127 C1030,127 1030,295 1096,295" fill="none" stroke="#8a8a8a" stroke-width="1.5" marker-end="url(#arrow)"/>
  <path d="M964,127 C1154,127 1154,175 1344,175" fill="none" stroke="#8a8a8a" stroke-width="1.5" marker-end="url(#arrow)"/>
  <path d="M964,127 C1156,127 1156,223 1348,223" fill="none" stroke="#8a8a8a" stroke-width="1.5" marker-end="url(#arrow)"/>
  <path d="M968,79 C1032,79 1032,295 1096,295" fill="none" stroke="#8a8a8a" stroke-width="1.5" marker-end="url(#arrow)"/>
  <path d="M968,79 C1156,79 1156,175 1344,175" fill="none" stroke="#8a8a8a" stroke-width="1.5" marker-end="url(#arrow)"/>
  <path d="M968,79 C1024,79 1024,247 1080,247" fill="none" stroke="#8a8a8a" stroke-width="1.5" marker-end="url(#arrow)"/>
  <path d="M968,79 C1158,79 1158,223 1348,223" fill="none" stroke="#8a8a8a" stroke-width="1.5" marker-end="url(#arrow)"/>
  <path d="M1240,247 C1292,247 1292,175 1344,175" fill="none" stroke="#8a8a8a" stroke-width="1.5" marker-end="url(#arrow)"/>
  <path d="M1240,247 C1294,247 1294,223 1348,223" fill="none" stroke="#8a8a8a" stroke-width="1.5" marker-end="url(#arrow)"/>
  <path d="M1732,415 C1816,415 1816,535 1900,535" fill="none" stroke="#8a8a8a" stroke-width="1.5" marker-end="url(#arrow)"/>
  <path d="M1708,511 C1804,511 1804,535 1900,535" fill="none" stroke="#8a8a8a" stroke-width="1.5" marker-end="url(#arrow)"/>
  <path d="M2036,247 C2082,247 2082,415 2128,415" fill="none" stroke="#8a8a8a" stroke-width="1.5" marker-end="url(#arrow)"/>
  <path d="M2036,247 C2190,247 2190,415 2344,415" fill="none" stroke="#8a8a8a" stroke-width="1.5" marker-end="url(#arrow)"/>
  <path d="M2272,415 C2308,415 2308,415 2344,415" fill="none" stroke="#8a8a8a" stroke-width="1.5" marker-end="url(#arrow)"/>
  <path d="M2024,295 C2076,295 2076,415 2128,415" fill="none" stroke="#8a8a8a" stroke-width="1.5" marker-end="url(#arrow)"/>
  <path d="M2024,295 C2184,295 2184,415 2344,415" fill="none" stroke="#8a8a8a" stroke-width="1.5" marker-end="url(#arrow)"/>
  <path d="M2044,391 C2086,391 2086,415 2128,415" fill="none" stroke="#8a8a8a" stroke-width="1.5" marker-end="url(#arrow)"/>
  <path d="M2056,343 C2092,343 2092,415 2128,415" fill="none" stroke="#8a8a8a" stroke-width="1.5" marker-end="url(#arrow)"/>
  <path d="M2056,343 C2200,343 2200,415 2344,415" fill="none" stroke="#8a8a8a" stroke-width="1.5" marker-end="url(#arrow)"/>
  <path d="M2020,439 C2074,439 2074,415 2128,415" fill="none" stroke="#8a8a8a" stroke-width="1.5" marker-end="url(#arrow)"/>
  <path d="M2020,439 C2182,439 2182,415 2344,415" fill="none" stroke="#8a8a8a" stroke-width="1.5" marker-end="url(#arrow)"/>
  <path d="M1760,319 C1806,319 1806,247 1852,247" fill="none" stroke="#8a8a8a" stroke-width="1.5" marker-end="url(#arrow)"/>
  <path d="M1760,319 C1944,319 1944,415 2128,415" fill="none" stroke="#8a8a8a" stroke-width="1.5" marker-end="url(#arrow)"/>
  <path d="M1760,319 C1812,319 1812,295 1864,295" fill="none" stroke="#8a8a8a" stroke-width="1.5" marker-end="url(#arrow)"/>
  <path d="M1760,319 C1802,319 1802,391 1844,391" fill="none" stroke="#8a8a8a" stroke-width="1.5" marker-end="url(#arrow)"/>
  <path d="M1760,319 C1796,319 1796,343 1832,343" fill="none" stroke="#8a8a8a" stroke-width="1.5" marker-end="url(#arrow)"/>
  <path d="M1760,319 C1814,319 1814,439 1868,439" fill="none" stroke="#8a8a8a" stroke-width="1.5" marker-end="url(#arrow)"/>
  <path d="M680,271 C1286,271 1286,583 1892,583" fill="none" stroke="#8a8a8a" stroke-width="1.5" marker-end="url(#arrow)"/>
  <path d="M680,271 C760,271 760,223 840,223" fill="none" stroke="#8a8a8a" stroke-width="1.5" marker-end="url(#arrow)"/>
  <path d="M680,271 C1032,271 1032,559 1384,559" fill="none" stroke="#8a8a8a" stroke-width="1.5" marker-end="url(#arrow)"/>
  <path d="M680,271 C774,271 774,271 868,271" fill="none" stroke="#8a8a8a" stroke-width="1.5" marker-end="url(#arrow)"/>
  <path d="M932,271 C1028,271 1028,535 1124,535" fill="none" stroke="#8a8a8a" stroke-width="1.5" marker-end="url(#arrow)"/>
  <path d="M932,271 C1020,271 1020,343 1108,343" fill="none" stroke="#8a8a8a" stroke-width="1.5" marker-end="url(#arrow)"/>
  <path d="M1464,607 C1682,607 1682,535 1900,535" fill="none" stroke="#8a8a8a" stroke-width="1.5" marker-end="url(#arrow)"/>
  <path d="M668,655 C896,655 896,535 1124,535" fill="none" stroke="#8a8a8a" stroke-width="1.5" marker-end="url(#arrow)"/>
  <path d="M1452,271 C1518,271 1518,319 1584,319" fill="none" stroke="#8a8a8a" stroke-width="1.5" marker-end="url(#arrow)"/>
  <path d="M1452,271 C1898,271 1898,415 2344,415" fill="none" stroke="#8a8a8a" stroke-width="1.5" marker-end="url(#arrow)"/>
  <path d="M944,463 C1422,463 1422,535 1900,535" fill="none" stroke="#8a8a8a" stroke-width="1.5" marker-end="url(#arrow)"/>
  <path d="M1008,511 C1054,511 1054,583 1100,583" fill="none" stroke="#8a8a8a" stroke-width="1.5" marker-end="url(#arrow)"/>
  <path d="M1476,655 C1688,655 1688,535 1900,535" fill="none" stroke="#8a8a8a" stroke-width="1.5" marker-end="url(#arrow)"/>
  <path d="M968,367 C1046,367 1046,439 1124,439" fill="none" stroke="#8a8a8a" stroke-width="1.5" marker-end="url(#arrow)"/>
  <path d="M968,367 C1048,367 1048,487 1128,487" fill="none" stroke="#8a8a8a" stroke-width="1.5" marker-end="url(#arrow)"/>
  <path d="M968,367 C1048,367 1048,391 1128,391" fill="none" stroke="#8a8a8a" stroke-width="1.5" marker-end="url(#arrow)"/>
  <path d="M704,319 C916,319 916,391 1128,391" fill="none" stroke="#8a8a8a" stroke-width="1.5" marker-end="url(#arrow)"/>
  <path d="M704,319 C768,319 768,367 832,367" fill="none" stroke="#8a8a8a" stroke-width="1.5" marker-end="url(#arrow)"/>
  <rect x="1892" y="568" width="104" height="30" rx="6" fill="#e8eefb" stroke="#1b3fa0" stroke-width="1.5"/>
  <text x="1944" y="588" font-size="13" text-anchor="middle" fill="#000000">agentteams</text>
  <rect x="1124" y="520" width="72" height="30" rx="6" fill="#e8eefb" stroke="#1b3fa0" stroke-width="1.5"/>
  <text x="1160" y="540" font-size="13" text-anchor="middle" fill="#000000">_utils</text>
  <rect x="88" y="232" width="88" height="30" rx="6" fill="#e8eefb" stroke="#1b3fa0" stroke-width="1.5"/>
  <text x="132" y="252" font-size="13" text-anchor="middle" fill="#000000">advisory</text>
  <rect x="568" y="448" width="128" height="30" rx="6" fill="#e8eefb" stroke="#1b3fa0" stroke-width="1.5"/>
  <text x="632" y="468" font-size="13" text-anchor="middle" fill="#000000">ai_bad_habits</text>
  <rect x="592" y="784" width="80" height="30" rx="6" fill="#e8eefb" stroke="#1b3fa0" stroke-width="1.5"/>
  <text x="632" y="804" font-size="13" text-anchor="middle" fill="#000000">analyze</text>
  <rect x="840" y="208" width="120" height="30" rx="6" fill="#e8eefb" stroke="#1b3fa0" stroke-width="1.5"/>
  <text x="900" y="228" font-size="13" text-anchor="middle" fill="#000000">architecture</text>
  <rect x="1900" y="520" width="88" height="30" rx="6" fill="#e8eefb" stroke="#1b3fa0" stroke-width="1.5"/>
  <text x="1944" y="540" font-size="13" text-anchor="middle" fill="#000000">atomicio</text>
  <rect x="600" y="496" width="64" height="30" rx="6" fill="#e8eefb" stroke="#1b3fa0" stroke-width="1.5"/>
  <text x="632" y="516" font-size="13" text-anchor="middle" fill="#000000">audit</text>
  <rect x="1636" y="448" width="72" height="30" rx="6" fill="#e8eefb" stroke="#1b3fa0" stroke-width="1.5"/>
  <text x="1672" y="468" font-size="13" text-anchor="middle" fill="#000000">backup</text>
  <rect x="352" y="304" width="88" height="30" rx="6" fill="#e8eefb" stroke="#1b3fa0" stroke-width="1.5"/>
  <text x="396" y="324" font-size="13" text-anchor="middle" fill="#000000">baseline</text>
  <rect x="56" y="136" width="152" height="30" rx="6" fill="#e8eefb" stroke="#1b3fa0" stroke-width="1.5"/>
  <text x="132" y="156" font-size="13" text-anchor="middle" fill="#000000">behavioral_drift</text>
  <rect x="1124" y="424" width="72" height="30" rx="6" fill="#e8eefb" stroke="#1b3fa0" stroke-width="1.5"/>
  <text x="1160" y="444" font-size="13" text-anchor="middle" fill="#000000">bridge</text>
  <rect x="1344" y="352" width="136" height="30" rx="6" fill="#e8eefb" stroke="#1b3fa0" stroke-width="1.5"/>
  <text x="1412" y="372" font-size="13" text-anchor="middle" fill="#000000">bridge_sources</text>
  <rect x="1596" y="352" width="152" height="30" rx="6" fill="#e8eefb" stroke="#1b3fa0" stroke-width="1.5"/>
  <text x="1672" y="372" font-size="13" text-anchor="middle" fill="#000000">bridge_subagents</text>
  <rect x="1312" y="304" width="200" height="30" rx="6" fill="#e8eefb" stroke="#1b3fa0" stroke-width="1.5"/>
  <text x="1412" y="324" font-size="13" text-anchor="middle" fill="#000000">bridge_subagents_goose</text>
  <rect x="596" y="544" width="72" height="30" rx="6" fill="#e8eefb" stroke="#1b3fa0" stroke-width="1.5"/>
  <text x="632" y="564" font-size="13" text-anchor="middle" fill="#000000">budget</text>
  <rect x="108" y="280" width="48" height="30" rx="6" fill="#e8eefb" stroke="#1b3fa0" stroke-width="1.5"/>
  <text x="132" y="300" font-size="13" text-anchor="middle" fill="#000000">cli</text>
  <rect x="92" y="184" width="80" height="30" rx="6" fill="#eef6ee" stroke="#3f8f4f" stroke-width="1.5"/>
  <text x="132" y="204" font-size="13" text-anchor="middle" fill="#000000">cli.app</text>
  <rect x="568" y="736" width="128" height="30" rx="6" fill="#eef6ee" stroke="#3f8f4f" stroke-width="1.5"/>
  <text x="632" y="756" font-size="13" text-anchor="middle" fill="#000000">cli.artifacts</text>
  <rect x="336" y="496" width="120" height="30" rx="6" fill="#eef6ee" stroke="#3f8f4f" stroke-width="1.5"/>
  <text x="396" y="516" font-size="13" text-anchor="middle" fill="#000000">cli.commands</text>
  <rect x="336" y="544" width="120" height="30" rx="6" fill="#eef6ee" stroke="#3f8f4f" stroke-width="1.5"/>
  <text x="396" y="564" font-size="13" text-anchor="middle" fill="#000000">cli.generate</text>
  <rect x="556" y="16" width="152" height="30" rx="6" fill="#eef6ee" stroke="#3f8f4f" stroke-width="1.5"/>
  <text x="632" y="36" font-size="13" text-anchor="middle" fill="#000000">cli.goose_switch</text>
  <rect x="344" y="448" width="104" height="30" rx="6" fill="#eef6ee" stroke="#3f8f4f" stroke-width="1.5"/>
  <text x="396" y="468" font-size="13" text-anchor="middle" fill="#000000">cli.parser</text>
  <rect x="544" y="208" width="176" height="30" rx="6" fill="#eef6ee" stroke="#3f8f4f" stroke-width="1.5"/>
  <text x="632" y="228" font-size="13" text-anchor="middle" fill="#000000">cli.parser_validate</text>
  <rect x="320" y="400" width="152" height="30" rx="6" fill="#eef6ee" stroke="#3f8f4f" stroke-width="1.5"/>
  <text x="396" y="420" font-size="13" text-anchor="middle" fill="#000000">cli.recipe_check</text>
  <rect x="544" y="160" width="176" height="30" rx="6" fill="#eef6ee" stroke="#3f8f4f" stroke-width="1.5"/>
  <text x="632" y="180" font-size="13" text-anchor="middle" fill="#000000">cli.render_pipeline</text>
  <rect x="552" y="352" width="160" height="30" rx="6" fill="#eef6ee" stroke="#3f8f4f" stroke-width="1.5"/>
  <text x="632" y="372" font-size="13" text-anchor="middle" fill="#000000">cli.security_gate</text>
  <rect x="592" y="64" width="80" height="30" rx="6" fill="#e8eefb" stroke="#1b3fa0" stroke-width="1.5"/>
  <text x="632" y="84" font-size="13" text-anchor="middle" fill="#000000">convert</text>
  <rect x="1128" y="472" width="64" height="30" rx="6" fill="#e8eefb" stroke="#1b3fa0" stroke-width="1.5"/>
  <text x="1160" y="492" font-size="13" text-anchor="middle" fill="#000000">drift</text>
  <rect x="1384" y="544" width="56" height="30" rx="6" fill="#e8eefb" stroke="#1b3fa0" stroke-width="1.5"/>
  <text x="1412" y="564" font-size="13" text-anchor="middle" fill="#000000">emit</text>
  <rect x="596" y="112" width="72" height="30" rx="6" fill="#e8eefb" stroke="#1b3fa0" stroke-width="1.5"/>
  <text x="632" y="132" font-size="13" text-anchor="middle" fill="#000000">enrich</text>
  <rect x="836" y="112" width="128" height="30" rx="6" fill="#fff8e8" stroke="#ccaa44" stroke-width="1.5"/>
  <text x="900" y="132" font-size="13" text-anchor="middle" fill="#000000">enrich._audit</text>
  <rect x="832" y="64" width="136" height="30" rx="6" fill="#fff8e8" stroke="#ccaa44" stroke-width="1.5"/>
  <text x="900" y="84" font-size="13" text-anchor="middle" fill="#000000">enrich._enrich</text>
  <rect x="1096" y="280" width="128" height="30" rx="6" fill="#fff8e8" stroke="#ccaa44" stroke-width="1.5"/>
  <text x="1160" y="300" font-size="13" text-anchor="middle" fill="#000000">enrich._fills</text>
  <rect x="1344" y="160" width="136" height="30" rx="6" fill="#fff8e8" stroke="#ccaa44" stroke-width="1.5"/>
  <text x="1412" y="180" font-size="13" text-anchor="middle" fill="#000000">enrich._models</text>
  <rect x="1080" y="232" width="160" height="30" rx="6" fill="#fff8e8" stroke="#ccaa44" stroke-width="1.5"/>
  <text x="1160" y="252" font-size="13" text-anchor="middle" fill="#000000">enrich._notebooks</text>
  <rect x="1348" y="208" width="128" height="30" rx="6" fill="#fff8e8" stroke="#ccaa44" stroke-width="1.5"/>
  <text x="1412" y="228" font-size="13" text-anchor="middle" fill="#000000">enrich._tools</text>
  <rect x="864" y="400" width="72" height="30" rx="6" fill="#e8eefb" stroke="#1b3fa0" stroke-width="1.5"/>
  <text x="900" y="420" font-size="13" text-anchor="middle" fill="#000000">errors</text>
  <rect x="68" y="328" width="128" height="30" rx="6" fill="#e8eefb" stroke="#1b3fa0" stroke-width="1.5"/>
  <text x="132" y="348" font-size="13" text-anchor="middle" fill="#000000">eval_adapters</text>
  <rect x="24" y="376" width="216" height="30" rx="6" fill="#ffe8e8" stroke="#cc6666" stroke-width="1.5"/>
  <text x="132" y="396" font-size="13" text-anchor="middle" fill="#000000">eval_adapters.inspect_ai</text>
  <rect x="16" y="424" width="232" height="30" rx="6" fill="#ffe8e8" stroke="#cc6666" stroke-width="1.5"/>
  <text x="132" y="444" font-size="13" text-anchor="middle" fill="#000000">eval_adapters.openai_evals</text>
  <rect x="848" y="544" width="104" height="30" rx="6" fill="#e8eefb" stroke="#1b3fa0" stroke-width="1.5"/>
  <text x="900" y="564" font-size="13" text-anchor="middle" fill="#000000">eval_suite</text>
  <rect x="1612" y="400" width="120" height="30" rx="6" fill="#e8eefb" stroke="#1b3fa0" stroke-width="1.5"/>
  <text x="1672" y="420" font-size="13" text-anchor="middle" fill="#000000">fence_inject</text>
  <rect x="1636" y="496" width="72" height="30" rx="6" fill="#e8eefb" stroke="#1b3fa0" stroke-width="1.5"/>
  <text x="1672" y="516" font-size="13" text-anchor="middle" fill="#000000">fences</text>
  <rect x="1128" y="376" width="64" height="30" rx="6" fill="#e8eefb" stroke="#1b3fa0" stroke-width="1.5"/>
  <text x="1160" y="396" font-size="13" text-anchor="middle" fill="#000000">fleet</text>
  <rect x="548" y="592" width="168" height="30" rx="6" fill="#e8eefb" stroke="#1b3fa0" stroke-width="1.5"/>
  <text x="632" y="612" font-size="13" text-anchor="middle" fill="#000000">framework_research</text>
  <rect x="80" y="472" width="104" height="30" rx="6" fill="#e8eefb" stroke="#1b3fa0" stroke-width="1.5"/>
  <text x="132" y="492" font-size="13" text-anchor="middle" fill="#000000">frameworks</text>
  <rect x="1852" y="232" width="184" height="30" rx="6" fill="#f0e8ff" stroke="#8a5cc6" stroke-width="1.5"/>
  <text x="1944" y="252" font-size="13" text-anchor="middle" fill="#000000">frameworks.agents_md</text>
  <rect x="2128" y="400" width="144" height="30" rx="6" fill="#f0e8ff" stroke="#8a5cc6" stroke-width="1.5"/>
  <text x="2200" y="420" font-size="13" text-anchor="middle" fill="#000000">frameworks.base</text>
  <rect x="1864" y="280" width="160" height="30" rx="6" fill="#f0e8ff" stroke="#8a5cc6" stroke-width="1.5"/>
  <text x="1944" y="300" font-size="13" text-anchor="middle" fill="#000000">frameworks.claude</text>
  <rect x="1844" y="376" width="200" height="30" rx="6" fill="#f0e8ff" stroke="#8a5cc6" stroke-width="1.5"/>
  <text x="1944" y="396" font-size="13" text-anchor="middle" fill="#000000">frameworks.copilot_cli</text>
  <rect x="1832" y="328" width="224" height="30" rx="6" fill="#f0e8ff" stroke="#8a5cc6" stroke-width="1.5"/>
  <text x="1944" y="348" font-size="13" text-anchor="middle" fill="#000000">frameworks.copilot_vscode</text>
  <rect x="1868" y="424" width="152" height="30" rx="6" fill="#f0e8ff" stroke="#8a5cc6" stroke-width="1.5"/>
  <text x="1944" y="444" font-size="13" text-anchor="middle" fill="#000000">frameworks.goose</text>
  <rect x="1584" y="304" width="176" height="30" rx="6" fill="#f0e8ff" stroke="#8a5cc6" stroke-width="1.5"/>
  <text x="1672" y="324" font-size="13" text-anchor="middle" fill="#000000">frameworks.registry</text>
  <rect x="584" y="256" width="96" height="30" rx="6" fill="#e8eefb" stroke="#1b3fa0" stroke-width="1.5"/>
  <text x="632" y="276" font-size="13" text-anchor="middle" fill="#000000">git_hooks</text>
  <rect x="840" y="16" width="120" height="30" rx="6" fill="#e8eefb" stroke="#1b3fa0" stroke-width="1.5"/>
  <text x="900" y="36" font-size="13" text-anchor="middle" fill="#000000">goose_config</text>
  <rect x="868" y="256" width="64" height="30" rx="6" fill="#e8eefb" stroke="#1b3fa0" stroke-width="1.5"/>
  <text x="900" y="276" font-size="13" text-anchor="middle" fill="#000000">graph</text>
  <rect x="320" y="256" width="152" height="30" rx="6" fill="#e8eefb" stroke="#1b3fa0" stroke-width="1.5"/>
  <text x="396" y="276" font-size="13" text-anchor="middle" fill="#000000">handoff_payloads</text>
  <rect x="1360" y="592" width="104" height="30" rx="6" fill="#e8eefb" stroke="#1b3fa0" stroke-width="1.5"/>
  <text x="1412" y="612" font-size="13" text-anchor="middle" fill="#000000">hooks_emit</text>
  <rect x="332" y="352" width="128" height="30" rx="6" fill="#e8eefb" stroke="#1b3fa0" stroke-width="1.5"/>
  <text x="396" y="372" font-size="13" text-anchor="middle" fill="#000000">host_features</text>
  <rect x="596" y="640" width="72" height="30" rx="6" fill="#e8eefb" stroke="#1b3fa0" stroke-width="1.5"/>
  <text x="632" y="660" font-size="13" text-anchor="middle" fill="#000000">ingest</text>
  <rect x="1328" y="400" width="168" height="30" rx="6" fill="#e8eefb" stroke="#1b3fa0" stroke-width="1.5"/>
  <text x="1412" y="420" font-size="13" text-anchor="middle" fill="#000000">instructions_split</text>
  <rect x="1372" y="256" width="80" height="30" rx="6" fill="#e8eefb" stroke="#1b3fa0" stroke-width="1.5"/>
  <text x="1412" y="276" font-size="13" text-anchor="middle" fill="#000000">interop</text>
  <rect x="1884" y="472" width="120" height="30" rx="6" fill="#e8eefb" stroke="#1b3fa0" stroke-width="1.5"/>
  <text x="1944" y="492" font-size="13" text-anchor="middle" fill="#000000">liaison_logs</text>
  <rect x="108" y="520" width="48" height="30" rx="6" fill="#e8eefb" stroke="#1b3fa0" stroke-width="1.5"/>
  <text x="132" y="540" font-size="13" text-anchor="middle" fill="#000000">man</text>
  <rect x="828" y="640" width="144" height="30" rx="6" fill="#e8eefb" stroke="#1b3fa0" stroke-width="1.5"/>
  <text x="900" y="660" font-size="13" text-anchor="middle" fill="#000000">manifest_format</text>
  <rect x="848" y="688" width="104" height="30" rx="6" fill="#e8eefb" stroke="#1b3fa0" stroke-width="1.5"/>
  <text x="900" y="708" font-size="13" text-anchor="middle" fill="#000000">mcp_detect</text>
  <rect x="856" y="448" width="88" height="30" rx="6" fill="#e8eefb" stroke="#1b3fa0" stroke-width="1.5"/>
  <text x="900" y="468" font-size="13" text-anchor="middle" fill="#000000">mcp_emit</text>
  <rect x="1100" y="568" width="120" height="30" rx="6" fill="#e8eefb" stroke="#1b3fa0" stroke-width="1.5"/>
  <text x="1160" y="588" font-size="13" text-anchor="middle" fill="#000000">memory_index</text>
  <rect x="792" y="496" width="216" height="30" rx="6" fill="#e8eefb" stroke="#1b3fa0" stroke-width="1.5"/>
  <text x="900" y="516" font-size="13" text-anchor="middle" fill="#000000">memory_index_incremental</text>
  <rect x="836" y="592" width="128" height="30" rx="6" fill="#e8eefb" stroke="#1b3fa0" stroke-width="1.5"/>
  <text x="900" y="612" font-size="13" text-anchor="middle" fill="#000000">model_routing</text>
  <rect x="844" y="736" width="112" height="30" rx="6" fill="#e8eefb" stroke="#1b3fa0" stroke-width="1.5"/>
  <text x="900" y="756" font-size="13" text-anchor="middle" fill="#000000">output_plan</text>
  <rect x="1348" y="448" width="128" height="30" rx="6" fill="#e8eefb" stroke="#1b3fa0" stroke-width="1.5"/>
  <text x="1412" y="468" font-size="13" text-anchor="middle" fill="#000000">parallel_plan</text>
  <rect x="80" y="568" width="104" height="30" rx="6" fill="#e8eefb" stroke="#1b3fa0" stroke-width="1.5"/>
  <text x="132" y="588" font-size="13" text-anchor="middle" fill="#000000">plan_steps</text>
  <rect x="1340" y="496" width="144" height="30" rx="6" fill="#e8eefb" stroke="#1b3fa0" stroke-width="1.5"/>
  <text x="1412" y="516" font-size="13" text-anchor="middle" fill="#000000">plan_steps_todo</text>
  <rect x="68" y="616" width="128" height="30" rx="6" fill="#e8eefb" stroke="#1b3fa0" stroke-width="1.5"/>
  <text x="132" y="636" font-size="13" text-anchor="middle" fill="#000000">pr_management</text>
  <rect x="836" y="784" width="128" height="30" rx="6" fill="#e8eefb" stroke="#1b3fa0" stroke-width="1.5"/>
  <text x="900" y="804" font-size="13" text-anchor="middle" fill="#000000">recipe_fields</text>
  <rect x="84" y="664" width="96" height="30" rx="6" fill="#e8eefb" stroke="#1b3fa0" stroke-width="1.5"/>
  <text x="132" y="684" font-size="13" text-anchor="middle" fill="#000000">remediate</text>
  <rect x="864" y="304" width="72" height="30" rx="6" fill="#e8eefb" stroke="#1b3fa0" stroke-width="1.5"/>
  <text x="900" y="324" font-size="13" text-anchor="middle" fill="#000000">render</text>
  <rect x="604" y="688" width="56" height="30" rx="6" fill="#e8eefb" stroke="#1b3fa0" stroke-width="1.5"/>
  <text x="632" y="708" font-size="13" text-anchor="middle" fill="#000000">scan</text>
  <rect x="1348" y="640" width="128" height="30" rx="6" fill="#e8eefb" stroke="#1b3fa0" stroke-width="1.5"/>
  <text x="1412" y="660" font-size="13" text-anchor="middle" fill="#000000">schedule_emit</text>
  <rect x="568" y="400" width="128" height="30" rx="6" fill="#e8eefb" stroke="#1b3fa0" stroke-width="1.5"/>
  <text x="632" y="420" font-size="13" text-anchor="middle" fill="#000000">security_refs</text>
  <rect x="832" y="352" width="136" height="30" rx="6" fill="#e8eefb" stroke="#1b3fa0" stroke-width="1.5"/>
  <text x="900" y="372" font-size="13" text-anchor="middle" fill="#000000">stale_detector</text>
  <rect x="560" y="304" width="144" height="30" rx="6" fill="#e8eefb" stroke="#1b3fa0" stroke-width="1.5"/>
  <text x="632" y="324" font-size="13" text-anchor="middle" fill="#000000">stale_remediate</text>
  <rect x="1108" y="328" width="104" height="30" rx="6" fill="#e8eefb" stroke="#1b3fa0" stroke-width="1.5"/>
  <text x="1160" y="348" font-size="13" text-anchor="middle" fill="#000000">svg_render</text>
  <rect x="840" y="160" width="120" height="30" rx="6" fill="#e8eefb" stroke="#1b3fa0" stroke-width="1.5"/>
  <text x="900" y="180" font-size="13" text-anchor="middle" fill="#000000">vscode_tasks</text>
  <rect x="2344" y="400" width="152" height="30" rx="6" fill="#e8eefb" stroke="#1b3fa0" stroke-width="1.5"/>
  <text x="2420" y="420" font-size="13" text-anchor="middle" fill="#000000">yaml_frontmatter</text>
</svg>
