<svg xmlns="http://www.w3.org/2000/svg" viewBox="0 0 2496 1638" width="2496" height="1638" font-family="monospace">
  <title>agentteams — Module Dependencies</title>
  <defs>
    <marker id="arrow" viewBox="0 0 10 10" refX="9" refY="5" markerWidth="7" markerHeight="7" orient="auto-start-reverse">
      <polygon points="0,0 10,5 0,10" fill="#8a8a8a"/>
    </marker>
  </defs>
  <path d="M672,189 L720,189 C756,189 756,365 792,365 L936,365 C972,365 972,645 1008,645 L1080,645" fill="none" stroke="#8a8a8a" stroke-width="1.5" marker-end="url(#arrow)"/>
  <path d="M672,189 L720,189 C756,189 756,59 792,59" fill="none" stroke="#8a8a8a" stroke-width="1.5" marker-end="url(#arrow)"/>
  <path d="M672,189 L720,189 C756,189 756,107 792,107 L812,107" fill="none" stroke="#8a8a8a" stroke-width="1.5" marker-end="url(#arrow)"/>
  <path d="M672,189 L720,189 C756,189 756,155 792,155 L808,155" fill="none" stroke="#8a8a8a" stroke-width="1.5" marker-start="url(#arrow)" marker-end="url(#arrow)"/>
  <path d="M672,189 L720,189 C756,189 756,203 792,203 L800,203" fill="none" stroke="#8a8a8a" stroke-width="1.5" marker-end="url(#arrow)"/>
  <path d="M924,967 L936,967 C972,967 972,993 1008,993 L1064,993" fill="none" stroke="#8a8a8a" stroke-width="1.5" marker-end="url(#arrow)"/>
  <path d="M1692,763 L1744,763 C1780,763 1780,1043 1816,1043 L1876,1043" fill="none" stroke="#8a8a8a" stroke-width="1.5" marker-end="url(#arrow)"/>
  <path d="M1692,763 L1744,763 C1780,763 1780,671 1816,671 L1884,671" fill="none" stroke="#8a8a8a" stroke-width="1.5" marker-end="url(#arrow)"/>
  <path d="M1692,763 L1744,763 C1780,763 1780,967 1816,967 L1868,967" fill="none" stroke="#8a8a8a" stroke-width="1.5" marker-end="url(#arrow)"/>
  <path d="M208,507 L248,507 C284,507 284,477 320,477" fill="none" stroke="#8a8a8a" stroke-width="1.5" marker-end="url(#arrow)"/>
  <path d="M1152,225 L1224,225 C1260,225 1260,701 1296,701 L1496,701 C1532,701 1532,763 1568,763 L1620,763" fill="none" stroke="#8a8a8a" stroke-width="1.5" marker-end="url(#arrow)"/>
  <path d="M1152,225 L1224,225 C1260,225 1260,519 1296,519 L1328,519" fill="none" stroke="#8a8a8a" stroke-width="1.5" marker-end="url(#arrow)"/>
  <path d="M1152,225 L1224,225 C1260,225 1260,281 1296,281 L1496,281 C1532,281 1532,415 1568,415 L1580,415" fill="none" stroke="#8a8a8a" stroke-width="1.5" marker-end="url(#arrow)"/>
  <path d="M1152,225 L1224,225 C1260,225 1260,243 1296,243" fill="none" stroke="#8a8a8a" stroke-width="1.5" marker-end="url(#arrow)"/>
  <path d="M1152,225 L1224,225 C1260,225 1260,357 1296,357 L1496,357 C1532,357 1532,481 1568,481 L1744,481 C1780,481 1780,623 1816,623 L1852,623" fill="none" stroke="#8a8a8a" stroke-width="1.5" marker-end="url(#arrow)"/>
  <path d="M1152,225 L1224,225 C1260,225 1260,423 1296,423 L1344,423" fill="none" stroke="#8a8a8a" stroke-width="1.5" marker-end="url(#arrow)"/>
  <path d="M1152,225 L1224,225 C1260,225 1260,567 1296,567 L1312,567" fill="none" stroke="#8a8a8a" stroke-width="1.5" marker-end="url(#arrow)"/>
  <path d="M1152,225 L1224,225 C1260,225 1260,851 1296,851 L1356,851" fill="none" stroke="#8a8a8a" stroke-width="1.5" marker-end="url(#arrow)"/>
  <path d="M1152,225 L1224,225 C1260,225 1260,615 1296,615 L1332,615" fill="none" stroke="#8a8a8a" stroke-width="1.5" marker-end="url(#arrow)"/>
  <path d="M1152,225 L1224,225 C1260,225 1260,663 1296,663 L1324,663" fill="none" stroke="#8a8a8a" stroke-width="1.5" marker-end="url(#arrow)"/>
  <path d="M1152,225 L1224,225 C1260,225 1260,471 1296,471 L1332,471" fill="none" stroke="#8a8a8a" stroke-width="1.5" marker-end="url(#arrow)"/>
  <path d="M1496,243 C1532,243 1532,415 1568,415 L1580,415" fill="none" stroke="#8a8a8a" stroke-width="1.5" marker-end="url(#arrow)"/>
  <path d="M1496,243 C1532,243 1532,453 1568,453 L1744,453 C1780,453 1780,623 1816,623 L1852,623" fill="none" stroke="#8a8a8a" stroke-width="1.5" marker-end="url(#arrow)"/>
  <path d="M172,651 L248,651 C284,651 284,753 320,753 L352,753" fill="none" stroke="#8a8a8a" stroke-width="1.5" marker-end="url(#arrow)"/>
  <path d="M172,651 L248,651 C284,651 284,1085 320,1085 L336,1085" fill="none" stroke="#8a8a8a" stroke-width="1.5" marker-end="url(#arrow)"/>
  <path d="M172,651 L248,651 C284,651 284,1037 320,1037 L336,1037" fill="none" stroke="#8a8a8a" stroke-width="1.5" marker-end="url(#arrow)"/>
  <path d="M172,651 L248,651 C284,651 284,839 320,839 L472,839 C508,839 508,321 544,321 L556,321" fill="none" stroke="#8a8a8a" stroke-width="1.5" marker-end="url(#arrow)"/>
  <path d="M172,651 L248,651 C284,651 284,1161 320,1161 L344,1161" fill="none" stroke="#8a8a8a" stroke-width="1.5" marker-end="url(#arrow)"/>
  <path d="M172,651 L248,651 C284,651 284,989 320,989" fill="none" stroke="#8a8a8a" stroke-width="1.5" marker-end="url(#arrow)"/>
  <path d="M172,651 L248,651 C284,651 284,1123 320,1123 L472,1123 C508,1123 508,1477 544,1477" fill="none" stroke="#8a8a8a" stroke-width="1.5" marker-end="url(#arrow)"/>
  <path d="M172,651 L248,651 C284,651 284,687 320,687 L472,687 C508,687 508,151 544,151 L720,151 C756,151 756,21 792,21 L936,21 C972,21 972,35 1008,35 L1224,35 C1260,35 1260,385 1296,385 L1496,385 C1532,385 1532,659 1568,659 L1596,659" fill="none" stroke="#8a8a8a" stroke-width="1.5" marker-end="url(#arrow)"/>
  <path d="M172,651 L248,651 C284,651 284,867 320,867 L472,867 C508,867 508,283 544,283 L720,283 C756,283 756,393 792,393 L936,393 C972,393 972,453 1008,453 L1084,453" fill="none" stroke="#8a8a8a" stroke-width="1.5" marker-end="url(#arrow)"/>
  <path d="M172,651 L248,651 C284,651 284,923 320,923 L472,923 C508,923 508,359 544,359 L720,359 C756,359 756,421 792,421 L936,421 C972,421 972,387 1008,387 L1224,387 C1260,387 1260,757 1296,757 L1496,757 C1532,757 1532,593 1568,593 L1744,593 C1780,593 1780,623 1816,623 L1852,623" fill="none" stroke="#8a8a8a" stroke-width="1.5" marker-end="url(#arrow)"/>
  <path d="M172,651 L248,651 C284,651 284,951 320,951 L472,951 C508,951 508,1241 544,1241 L584,1241" fill="none" stroke="#8a8a8a" stroke-width="1.5" marker-end="url(#arrow)"/>
  <path d="M172,651 L248,651 C284,651 284,801 320,801 L332,801" fill="none" stroke="#8a8a8a" stroke-width="1.5" marker-end="url(#arrow)"/>
  <path d="M928,459 L936,459 C972,459 972,359 1008,359 L1224,359 C1260,359 1260,813 1296,813 L1496,813 C1532,813 1532,925 1568,925 L1744,925 C1780,925 1780,1043 1816,1043 L1876,1043" fill="none" stroke="#8a8a8a" stroke-width="1.5" marker-end="url(#arrow)"/>
  <path d="M928,459 L936,459 C972,459 972,415 1008,415 L1224,415 C1260,415 1260,729 1296,729 L1496,729 C1532,729 1532,565 1568,565 L1744,565 C1780,565 1780,671 1816,671 L1884,671" fill="none" stroke="#8a8a8a" stroke-width="1.5" marker-end="url(#arrow)"/>
  <path d="M928,459 L936,459 C972,459 972,549 1008,549 L1040,549" fill="none" stroke="#8a8a8a" stroke-width="1.5" marker-end="url(#arrow)"/>
  <path d="M928,459 L936,459 C972,459 972,111 1008,111 L1224,111 C1260,111 1260,195 1296,195 L1344,195" fill="none" stroke="#8a8a8a" stroke-width="1.5" marker-end="url(#arrow)"/>
  <path d="M928,459 L936,459 C972,459 972,73 1008,73 L1056,73" fill="none" stroke="#8a8a8a" stroke-width="1.5" marker-end="url(#arrow)"/>
  <path d="M928,459 L936,459 C972,459 972,501 1008,501 L1084,501" fill="none" stroke="#8a8a8a" stroke-width="1.5" marker-end="url(#arrow)"/>
  <path d="M928,459 L936,459 C972,459 972,693 1008,693 L1080,693" fill="none" stroke="#8a8a8a" stroke-width="1.5" marker-end="url(#arrow)"/>
  <path d="M928,459 L936,459 C972,459 972,273 1008,273 L1064,273" fill="none" stroke="#8a8a8a" stroke-width="1.5" marker-end="url(#arrow)"/>
  <path d="M928,459 L936,459 C972,459 972,597 1008,597 L1072,597" fill="none" stroke="#8a8a8a" stroke-width="1.5" marker-end="url(#arrow)"/>
  <path d="M928,459 L936,459 C972,459 972,187 1008,187 L1224,187 C1260,187 1260,319 1296,319 L1336,319" fill="none" stroke="#8a8a8a" stroke-width="1.5" marker-end="url(#arrow)"/>
  <path d="M928,459 L936,459 C972,459 972,149 1008,149" fill="none" stroke="#8a8a8a" stroke-width="1.5" marker-end="url(#arrow)"/>
  <path d="M928,459 L936,459 C972,459 972,321 1008,321 L1052,321" fill="none" stroke="#8a8a8a" stroke-width="1.5" marker-end="url(#arrow)"/>
  <path d="M456,1085 L472,1085 C508,1085 508,387 544,387 L720,387 C756,387 756,337 792,337 L936,337 C972,337 972,225 1008,225 L1080,225" fill="none" stroke="#8a8a8a" stroke-width="1.5" marker-end="url(#arrow)"/>
  <path d="M456,1085 L472,1085 C508,1085 508,797 544,797 L552,797" fill="none" stroke="#8a8a8a" stroke-width="1.5" marker-end="url(#arrow)"/>
  <path d="M456,1085 L472,1085 C508,1085 508,1525 544,1525 L592,1525" fill="none" stroke="#8a8a8a" stroke-width="1.5" marker-end="url(#arrow)"/>
  <path d="M456,1085 L472,1085 C508,1085 508,519 544,519 L720,519 C756,519 756,525 792,525 L936,525 C972,525 972,501 1008,501 L1084,501" fill="none" stroke="#8a8a8a" stroke-width="1.5" marker-end="url(#arrow)"/>
  <path d="M456,1085 L472,1085 C508,1085 508,987 544,987 L720,987 C756,987 756,685 792,685 L936,685 C972,685 972,731 1008,731 L1224,731 C1260,731 1260,927 1296,927 L1368,927" fill="none" stroke="#8a8a8a" stroke-width="1.5" marker-end="url(#arrow)"/>
  <path d="M456,1085 L472,1085 C508,1085 508,1119 544,1119 L720,1119 C756,1119 756,769 792,769 L936,769 C972,769 972,815 1008,815 L1224,815 C1260,815 1260,965 1296,965 L1496,965 C1532,965 1532,887 1568,887" fill="none" stroke="#8a8a8a" stroke-width="1.5" marker-end="url(#arrow)"/>
  <path d="M456,1085 L472,1085 C508,1085 508,1091 544,1091 L720,1091 C756,1091 756,741 792,741 L936,741 C972,741 972,759 1008,759 L1224,759 C1260,759 1260,851 1296,851 L1356,851" fill="none" stroke="#8a8a8a" stroke-width="1.5" marker-end="url(#arrow)"/>
  <path d="M456,1085 L472,1085 C508,1085 508,845 544,845 L568,845" fill="none" stroke="#8a8a8a" stroke-width="1.5" marker-end="url(#arrow)"/>
  <path d="M456,1085 L472,1085 C508,1085 508,883 544,883 L720,883 C756,883 756,591 792,591 L796,591" fill="none" stroke="#8a8a8a" stroke-width="1.5" marker-end="url(#arrow)"/>
  <path d="M456,1085 L472,1085 C508,1085 508,949 544,949 L560,949" fill="none" stroke="#8a8a8a" stroke-width="1.5" marker-start="url(#arrow)" marker-end="url(#arrow)"/>
  <path d="M456,1037 L472,1037 C508,1037 508,557 544,557 L568,557" fill="none" stroke="#8a8a8a" stroke-width="1.5" marker-end="url(#arrow)"/>
  <path d="M456,1037 L472,1037 C508,1037 508,189 544,189 L592,189" fill="none" stroke="#8a8a8a" stroke-width="1.5" marker-end="url(#arrow)"/>
  <path d="M456,1037 L472,1037 C508,1037 508,605 544,605 L600,605" fill="none" stroke="#8a8a8a" stroke-width="1.5" marker-end="url(#arrow)"/>
  <path d="M456,1037 L472,1037 C508,1037 508,653 544,653 L596,653" fill="none" stroke="#8a8a8a" stroke-width="1.5" marker-end="url(#arrow)"/>
  <path d="M456,1037 L472,1037 C508,1037 508,443 544,443 L720,443 C756,443 756,459 792,459 L800,459" fill="none" stroke="#8a8a8a" stroke-width="1.5" marker-end="url(#arrow)"/>
  <path d="M456,1037 L472,1037 C508,1037 508,1477 544,1477" fill="none" stroke="#8a8a8a" stroke-width="1.5" marker-end="url(#arrow)"/>
  <path d="M456,1037 L472,1037 C508,1037 508,797 544,797 L552,797" fill="none" stroke="#8a8a8a" stroke-width="1.5" marker-end="url(#arrow)"/>
  <path d="M456,1037 L472,1037 C508,1037 508,415 544,415 L720,415 C756,415 756,497 792,497 L936,497 C972,497 972,501 1008,501 L1084,501" fill="none" stroke="#8a8a8a" stroke-width="1.5" marker-end="url(#arrow)"/>
  <path d="M456,1037 L472,1037 C508,1037 508,1015 544,1015 L720,1015 C756,1015 756,713 792,713 L936,713 C972,713 972,787 1008,787 L1224,787 C1260,787 1260,927 1296,927 L1368,927" fill="none" stroke="#8a8a8a" stroke-width="1.5" marker-end="url(#arrow)"/>
  <path d="M456,1037 L472,1037 C508,1037 508,1429 544,1429 L596,1429" fill="none" stroke="#8a8a8a" stroke-width="1.5" marker-end="url(#arrow)"/>
  <path d="M456,1037 L472,1037 C508,1037 508,911 544,911 L720,911 C756,911 756,657 792,657 L936,657 C972,657 972,693 1008,693 L1080,693" fill="none" stroke="#8a8a8a" stroke-width="1.5" marker-end="url(#arrow)"/>
  <path d="M456,1037 L472,1037 C508,1037 508,701 544,701 L548,701" fill="none" stroke="#8a8a8a" stroke-width="1.5" marker-end="url(#arrow)"/>
  <path d="M456,1037 L472,1037 C508,1037 508,1203 544,1203 L720,1203 C756,1203 756,929 792,929 L936,929 C972,929 972,899 1008,899 L1224,899 C1260,899 1260,993 1296,993 L1496,993 C1532,993 1532,887 1568,887" fill="none" stroke="#8a8a8a" stroke-width="1.5" marker-end="url(#arrow)"/>
  <path d="M456,1037 L472,1037 C508,1037 508,1241 544,1241 L584,1241" fill="none" stroke="#8a8a8a" stroke-width="1.5" marker-end="url(#arrow)"/>
  <path d="M456,1037 L472,1037 C508,1037 508,1147 544,1147 L720,1147 C756,1147 756,891 792,891 L832,891" fill="none" stroke="#8a8a8a" stroke-width="1.5" marker-end="url(#arrow)"/>
  <path d="M456,1037 L472,1037 C508,1037 508,481 544,481 L596,481" fill="none" stroke="#8a8a8a" stroke-width="1.5" marker-end="url(#arrow)"/>
  <path d="M456,1037 L472,1037 C508,1037 508,1279 544,1279 L720,1279 C756,1279 756,1053 792,1053 L936,1053 C972,1053 972,955 1008,955 L1224,955 C1260,955 1260,1021 1296,1021 L1496,1021 C1532,1021 1532,981 1568,981 L1744,981 C1780,981 1780,967 1816,967 L1868,967" fill="none" stroke="#8a8a8a" stroke-width="1.5" marker-end="url(#arrow)"/>
  <path d="M456,1037 L472,1037 C508,1037 508,1307 544,1307 L720,1307 C756,1307 756,1251 792,1251 L828,1251" fill="none" stroke="#8a8a8a" stroke-width="1.5" marker-end="url(#arrow)"/>
  <path d="M456,1037 L472,1037 C508,1037 508,749 544,749 L604,749" fill="none" stroke="#8a8a8a" stroke-width="1.5" marker-end="url(#arrow)"/>
  <path d="M456,1037 L472,1037 C508,1037 508,845 544,845 L568,845" fill="none" stroke="#8a8a8a" stroke-width="1.5" marker-end="url(#arrow)"/>
  <path d="M708,321 L720,321 C756,321 756,299 792,299 L804,299" fill="none" stroke="#8a8a8a" stroke-width="1.5" marker-end="url(#arrow)"/>
  <path d="M448,1161 L472,1161 C508,1161 508,1363 544,1363 L720,1363 C756,1363 756,1157 792,1157 L936,1157 C972,1157 972,1031 1008,1031 L1224,1031 C1260,1031 1260,1077 1296,1077 L1496,1077 C1532,1077 1532,1093 1568,1093 L1744,1093 C1780,1093 1780,1043 1816,1043 L1876,1043" fill="none" stroke="#8a8a8a" stroke-width="1.5" marker-end="url(#arrow)"/>
  <path d="M448,1161 L472,1161 C508,1161 508,321 544,321 L556,321" fill="none" stroke="#8a8a8a" stroke-width="1.5" marker-end="url(#arrow)"/>
  <path d="M448,1161 L472,1161 C508,1161 508,1053 544,1053" fill="none" stroke="#8a8a8a" stroke-width="1.5" marker-end="url(#arrow)"/>
  <path d="M448,1161 L472,1161 C508,1161 508,1175 544,1175 L720,1175 C756,1175 756,825 792,825 L936,825 C972,825 972,843 1008,843 L1224,843 C1260,843 1260,927 1296,927 L1368,927" fill="none" stroke="#8a8a8a" stroke-width="1.5" marker-end="url(#arrow)"/>
  <path d="M448,1161 L472,1161 C508,1161 508,1391 544,1391 L720,1391 C756,1391 756,1185 792,1185 L936,1185 C972,1185 972,1059 1008,1059 L1224,1059 C1260,1059 1260,1049 1296,1049 L1496,1049 C1532,1049 1532,887 1568,887" fill="none" stroke="#8a8a8a" stroke-width="1.5" marker-end="url(#arrow)"/>
  <path d="M472,989 C508,989 508,1335 544,1335 L720,1335 C756,1335 756,1213 792,1213 L936,1213 C972,1213 972,1267 1008,1267 L1224,1267 C1260,1267 1260,1105 1296,1105 L1496,1105 C1532,1105 1532,953 1568,953 L1744,953 C1780,953 1780,623 1816,623 L1852,623" fill="none" stroke="#8a8a8a" stroke-width="1.5" marker-end="url(#arrow)"/>
  <path d="M720,1477 C756,1477 756,1081 792,1081 L936,1081 C972,1081 972,927 1008,927 L1224,927 L1296,927 L1368,927" fill="none" stroke="#8a8a8a" stroke-width="1.5" marker-end="url(#arrow)"/>
  <path d="M720,1477 C756,1477 756,1345 792,1345 L936,1345 C972,1345 972,1323 1008,1323 L1224,1323 C1260,1323 1260,1133 1296,1133 L1496,1133 C1532,1133 1532,1009 1568,1009 L1744,1009 C1780,1009 1780,747 1816,747 L1836,747" fill="none" stroke="#8a8a8a" stroke-width="1.5" marker-end="url(#arrow)"/>
  <path d="M720,1477 C756,1477 756,1449 792,1449 L936,1449 C972,1449 972,1435 1008,1435 L1224,1435 C1260,1435 1260,1189 1296,1189 L1496,1189 C1532,1189 1532,1121 1568,1121 L1744,1121 C1780,1121 1780,881 1816,881 L2040,881 C2076,881 2076,889 2112,889" fill="none" stroke="#8a8a8a" stroke-width="1.5" marker-end="url(#arrow)"/>
  <path d="M720,1477 C756,1477 756,1505 792,1505 L936,1505 C972,1505 972,1491 1008,1491 L1224,1491 C1260,1491 1260,1217 1296,1217 L1496,1217 C1532,1217 1532,1065 1568,1065 L1744,1065 C1780,1065 1780,795 1816,795 L1848,795" fill="none" stroke="#8a8a8a" stroke-width="1.5" marker-end="url(#arrow)"/>
  <path d="M720,1477 C756,1477 756,1533 792,1533 L936,1533 C972,1533 972,1519 1008,1519 L1224,1519 C1260,1519 1260,1321 1296,1321 L1496,1321 C1532,1321 1532,1149 1568,1149 L1744,1149 C1780,1149 1780,919 1816,919 L1828,919" fill="none" stroke="#8a8a8a" stroke-width="1.5" marker-end="url(#arrow)"/>
  <path d="M720,1477 C756,1477 756,1561 792,1561 L936,1561 C972,1561 972,1575 1008,1575 L1224,1575 C1260,1575 1260,1425 1296,1425 L1496,1425 C1532,1425 1532,1177 1568,1177 L1744,1177 C1780,1177 1780,843 1816,843" fill="none" stroke="#8a8a8a" stroke-width="1.5" marker-end="url(#arrow)"/>
  <path d="M720,1477 C756,1477 756,1589 792,1589 L936,1589 C972,1589 972,1547 1008,1547 L1224,1547 C1260,1547 1260,1293 1296,1293 L1496,1293 C1532,1293 1532,1037 1568,1037 L1744,1037 C1780,1037 1780,623 1816,623 L1852,623" fill="none" stroke="#8a8a8a" stroke-width="1.5" marker-end="url(#arrow)"/>
  <path d="M720,1477 C756,1477 756,891 792,891 L832,891" fill="none" stroke="#8a8a8a" stroke-width="1.5" marker-end="url(#arrow)"/>
  <path d="M720,1477 C756,1477 756,1251 792,1251 L828,1251" fill="none" stroke="#8a8a8a" stroke-width="1.5" marker-end="url(#arrow)"/>
  <path d="M720,1477 C756,1477 756,1411 792,1411 L804,1411" fill="none" stroke="#8a8a8a" stroke-width="1.5" marker-end="url(#arrow)"/>
  <path d="M1192,549 L1224,549 C1260,549 1260,785 1296,785 L1496,785 C1532,785 1532,621 1568,621 L1744,621 C1780,621 1780,671 1816,671 L1884,671" fill="none" stroke="#8a8a8a" stroke-width="1.5" marker-end="url(#arrow)"/>
  <path d="M1176,73 L1224,73 C1260,73 1260,195 1296,195 L1344,195" fill="none" stroke="#8a8a8a" stroke-width="1.5" marker-end="url(#arrow)"/>
  <path d="M672,1525 L720,1525 C756,1525 756,1617 792,1617 L936,1617 C972,1617 972,1603 1008,1603 L1224,1603 C1260,1603 1260,1453 1296,1453 L1496,1453 C1532,1453 1532,1233 1568,1233 L1744,1233 C1780,1233 1780,1005 1816,1005 L2040,1005 C2076,1005 2076,889 2112,889" fill="none" stroke="#8a8a8a" stroke-width="1.5" marker-end="url(#arrow)"/>
  <path d="M672,1525 L720,1525 C756,1525 756,1477 792,1477 L936,1477 C972,1477 972,1379 1008,1379 L1224,1379 C1260,1379 1260,1161 1296,1161 L1496,1161 C1532,1161 1532,887 1568,887" fill="none" stroke="#8a8a8a" stroke-width="1.5" marker-end="url(#arrow)"/>
  <path d="M1148,501 L1224,501 C1260,501 1260,927 1296,927 L1368,927" fill="none" stroke="#8a8a8a" stroke-width="1.5" marker-end="url(#arrow)"/>
  <path d="M1424,927 L1496,927 C1532,927 1532,849 1568,849 L1744,849 C1780,849 1780,671 1816,671 L1884,671" fill="none" stroke="#8a8a8a" stroke-width="1.5" marker-end="url(#arrow)"/>
  <path d="M1424,927 L1496,927 C1532,927 1532,763 1568,763 L1620,763" fill="none" stroke="#8a8a8a" stroke-width="1.5" marker-end="url(#arrow)"/>
  <path d="M1424,927 L1496,927 C1532,927 1532,659 1568,659 L1596,659" fill="none" stroke="#8a8a8a" stroke-width="1.5" marker-start="url(#arrow)" marker-end="url(#arrow)"/>
  <path d="M1424,927 L1496,927 C1532,927 1532,811 1568,811 L1620,811" fill="none" stroke="#8a8a8a" stroke-width="1.5" marker-end="url(#arrow)"/>
  <path d="M668,1429 L720,1429 C756,1429 756,1119 792,1119 L800,1119" fill="none" stroke="#8a8a8a" stroke-width="1.5" marker-end="url(#arrow)"/>
  <path d="M668,1429 L720,1429 C756,1429 756,1015 792,1015 L796,1015" fill="none" stroke="#8a8a8a" stroke-width="1.5" marker-end="url(#arrow)"/>
  <path d="M668,1429 L720,1429 C756,1429 756,1289 792,1289 L936,1289 C972,1289 972,1351 1008,1351 L1224,1351 C1260,1351 1260,1255 1296,1255 L1328,1255" fill="none" stroke="#8a8a8a" stroke-width="1.5" marker-end="url(#arrow)"/>
  <path d="M668,1429 L720,1429 C756,1429 756,1373 792,1373 L936,1373 C972,1373 972,1407 1008,1407 L1224,1407 C1260,1407 1260,1387 1296,1387 L1332,1387" fill="none" stroke="#8a8a8a" stroke-width="1.5" marker-end="url(#arrow)"/>
  <path d="M928,1119 L936,1119 C972,1119 972,1173 1008,1173 L1052,1173" fill="none" stroke="#8a8a8a" stroke-width="1.5" marker-end="url(#arrow)"/>
  <path d="M928,1119 L936,1119 C972,1119 972,1211 1008,1211 L1224,1211 C1260,1211 1260,1255 1296,1255 L1328,1255" fill="none" stroke="#8a8a8a" stroke-width="1.5" marker-end="url(#arrow)"/>
  <path d="M928,1119 L936,1119 C972,1119 972,1295 1008,1295 L1224,1295 C1260,1295 1260,1387 1296,1387 L1332,1387" fill="none" stroke="#8a8a8a" stroke-width="1.5" marker-end="url(#arrow)"/>
  <path d="M932,1015 L936,1015 C972,1015 972,1173 1008,1173 L1052,1173" fill="none" stroke="#8a8a8a" stroke-width="1.5" marker-end="url(#arrow)"/>
  <path d="M932,1015 L936,1015 C972,1015 972,1087 1008,1087 L1224,1087 C1260,1087 1260,1255 1296,1255 L1328,1255" fill="none" stroke="#8a8a8a" stroke-width="1.5" marker-end="url(#arrow)"/>
  <path d="M932,1015 L936,1015 C972,1015 972,1125 1008,1125 L1036,1125" fill="none" stroke="#8a8a8a" stroke-width="1.5" marker-end="url(#arrow)"/>
  <path d="M932,1015 L936,1015 C972,1015 972,1239 1008,1239 L1224,1239 C1260,1239 1260,1387 1296,1387 L1332,1387" fill="none" stroke="#8a8a8a" stroke-width="1.5" marker-end="url(#arrow)"/>
  <path d="M1196,1125 L1224,1125 C1260,1125 1260,1255 1296,1255 L1328,1255" fill="none" stroke="#8a8a8a" stroke-width="1.5" marker-end="url(#arrow)"/>
  <path d="M1196,1125 L1224,1125 C1260,1125 1260,1387 1296,1387 L1332,1387" fill="none" stroke="#8a8a8a" stroke-width="1.5" marker-end="url(#arrow)"/>
  <path d="M1716,659 L1744,659 C1780,659 1780,671 1816,671 L1884,671" fill="none" stroke="#8a8a8a" stroke-width="1.5" marker-end="url(#arrow)"/>
  <path d="M1692,811 L1744,811 C1780,811 1780,671 1816,671 L1884,671" fill="none" stroke="#8a8a8a" stroke-width="1.5" marker-end="url(#arrow)"/>
  <path d="M2020,747 L2040,747 C2076,747 2076,889 2112,889" fill="none" stroke="#8a8a8a" stroke-width="1.5" marker-end="url(#arrow)"/>
  <path d="M2020,747 L2040,747 C2076,747 2076,795 2112,795 L2256,795 C2292,795 2292,819 2328,819" fill="none" stroke="#8a8a8a" stroke-width="1.5" marker-end="url(#arrow)"/>
  <path d="M2256,889 C2292,889 2292,819 2328,819" fill="none" stroke="#8a8a8a" stroke-width="1.5" marker-end="url(#arrow)"/>
  <path d="M2008,795 L2040,795 C2076,795 2076,889 2112,889" fill="none" stroke="#8a8a8a" stroke-width="1.5" marker-end="url(#arrow)"/>
  <path d="M2008,795 L2040,795 C2076,795 2076,823 2112,823 L2256,823 C2292,823 2292,819 2328,819" fill="none" stroke="#8a8a8a" stroke-width="1.5" marker-end="url(#arrow)"/>
  <path d="M2028,919 L2040,919 C2076,919 2076,889 2112,889" fill="none" stroke="#8a8a8a" stroke-width="1.5" marker-end="url(#arrow)"/>
  <path d="M2040,843 C2076,843 2076,889 2112,889" fill="none" stroke="#8a8a8a" stroke-width="1.5" marker-end="url(#arrow)"/>
  <path d="M2040,843 C2076,843 2076,851 2112,851 L2256,851 C2292,851 2292,819 2328,819" fill="none" stroke="#8a8a8a" stroke-width="1.5" marker-end="url(#arrow)"/>
  <path d="M2004,623 L2040,623 C2076,623 2076,889 2112,889" fill="none" stroke="#8a8a8a" stroke-width="1.5" marker-end="url(#arrow)"/>
  <path d="M2004,623 L2040,623 C2076,623 2076,767 2112,767 L2256,767 C2292,767 2292,819 2328,819" fill="none" stroke="#8a8a8a" stroke-width="1.5" marker-end="url(#arrow)"/>
  <path d="M1744,887 C1780,887 1780,747 1816,747 L1836,747" fill="none" stroke="#8a8a8a" stroke-width="1.5" marker-end="url(#arrow)"/>
  <path d="M1744,887 C1780,887 1780,709 1816,709 L2040,709 C2076,709 2076,889 2112,889" fill="none" stroke="#8a8a8a" stroke-width="1.5" marker-end="url(#arrow)"/>
  <path d="M1744,887 C1780,887 1780,795 1816,795 L1848,795" fill="none" stroke="#8a8a8a" stroke-width="1.5" marker-end="url(#arrow)"/>
  <path d="M1744,887 C1780,887 1780,919 1816,919 L1828,919" fill="none" stroke="#8a8a8a" stroke-width="1.5" marker-end="url(#arrow)"/>
  <path d="M1744,887 C1780,887 1780,843 1816,843" fill="none" stroke="#8a8a8a" stroke-width="1.5" marker-end="url(#arrow)"/>
  <path d="M1744,887 C1780,887 1780,623 1816,623 L1852,623" fill="none" stroke="#8a8a8a" stroke-width="1.5" marker-end="url(#arrow)"/>
  <path d="M680,1241 L720,1241 C756,1241 756,1317 792,1317 L936,1317 C972,1317 972,1463 1008,1463 L1224,1463 C1260,1463 1260,1349 1296,1349 L1496,1349 C1532,1349 1532,1205 1568,1205 L1744,1205 C1780,1205 1780,1043 1816,1043 L1876,1043" fill="none" stroke="#8a8a8a" stroke-width="1.5" marker-end="url(#arrow)"/>
  <path d="M680,1241 L720,1241 C756,1241 756,967 792,967 L804,967" fill="none" stroke="#8a8a8a" stroke-width="1.5" marker-end="url(#arrow)"/>
  <path d="M680,1241 L720,1241 C756,1241 756,459 792,459 L800,459" fill="none" stroke="#8a8a8a" stroke-width="1.5" marker-end="url(#arrow)"/>
  <path d="M680,1241 L720,1241 C756,1241 756,853 792,853 L936,853 C972,853 972,871 1008,871 L1224,871 C1260,871 1260,927 1296,927 L1368,927" fill="none" stroke="#8a8a8a" stroke-width="1.5" marker-end="url(#arrow)"/>
  <path d="M680,1241 L720,1241 C756,1241 756,797 792,797 L936,797 C972,797 972,693 1008,693 L1080,693" fill="none" stroke="#8a8a8a" stroke-width="1.5" marker-end="url(#arrow)"/>
  <path d="M680,1241 L720,1241 C756,1241 756,891 792,891 L832,891" fill="none" stroke="#8a8a8a" stroke-width="1.5" marker-end="url(#arrow)"/>
  <path d="M896,891 L936,891 C972,891 972,645 1008,645 L1080,645" fill="none" stroke="#8a8a8a" stroke-width="1.5" marker-end="url(#arrow)"/>
  <path d="M896,891 L936,891 C972,891 972,993 1008,993 L1064,993" fill="none" stroke="#8a8a8a" stroke-width="1.5" marker-end="url(#arrow)"/>
  <path d="M1448,423 L1496,423 C1532,423 1532,509 1568,509 L1744,509 C1780,509 1780,671 1816,671 L1884,671" fill="none" stroke="#8a8a8a" stroke-width="1.5" marker-end="url(#arrow)"/>
  <path d="M668,481 L720,481 C756,481 756,553 792,553 L936,553 C972,553 972,645 1008,645 L1080,645" fill="none" stroke="#8a8a8a" stroke-width="1.5" marker-end="url(#arrow)"/>
  <path d="M1436,851 L1496,851 C1532,851 1532,887 1568,887" fill="none" stroke="#8a8a8a" stroke-width="1.5" marker-end="url(#arrow)"/>
  <path d="M1436,851 L1496,851 C1532,851 1532,697 1568,697 L1744,697 C1780,697 1780,585 1816,585 L2040,585 C2076,585 2076,739 2112,739 L2256,739 C2292,739 2292,819 2328,819" fill="none" stroke="#8a8a8a" stroke-width="1.5" marker-end="url(#arrow)"/>
  <path d="M1160,597 L1224,597 C1260,597 1260,889 1296,889 L1496,889 C1532,889 1532,725 1568,725 L1744,725 C1780,725 1780,671 1816,671 L1884,671" fill="none" stroke="#8a8a8a" stroke-width="1.5" marker-end="url(#arrow)"/>
  <path d="M1224,149 C1260,149 1260,319 1296,319 L1336,319" fill="none" stroke="#8a8a8a" stroke-width="1.5" marker-end="url(#arrow)"/>
  <path d="M176,603 L248,603 C284,603 284,573 320,573 L332,573" fill="none" stroke="#8a8a8a" stroke-width="1.5" marker-end="url(#arrow)"/>
  <path d="M176,603 L248,603 C284,603 284,611 320,611 L472,611 C508,611 508,113 544,113 L548,113" fill="none" stroke="#8a8a8a" stroke-width="1.5" marker-end="url(#arrow)"/>
  <path d="M176,603 L248,603 C284,603 284,715 320,715 L472,715 C508,715 508,227 544,227 L720,227 C756,227 756,251 792,251" fill="none" stroke="#8a8a8a" stroke-width="1.5" marker-end="url(#arrow)"/>
  <path d="M176,603 L248,603 C284,603 284,649 320,649 L324,649" fill="none" stroke="#8a8a8a" stroke-width="1.5" marker-end="url(#arrow)"/>
  <path d="M212,699 L248,699 C284,699 284,895 320,895 L472,895 C508,895 508,255 544,255 L720,255 C756,255 756,251 792,251" fill="none" stroke="#8a8a8a" stroke-width="1.5" marker-end="url(#arrow)"/>
  <path d="M460,573 L472,573 C508,573 508,113 544,113 L548,113" fill="none" stroke="#8a8a8a" stroke-width="1.5" marker-end="url(#arrow)"/>
  <path d="M716,113 L720,113 C756,113 756,251 792,251" fill="none" stroke="#8a8a8a" stroke-width="1.5" marker-end="url(#arrow)"/>
  <path d="M1460,471 L1496,471 C1532,471 1532,537 1568,537 L1744,537 C1780,537 1780,671 1816,671 L1884,671" fill="none" stroke="#8a8a8a" stroke-width="1.5" marker-end="url(#arrow)"/>
  <path d="M192,555 L248,555 C284,555 284,525 320,525 L344,525" fill="none" stroke="#8a8a8a" stroke-width="1.5" marker-end="url(#arrow)"/>
  <path d="M932,591 L936,591 C972,591 972,225 1008,225 L1080,225" fill="none" stroke="#8a8a8a" stroke-width="1.5" marker-end="url(#arrow)"/>
  <path d="M932,591 L936,591 C972,591 972,501 1008,501 L1084,501" fill="none" stroke="#8a8a8a" stroke-width="1.5" marker-end="url(#arrow)"/>
  <path d="M932,591 L936,591 C972,591 972,453 1008,453 L1084,453" fill="none" stroke="#8a8a8a" stroke-width="1.5" marker-end="url(#arrow)"/>
  <path d="M704,949 L720,949 C756,949 756,629 792,629 L936,629 C972,629 972,453 1008,453 L1084,453" fill="none" stroke="#8a8a8a" stroke-width="1.5" marker-end="url(#arrow)"/>
  <path d="M704,949 L720,949 C756,949 756,591 792,591 L796,591" fill="none" stroke="#8a8a8a" stroke-width="1.5" marker-end="url(#arrow)"/>
  <rect x="1876" y="1028" width="104" height="30" rx="6" fill="#e8eefb" stroke="#1b3fa0" stroke-width="1.5"/>
  <text x="1928" y="1048" font-size="13" text-anchor="middle" fill="#000000">agentteams</text>
  <rect x="1080" y="630" width="72" height="30" rx="6" fill="#e8eefb" stroke="#1b3fa0" stroke-width="1.5"/>
  <text x="1116" y="650" font-size="13" text-anchor="middle" fill="#000000">_utils</text>
  <rect x="88" y="732" width="88" height="30" rx="6" fill="#e8eefb" stroke="#1b3fa0" stroke-width="1.5"/>
  <text x="132" y="752" font-size="13" text-anchor="middle" fill="#000000">advisory</text>
  <rect x="568" y="542" width="128" height="30" rx="6" fill="#e8eefb" stroke="#1b3fa0" stroke-width="1.5"/>
  <text x="632" y="562" font-size="13" text-anchor="middle" fill="#000000">ai_bad_habits</text>
  <rect x="592" y="174" width="80" height="30" rx="6" fill="#e8eefb" stroke="#1b3fa0" stroke-width="1.5"/>
  <text x="632" y="194" font-size="13" text-anchor="middle" fill="#000000">analyze</text>
  <rect x="804" y="952" width="120" height="30" rx="6" fill="#e8eefb" stroke="#1b3fa0" stroke-width="1.5"/>
  <text x="864" y="972" font-size="13" text-anchor="middle" fill="#000000">architecture</text>
  <rect x="1884" y="656" width="88" height="30" rx="6" fill="#e8eefb" stroke="#1b3fa0" stroke-width="1.5"/>
  <text x="1928" y="676" font-size="13" text-anchor="middle" fill="#000000">atomicio</text>
  <rect x="600" y="590" width="64" height="30" rx="6" fill="#e8eefb" stroke="#1b3fa0" stroke-width="1.5"/>
  <text x="632" y="610" font-size="13" text-anchor="middle" fill="#000000">audit</text>
  <rect x="1620" y="748" width="72" height="30" rx="6" fill="#e8eefb" stroke="#1b3fa0" stroke-width="1.5"/>
  <text x="1656" y="768" font-size="13" text-anchor="middle" fill="#000000">backup</text>
  <rect x="352" y="738" width="88" height="30" rx="6" fill="#e8eefb" stroke="#1b3fa0" stroke-width="1.5"/>
  <text x="396" y="758" font-size="13" text-anchor="middle" fill="#000000">baseline</text>
  <rect x="56" y="492" width="152" height="30" rx="6" fill="#e8eefb" stroke="#1b3fa0" stroke-width="1.5"/>
  <text x="132" y="512" font-size="13" text-anchor="middle" fill="#000000">behavioral_drift</text>
  <rect x="1080" y="210" width="72" height="30" rx="6" fill="#e8eefb" stroke="#1b3fa0" stroke-width="1.5"/>
  <text x="1116" y="230" font-size="13" text-anchor="middle" fill="#000000">bridge</text>
  <rect x="1328" y="504" width="136" height="30" rx="6" fill="#e8eefb" stroke="#1b3fa0" stroke-width="1.5"/>
  <text x="1396" y="524" font-size="13" text-anchor="middle" fill="#000000">bridge_sources</text>
  <rect x="1580" y="400" width="152" height="30" rx="6" fill="#e8eefb" stroke="#1b3fa0" stroke-width="1.5"/>
  <text x="1656" y="420" font-size="13" text-anchor="middle" fill="#000000">bridge_subagents</text>
  <rect x="1296" y="228" width="200" height="30" rx="6" fill="#e8eefb" stroke="#1b3fa0" stroke-width="1.5"/>
  <text x="1396" y="248" font-size="13" text-anchor="middle" fill="#000000">bridge_subagents_goose</text>
  <rect x="596" y="638" width="72" height="30" rx="6" fill="#e8eefb" stroke="#1b3fa0" stroke-width="1.5"/>
  <text x="632" y="658" font-size="13" text-anchor="middle" fill="#000000">budget</text>
  <rect x="108" y="780" width="48" height="30" rx="6" fill="#e8eefb" stroke="#1b3fa0" stroke-width="1.5"/>
  <text x="132" y="800" font-size="13" text-anchor="middle" fill="#000000">cli</text>
  <rect x="92" y="636" width="80" height="30" rx="6" fill="#eef6ee" stroke="#3f8f4f" stroke-width="1.5"/>
  <text x="132" y="656" font-size="13" text-anchor="middle" fill="#000000">cli.app</text>
  <rect x="800" y="444" width="128" height="30" rx="6" fill="#eef6ee" stroke="#3f8f4f" stroke-width="1.5"/>
  <text x="864" y="464" font-size="13" text-anchor="middle" fill="#000000">cli.artifacts</text>
  <rect x="336" y="1070" width="120" height="30" rx="6" fill="#eef6ee" stroke="#3f8f4f" stroke-width="1.5"/>
  <text x="396" y="1090" font-size="13" text-anchor="middle" fill="#000000">cli.commands</text>
  <rect x="336" y="1022" width="120" height="30" rx="6" fill="#eef6ee" stroke="#3f8f4f" stroke-width="1.5"/>
  <text x="396" y="1042" font-size="13" text-anchor="middle" fill="#000000">cli.generate</text>
  <rect x="556" y="306" width="152" height="30" rx="6" fill="#eef6ee" stroke="#3f8f4f" stroke-width="1.5"/>
  <text x="632" y="326" font-size="13" text-anchor="middle" fill="#000000">cli.goose_switch</text>
  <rect x="344" y="1146" width="104" height="30" rx="6" fill="#eef6ee" stroke="#3f8f4f" stroke-width="1.5"/>
  <text x="396" y="1166" font-size="13" text-anchor="middle" fill="#000000">cli.parser</text>
  <rect x="544" y="1038" width="176" height="30" rx="6" fill="#eef6ee" stroke="#3f8f4f" stroke-width="1.5"/>
  <text x="632" y="1058" font-size="13" text-anchor="middle" fill="#000000">cli.parser_validate</text>
  <rect x="320" y="974" width="152" height="30" rx="6" fill="#eef6ee" stroke="#3f8f4f" stroke-width="1.5"/>
  <text x="396" y="994" font-size="13" text-anchor="middle" fill="#000000">cli.recipe_check</text>
  <rect x="544" y="1462" width="176" height="30" rx="6" fill="#eef6ee" stroke="#3f8f4f" stroke-width="1.5"/>
  <text x="632" y="1482" font-size="13" text-anchor="middle" fill="#000000">cli.render_pipeline</text>
  <rect x="1040" y="534" width="152" height="30" rx="6" fill="#eef6ee" stroke="#3f8f4f" stroke-width="1.5"/>
  <text x="1116" y="554" font-size="13" text-anchor="middle" fill="#000000">cli.schema_cache</text>
  <rect x="552" y="782" width="160" height="30" rx="6" fill="#eef6ee" stroke="#3f8f4f" stroke-width="1.5"/>
  <text x="632" y="802" font-size="13" text-anchor="middle" fill="#000000">cli.security_gate</text>
  <rect x="1344" y="180" width="104" height="30" rx="6" fill="#e8eefb" stroke="#1b3fa0" stroke-width="1.5"/>
  <text x="1396" y="200" font-size="13" text-anchor="middle" fill="#000000">code_index</text>
  <rect x="1056" y="58" width="120" height="30" rx="6" fill="#e8eefb" stroke="#1b3fa0" stroke-width="1.5"/>
  <text x="1116" y="78" font-size="13" text-anchor="middle" fill="#000000">code_sources</text>
  <rect x="592" y="1510" width="80" height="30" rx="6" fill="#e8eefb" stroke="#1b3fa0" stroke-width="1.5"/>
  <text x="632" y="1530" font-size="13" text-anchor="middle" fill="#000000">convert</text>
  <rect x="1084" y="486" width="64" height="30" rx="6" fill="#e8eefb" stroke="#1b3fa0" stroke-width="1.5"/>
  <text x="1116" y="506" font-size="13" text-anchor="middle" fill="#000000">drift</text>
  <rect x="1368" y="912" width="56" height="30" rx="6" fill="#e8eefb" stroke="#1b3fa0" stroke-width="1.5"/>
  <text x="1396" y="932" font-size="13" text-anchor="middle" fill="#000000">emit</text>
  <rect x="596" y="1414" width="72" height="30" rx="6" fill="#e8eefb" stroke="#1b3fa0" stroke-width="1.5"/>
  <text x="632" y="1434" font-size="13" text-anchor="middle" fill="#000000">enrich</text>
  <rect x="800" y="1104" width="128" height="30" rx="6" fill="#fff8e8" stroke="#ccaa44" stroke-width="1.5"/>
  <text x="864" y="1124" font-size="13" text-anchor="middle" fill="#000000">enrich._audit</text>
  <rect x="796" y="1000" width="136" height="30" rx="6" fill="#fff8e8" stroke="#ccaa44" stroke-width="1.5"/>
  <text x="864" y="1020" font-size="13" text-anchor="middle" fill="#000000">enrich._enrich</text>
  <rect x="1052" y="1158" width="128" height="30" rx="6" fill="#fff8e8" stroke="#ccaa44" stroke-width="1.5"/>
  <text x="1116" y="1178" font-size="13" text-anchor="middle" fill="#000000">enrich._fills</text>
  <rect x="1328" y="1240" width="136" height="30" rx="6" fill="#fff8e8" stroke="#ccaa44" stroke-width="1.5"/>
  <text x="1396" y="1260" font-size="13" text-anchor="middle" fill="#000000">enrich._models</text>
  <rect x="1036" y="1110" width="160" height="30" rx="6" fill="#fff8e8" stroke="#ccaa44" stroke-width="1.5"/>
  <text x="1116" y="1130" font-size="13" text-anchor="middle" fill="#000000">enrich._notebooks</text>
  <rect x="1332" y="1372" width="128" height="30" rx="6" fill="#fff8e8" stroke="#ccaa44" stroke-width="1.5"/>
  <text x="1396" y="1392" font-size="13" text-anchor="middle" fill="#000000">enrich._tools</text>
  <rect x="1080" y="678" width="72" height="30" rx="6" fill="#e8eefb" stroke="#1b3fa0" stroke-width="1.5"/>
  <text x="1116" y="698" font-size="13" text-anchor="middle" fill="#000000">errors</text>
  <rect x="68" y="828" width="128" height="30" rx="6" fill="#e8eefb" stroke="#1b3fa0" stroke-width="1.5"/>
  <text x="132" y="848" font-size="13" text-anchor="middle" fill="#000000">eval_adapters</text>
  <rect x="24" y="876" width="216" height="30" rx="6" fill="#ffe8e8" stroke="#cc6666" stroke-width="1.5"/>
  <text x="132" y="896" font-size="13" text-anchor="middle" fill="#000000">eval_adapters.inspect_ai</text>
  <rect x="16" y="924" width="232" height="30" rx="6" fill="#ffe8e8" stroke="#cc6666" stroke-width="1.5"/>
  <text x="132" y="944" font-size="13" text-anchor="middle" fill="#000000">eval_adapters.openai_evals</text>
  <rect x="1064" y="258" width="104" height="30" rx="6" fill="#e8eefb" stroke="#1b3fa0" stroke-width="1.5"/>
  <text x="1116" y="278" font-size="13" text-anchor="middle" fill="#000000">eval_suite</text>
  <rect x="1596" y="644" width="120" height="30" rx="6" fill="#e8eefb" stroke="#1b3fa0" stroke-width="1.5"/>
  <text x="1656" y="664" font-size="13" text-anchor="middle" fill="#000000">fence_inject</text>
  <rect x="1620" y="796" width="72" height="30" rx="6" fill="#e8eefb" stroke="#1b3fa0" stroke-width="1.5"/>
  <text x="1656" y="816" font-size="13" text-anchor="middle" fill="#000000">fences</text>
  <rect x="1084" y="438" width="64" height="30" rx="6" fill="#e8eefb" stroke="#1b3fa0" stroke-width="1.5"/>
  <text x="1116" y="458" font-size="13" text-anchor="middle" fill="#000000">fleet</text>
  <rect x="548" y="686" width="168" height="30" rx="6" fill="#e8eefb" stroke="#1b3fa0" stroke-width="1.5"/>
  <text x="632" y="706" font-size="13" text-anchor="middle" fill="#000000">framework_research</text>
  <rect x="80" y="972" width="104" height="30" rx="6" fill="#e8eefb" stroke="#1b3fa0" stroke-width="1.5"/>
  <text x="132" y="992" font-size="13" text-anchor="middle" fill="#000000">frameworks</text>
  <rect x="1836" y="732" width="184" height="30" rx="6" fill="#f0e8ff" stroke="#8a5cc6" stroke-width="1.5"/>
  <text x="1928" y="752" font-size="13" text-anchor="middle" fill="#000000">frameworks.agents_md</text>
  <rect x="2112" y="874" width="144" height="30" rx="6" fill="#f0e8ff" stroke="#8a5cc6" stroke-width="1.5"/>
  <text x="2184" y="894" font-size="13" text-anchor="middle" fill="#000000">frameworks.base</text>
  <rect x="1848" y="780" width="160" height="30" rx="6" fill="#f0e8ff" stroke="#8a5cc6" stroke-width="1.5"/>
  <text x="1928" y="800" font-size="13" text-anchor="middle" fill="#000000">frameworks.claude</text>
  <rect x="1828" y="904" width="200" height="30" rx="6" fill="#f0e8ff" stroke="#8a5cc6" stroke-width="1.5"/>
  <text x="1928" y="924" font-size="13" text-anchor="middle" fill="#000000">frameworks.copilot_cli</text>
  <rect x="1816" y="828" width="224" height="30" rx="6" fill="#f0e8ff" stroke="#8a5cc6" stroke-width="1.5"/>
  <text x="1928" y="848" font-size="13" text-anchor="middle" fill="#000000">frameworks.copilot_vscode</text>
  <rect x="1852" y="608" width="152" height="30" rx="6" fill="#f0e8ff" stroke="#8a5cc6" stroke-width="1.5"/>
  <text x="1928" y="628" font-size="13" text-anchor="middle" fill="#000000">frameworks.goose</text>
  <rect x="1568" y="872" width="176" height="30" rx="6" fill="#f0e8ff" stroke="#8a5cc6" stroke-width="1.5"/>
  <text x="1656" y="892" font-size="13" text-anchor="middle" fill="#000000">frameworks.registry</text>
  <rect x="584" y="1226" width="96" height="30" rx="6" fill="#e8eefb" stroke="#1b3fa0" stroke-width="1.5"/>
  <text x="632" y="1246" font-size="13" text-anchor="middle" fill="#000000">git_hooks</text>
  <rect x="804" y="284" width="120" height="30" rx="6" fill="#e8eefb" stroke="#1b3fa0" stroke-width="1.5"/>
  <text x="864" y="304" font-size="13" text-anchor="middle" fill="#000000">goose_config</text>
  <rect x="832" y="876" width="64" height="30" rx="6" fill="#e8eefb" stroke="#1b3fa0" stroke-width="1.5"/>
  <text x="864" y="896" font-size="13" text-anchor="middle" fill="#000000">graph</text>
  <rect x="320" y="462" width="152" height="30" rx="6" fill="#e8eefb" stroke="#1b3fa0" stroke-width="1.5"/>
  <text x="396" y="482" font-size="13" text-anchor="middle" fill="#000000">handoff_payloads</text>
  <rect x="1344" y="408" width="104" height="30" rx="6" fill="#e8eefb" stroke="#1b3fa0" stroke-width="1.5"/>
  <text x="1396" y="428" font-size="13" text-anchor="middle" fill="#000000">hooks_emit</text>
  <rect x="332" y="786" width="128" height="30" rx="6" fill="#e8eefb" stroke="#1b3fa0" stroke-width="1.5"/>
  <text x="396" y="806" font-size="13" text-anchor="middle" fill="#000000">host_features</text>
  <rect x="596" y="466" width="72" height="30" rx="6" fill="#e8eefb" stroke="#1b3fa0" stroke-width="1.5"/>
  <text x="632" y="486" font-size="13" text-anchor="middle" fill="#000000">ingest</text>
  <rect x="1312" y="552" width="168" height="30" rx="6" fill="#e8eefb" stroke="#1b3fa0" stroke-width="1.5"/>
  <text x="1396" y="572" font-size="13" text-anchor="middle" fill="#000000">instructions_split</text>
  <rect x="1356" y="836" width="80" height="30" rx="6" fill="#e8eefb" stroke="#1b3fa0" stroke-width="1.5"/>
  <text x="1396" y="856" font-size="13" text-anchor="middle" fill="#000000">interop</text>
  <rect x="1868" y="952" width="120" height="30" rx="6" fill="#e8eefb" stroke="#1b3fa0" stroke-width="1.5"/>
  <text x="1928" y="972" font-size="13" text-anchor="middle" fill="#000000">liaison_logs</text>
  <rect x="108" y="1020" width="48" height="30" rx="6" fill="#e8eefb" stroke="#1b3fa0" stroke-width="1.5"/>
  <text x="132" y="1040" font-size="13" text-anchor="middle" fill="#000000">man</text>
  <rect x="792" y="44" width="144" height="30" rx="6" fill="#e8eefb" stroke="#1b3fa0" stroke-width="1.5"/>
  <text x="864" y="64" font-size="13" text-anchor="middle" fill="#000000">manifest_format</text>
  <rect x="812" y="92" width="104" height="30" rx="6" fill="#e8eefb" stroke="#1b3fa0" stroke-width="1.5"/>
  <text x="864" y="112" font-size="13" text-anchor="middle" fill="#000000">mcp_detect</text>
  <rect x="1072" y="582" width="88" height="30" rx="6" fill="#e8eefb" stroke="#1b3fa0" stroke-width="1.5"/>
  <text x="1116" y="602" font-size="13" text-anchor="middle" fill="#000000">mcp_emit</text>
  <rect x="1336" y="304" width="120" height="30" rx="6" fill="#e8eefb" stroke="#1b3fa0" stroke-width="1.5"/>
  <text x="1396" y="324" font-size="13" text-anchor="middle" fill="#000000">memory_index</text>
  <rect x="1008" y="134" width="216" height="30" rx="6" fill="#e8eefb" stroke="#1b3fa0" stroke-width="1.5"/>
  <text x="1116" y="154" font-size="13" text-anchor="middle" fill="#000000">memory_index_incremental</text>
  <rect x="1052" y="306" width="128" height="30" rx="6" fill="#e8eefb" stroke="#1b3fa0" stroke-width="1.5"/>
  <text x="1116" y="326" font-size="13" text-anchor="middle" fill="#000000">model_routing</text>
  <rect x="808" y="140" width="112" height="30" rx="6" fill="#e8eefb" stroke="#1b3fa0" stroke-width="1.5"/>
  <text x="864" y="160" font-size="13" text-anchor="middle" fill="#000000">output_plan</text>
  <rect x="1332" y="600" width="128" height="30" rx="6" fill="#e8eefb" stroke="#1b3fa0" stroke-width="1.5"/>
  <text x="1396" y="620" font-size="13" text-anchor="middle" fill="#000000">parallel_plan</text>
  <rect x="344" y="510" width="104" height="30" rx="6" fill="#e8eefb" stroke="#1b3fa0" stroke-width="1.5"/>
  <text x="396" y="530" font-size="13" text-anchor="middle" fill="#000000">plan_steps</text>
  <rect x="1324" y="648" width="144" height="30" rx="6" fill="#e8eefb" stroke="#1b3fa0" stroke-width="1.5"/>
  <text x="1396" y="668" font-size="13" text-anchor="middle" fill="#000000">plan_steps_todo</text>
  <rect x="68" y="1068" width="128" height="30" rx="6" fill="#e8eefb" stroke="#1b3fa0" stroke-width="1.5"/>
  <text x="132" y="1088" font-size="13" text-anchor="middle" fill="#000000">pr_management</text>
  <rect x="800" y="188" width="128" height="30" rx="6" fill="#e8eefb" stroke="#1b3fa0" stroke-width="1.5"/>
  <text x="864" y="208" font-size="13" text-anchor="middle" fill="#000000">recipe_fields</text>
  <rect x="84" y="1116" width="96" height="30" rx="6" fill="#e8eefb" stroke="#1b3fa0" stroke-width="1.5"/>
  <text x="132" y="1136" font-size="13" text-anchor="middle" fill="#000000">remediate</text>
  <rect x="828" y="1236" width="72" height="30" rx="6" fill="#e8eefb" stroke="#1b3fa0" stroke-width="1.5"/>
  <text x="864" y="1256" font-size="13" text-anchor="middle" fill="#000000">render</text>
  <rect x="88" y="588" width="88" height="30" rx="6" fill="#e8eefb" stroke="#1b3fa0" stroke-width="1.5"/>
  <text x="132" y="608" font-size="13" text-anchor="middle" fill="#000000">research</text>
  <rect x="52" y="684" width="160" height="30" rx="6" fill="#e8fbff" stroke="#3f8f9f" stroke-width="1.5"/>
  <text x="132" y="704" font-size="13" text-anchor="middle" fill="#000000">research.__main__</text>
  <rect x="332" y="558" width="128" height="30" rx="6" fill="#e8fbff" stroke="#3f8f9f" stroke-width="1.5"/>
  <text x="396" y="578" font-size="13" text-anchor="middle" fill="#000000">research.news</text>
  <rect x="548" y="98" width="168" height="30" rx="6" fill="#e8fbff" stroke="#3f8f9f" stroke-width="1.5"/>
  <text x="632" y="118" font-size="13" text-anchor="middle" fill="#000000">research.reputable</text>
  <rect x="792" y="236" width="144" height="30" rx="6" fill="#e8fbff" stroke="#3f8f9f" stroke-width="1.5"/>
  <text x="864" y="256" font-size="13" text-anchor="middle" fill="#000000">research.search</text>
  <rect x="324" y="634" width="144" height="30" rx="6" fill="#e8fbff" stroke="#3f8f9f" stroke-width="1.5"/>
  <text x="396" y="654" font-size="13" text-anchor="middle" fill="#000000">research.verify</text>
  <rect x="604" y="734" width="56" height="30" rx="6" fill="#e8eefb" stroke="#1b3fa0" stroke-width="1.5"/>
  <text x="632" y="754" font-size="13" text-anchor="middle" fill="#000000">scan</text>
  <rect x="1332" y="456" width="128" height="30" rx="6" fill="#e8eefb" stroke="#1b3fa0" stroke-width="1.5"/>
  <text x="1396" y="476" font-size="13" text-anchor="middle" fill="#000000">schedule_emit</text>
  <rect x="568" y="830" width="128" height="30" rx="6" fill="#e8eefb" stroke="#1b3fa0" stroke-width="1.5"/>
  <text x="632" y="850" font-size="13" text-anchor="middle" fill="#000000">security_refs</text>
  <rect x="72" y="540" width="120" height="30" rx="6" fill="#e8eefb" stroke="#1b3fa0" stroke-width="1.5"/>
  <text x="132" y="560" font-size="13" text-anchor="middle" fill="#000000">session_scan</text>
  <rect x="796" y="576" width="136" height="30" rx="6" fill="#e8eefb" stroke="#1b3fa0" stroke-width="1.5"/>
  <text x="864" y="596" font-size="13" text-anchor="middle" fill="#000000">stale_detector</text>
  <rect x="560" y="934" width="144" height="30" rx="6" fill="#e8eefb" stroke="#1b3fa0" stroke-width="1.5"/>
  <text x="632" y="954" font-size="13" text-anchor="middle" fill="#000000">stale_remediate</text>
  <rect x="1064" y="978" width="104" height="30" rx="6" fill="#e8eefb" stroke="#1b3fa0" stroke-width="1.5"/>
  <text x="1116" y="998" font-size="13" text-anchor="middle" fill="#000000">svg_render</text>
  <rect x="804" y="1396" width="120" height="30" rx="6" fill="#e8eefb" stroke="#1b3fa0" stroke-width="1.5"/>
  <text x="864" y="1416" font-size="13" text-anchor="middle" fill="#000000">vscode_tasks</text>
  <rect x="2328" y="804" width="152" height="30" rx="6" fill="#e8eefb" stroke="#1b3fa0" stroke-width="1.5"/>
  <text x="2404" y="824" font-size="13" text-anchor="middle" fill="#000000">yaml_frontmatter</text>
</svg>
