<?xml version="1.0" encoding="UTF-8" standalone="no"?>
<!DOCTYPE svg PUBLIC "-//W3C//DTD SVG 1.1//EN"
 "http://www.w3.org/Graphics/SVG/1.1/DTD/svg11.dtd">
<!-- Generated by graphviz version 14.0.5 (20251129.0259)
 -->
<!-- Title: wf10 Pages: 1 -->
<svg width="350pt" height="548pt"
 viewBox="0.00 0.00 350.00 548.00" xmlns="http://www.w3.org/2000/svg" xmlns:xlink="http://www.w3.org/1999/xlink">
<g id="graph0" class="graph" transform="scale(1 1) rotate(0) translate(21.6 526.5)">
<title>wf10</title>
<polygon fill="#fafafa" stroke="none" points="-21.6,21.6 -21.6,-526.5 328.6,-526.5 328.6,21.6 -21.6,21.6"/>
<text xml:space="preserve" text-anchor="start" x="8" y="-486.7" font-family="Helvetica,sans-Serif" font-weight="bold" font-size="16.00">Workflow 10: Bibliography Operations</text>
<!-- orch -->
<g id="node1" class="node">
<title>orch</title>
<path fill="#1b2a4a" stroke="black" stroke-width="1.2" d="M215.69,-480.4C215.69,-480.4 120.74,-480.4 120.74,-480.4 114.74,-480.4 108.74,-474.4 108.74,-468.4 108.74,-468.4 108.74,-455.8 108.74,-455.8 108.74,-449.8 114.74,-443.8 120.74,-443.8 120.74,-443.8 215.69,-443.8 215.69,-443.8 221.69,-443.8 227.69,-449.8 227.69,-455.8 227.69,-455.8 227.69,-468.4 227.69,-468.4 227.69,-474.4 221.69,-480.4 215.69,-480.4"/>
<text xml:space="preserve" text-anchor="middle" x="168.22" y="-456.3" font-family="Helvetica,sans-Serif" font-size="14.00" fill="white">Orchestrator</text>
</g>
<!-- bib -->
<g id="node2" class="node">
<title>bib</title>
<path fill="#b8860b" stroke="black" stroke-width="1.2" d="M250.57,-365.8C250.57,-365.8 85.87,-365.8 85.87,-365.8 79.87,-365.8 73.87,-359.8 73.87,-353.8 73.87,-353.8 73.87,-326.2 73.87,-326.2 73.87,-320.2 79.87,-314.2 85.87,-314.2 85.87,-314.2 250.57,-314.2 250.57,-314.2 256.57,-314.2 262.57,-320.2 262.57,-326.2 262.57,-326.2 262.57,-353.8 262.57,-353.8 262.57,-359.8 256.57,-365.8 250.57,-365.8"/>
<text xml:space="preserve" text-anchor="middle" x="168.22" y="-341.7" font-family="Helvetica,sans-Serif" font-size="14.00" fill="white">@bibliography&#45;manager</text>
<text xml:space="preserve" text-anchor="middle" x="168.22" y="-326.7" font-family="Helvetica,sans-Serif" font-size="14.00" fill="white">Perform operation</text>
</g>
<!-- orch&#45;&gt;bib -->
<g id="edge1" class="edge">
<title>orch&#45;&gt;bib</title>
<path fill="none" stroke="#333333" d="M168.22,-443.38C168.22,-425.65 168.22,-397.89 168.22,-375.75"/>
<polygon fill="#333333" stroke="#333333" points="171.02,-375.86 168.22,-367.86 165.42,-375.86 171.02,-375.86"/>
<text xml:space="preserve" text-anchor="middle" x="177.22" y="-400.35" font-family="Helvetica,sans-Serif" font-size="11.00"> &#160;1 &#160;</text>
</g>
<!-- dec -->
<g id="node3" class="node">
<title>dec</title>
<polygon fill="#708090" stroke="black" stroke-width="1.2" points="168.22,-247.2 65.77,-188.4 168.22,-129.6 270.67,-188.4 168.22,-247.2"/>
<text xml:space="preserve" text-anchor="middle" x="168.22" y="-190.1" font-family="Helvetica,sans-Serif" font-size="14.00" fill="white">Citations</text>
<text xml:space="preserve" text-anchor="middle" x="168.22" y="-175.1" font-family="Helvetica,sans-Serif" font-size="14.00" fill="white">changed?</text>
</g>
<!-- bib&#45;&gt;dec -->
<g id="edge2" class="edge">
<title>bib&#45;&gt;dec</title>
<path fill="none" stroke="#333333" d="M168.22,-313.62C168.22,-298.01 168.22,-277.19 168.22,-257.06"/>
<polygon fill="#333333" stroke="#333333" points="171.02,-257.09 168.22,-249.09 165.42,-257.09 171.02,-257.09"/>
</g>
<!-- ca -->
<g id="node4" class="node">
<title>ca</title>
<path fill="#4682b4" stroke="black" stroke-width="1.2" d="M141.82,-51.6C141.82,-51.6 20.62,-51.6 20.62,-51.6 14.62,-51.6 8.62,-45.6 8.62,-39.6 8.62,-39.6 8.62,-12 8.62,-12 8.62,-6 14.62,0 20.62,0 20.62,0 141.82,0 141.82,0 147.82,0 153.82,-6 153.82,-12 153.82,-12 153.82,-39.6 153.82,-39.6 153.82,-45.6 147.82,-51.6 141.82,-51.6"/>
<text xml:space="preserve" text-anchor="middle" x="81.22" y="-27.5" font-family="Helvetica,sans-Serif" font-size="14.00" fill="white">@conflict&#45;auditor</text>
<text xml:space="preserve" text-anchor="middle" x="81.22" y="-12.5" font-family="Helvetica,sans-Serif" font-size="14.00" fill="white">Verify cross&#45;refs</text>
</g>
<!-- dec&#45;&gt;ca -->
<g id="edge3" class="edge">
<title>dec&#45;&gt;ca</title>
<path fill="none" stroke="#333333" d="M144.21,-143.09C129.99,-116.85 112.27,-84.13 99.25,-60.1"/>
<polygon fill="#333333" stroke="#333333" points="101.85,-59.01 95.58,-53.31 96.93,-61.68 101.85,-59.01"/>
<text xml:space="preserve" text-anchor="middle" x="131.55" y="-86.15" font-family="Helvetica,sans-Serif" font-size="11.00"> &#160;Yes &#160;</text>
</g>
<!-- done -->
<g id="node5" class="node">
<title>done</title>
<ellipse fill="#e8edf2" stroke="black" stroke-width="1.2" cx="255.22" cy="-25.8" rx="43.17" ry="22.83"/>
<text xml:space="preserve" text-anchor="middle" x="255.22" y="-20" font-family="Helvetica,sans-Serif" font-size="14.00" fill="#333333">Done</text>
</g>
<!-- dec&#45;&gt;done -->
<g id="edge4" class="edge">
<title>dec&#45;&gt;done</title>
<path fill="none" stroke="#333333" stroke-dasharray="5,2" d="M192.22,-143.09C207.25,-115.35 226.19,-80.39 239.36,-56.07"/>
<polygon fill="#333333" stroke="#333333" points="241.69,-57.65 243.04,-49.28 236.77,-54.98 241.69,-57.65"/>
<text xml:space="preserve" text-anchor="middle" x="235.19" y="-86.15" font-family="Helvetica,sans-Serif" font-size="11.00"> &#160;No &#160;</text>
</g>
</g>
</svg>
