<?xml version="1.0" encoding="UTF-8" standalone="no"?>
<!DOCTYPE svg PUBLIC "-//W3C//DTD SVG 1.1//EN"
 "http://www.w3.org/Graphics/SVG/1.1/DTD/svg11.dtd">
<!-- Generated by graphviz version 14.0.5 (20251129.0259)
 -->
<!-- Title: wf03 Pages: 1 -->
<svg width="544pt" height="1695pt"
 viewBox="0.00 0.00 544.00 1695.00" xmlns="http://www.w3.org/2000/svg" xmlns:xlink="http://www.w3.org/1999/xlink">
<g id="graph0" class="graph" transform="scale(1 1) rotate(0) translate(21.6 1673.9)">
<title>wf03</title>
<polygon fill="#fafafa" stroke="none" points="-21.6,21.6 -21.6,-1673.9 522.4,-1673.9 522.4,21.6 -21.6,21.6"/>
<text xml:space="preserve" text-anchor="start" x="140.15" y="-1634.1" font-family="Helvetica,sans-Serif" font-weight="bold" font-size="16.00">Workflow 3: Chapter Drafting</text>
<!-- orch -->
<g id="node1" class="node">
<title>orch</title>
<path fill="#1b2a4a" stroke="black" stroke-width="1.2" d="M152.92,-1627.8C152.92,-1627.8 57.97,-1627.8 57.97,-1627.8 51.97,-1627.8 45.97,-1621.8 45.97,-1615.8 45.97,-1615.8 45.97,-1603.2 45.97,-1603.2 45.97,-1597.2 51.97,-1591.2 57.97,-1591.2 57.97,-1591.2 152.92,-1591.2 152.92,-1591.2 158.92,-1591.2 164.92,-1597.2 164.92,-1603.2 164.92,-1603.2 164.92,-1615.8 164.92,-1615.8 164.92,-1621.8 158.92,-1627.8 152.92,-1627.8"/>
<text xml:space="preserve" text-anchor="middle" x="105.45" y="-1603.7" font-family="Helvetica,sans-Serif" font-size="14.00" fill="white">Orchestrator</text>
</g>
<!-- nav -->
<g id="node2" class="node">
<title>nav</title>
<path fill="#4682b4" stroke="black" stroke-width="1.2" d="M157.42,-1513.2C157.42,-1513.2 53.47,-1513.2 53.47,-1513.2 47.48,-1513.2 41.47,-1507.2 41.47,-1501.2 41.47,-1501.2 41.47,-1473.6 41.47,-1473.6 41.47,-1467.6 47.47,-1461.6 53.47,-1461.6 53.47,-1461.6 157.42,-1461.6 157.42,-1461.6 163.42,-1461.6 169.42,-1467.6 169.42,-1473.6 169.42,-1473.6 169.42,-1501.2 169.42,-1501.2 169.42,-1507.2 163.42,-1513.2 157.42,-1513.2"/>
<text xml:space="preserve" text-anchor="middle" x="105.45" y="-1489.1" font-family="Helvetica,sans-Serif" font-size="14.00" fill="white">@navigator</text>
<text xml:space="preserve" text-anchor="middle" x="105.45" y="-1474.1" font-family="Helvetica,sans-Serif" font-size="14.00" fill="white">Verify location</text>
</g>
<!-- orch&#45;&gt;nav -->
<g id="edge1" class="edge">
<title>orch&#45;&gt;nav</title>
<path fill="none" stroke="#333333" d="M105.45,-1590.78C105.45,-1573.05 105.45,-1545.29 105.45,-1523.15"/>
<polygon fill="#333333" stroke="#333333" points="108.25,-1523.26 105.45,-1515.26 102.65,-1523.26 108.25,-1523.26"/>
<text xml:space="preserve" text-anchor="middle" x="114.45" y="-1547.75" font-family="Helvetica,sans-Serif" font-size="11.00"> &#160;1 &#160;</text>
</g>
<!-- chexp_b -->
<g id="node3" class="node">
<title>chexp_b</title>
<path fill="#b8860b" stroke="black" stroke-width="1.2" d="M180.67,-1383.6C180.67,-1383.6 30.22,-1383.6 30.22,-1383.6 24.22,-1383.6 18.22,-1377.6 18.22,-1371.6 18.22,-1371.6 18.22,-1344 18.22,-1344 18.22,-1338 24.22,-1332 30.22,-1332 30.22,-1332 180.67,-1332 180.67,-1332 186.67,-1332 192.67,-1338 192.67,-1344 192.67,-1344 192.67,-1371.6 192.67,-1371.6 192.67,-1377.6 186.67,-1383.6 180.67,-1383.6"/>
<text xml:space="preserve" text-anchor="middle" x="105.45" y="-1359.5" font-family="Helvetica,sans-Serif" font-size="14.00" fill="white">@chapter&#45;NN&#45;expert</text>
<text xml:space="preserve" text-anchor="middle" x="105.45" y="-1344.5" font-family="Helvetica,sans-Serif" font-size="14.00" fill="white">Prepare Chapter Brief</text>
</g>
<!-- nav&#45;&gt;chexp_b -->
<g id="edge2" class="edge">
<title>nav&#45;&gt;chexp_b</title>
<path fill="none" stroke="#333333" d="M105.45,-1461.19C105.45,-1441.79 105.45,-1414.77 105.45,-1393.35"/>
<polygon fill="#333333" stroke="#333333" points="108.25,-1393.47 105.45,-1385.47 102.65,-1393.47 108.25,-1393.47"/>
<text xml:space="preserve" text-anchor="middle" x="114.45" y="-1418.15" font-family="Helvetica,sans-Serif" font-size="11.00"> &#160;2 &#160;</text>
</g>
<!-- bib -->
<g id="node4" class="node">
<title>bib</title>
<path fill="#b8860b" stroke="black" stroke-width="1.2" d="M488.8,-1383.6C488.8,-1383.6 324.1,-1383.6 324.1,-1383.6 318.1,-1383.6 312.1,-1377.6 312.1,-1371.6 312.1,-1371.6 312.1,-1344 312.1,-1344 312.1,-1338 318.1,-1332 324.1,-1332 324.1,-1332 488.8,-1332 488.8,-1332 494.8,-1332 500.8,-1338 500.8,-1344 500.8,-1344 500.8,-1371.6 500.8,-1371.6 500.8,-1377.6 494.8,-1383.6 488.8,-1383.6"/>
<text xml:space="preserve" text-anchor="middle" x="406.45" y="-1359.5" font-family="Helvetica,sans-Serif" font-size="14.00" fill="white">@bibliography&#45;manager</text>
<text xml:space="preserve" text-anchor="middle" x="406.45" y="-1344.5" font-family="Helvetica,sans-Serif" font-size="14.00" fill="white">Verify citation keys</text>
</g>
<!-- chexp_b&#45;&gt;bib -->
<g id="edge3" class="edge">
<title>chexp_b&#45;&gt;bib</title>
<path fill="none" stroke="#333333" stroke-dasharray="5,2" d="M192.92,-1357.8C227.09,-1357.8 266.57,-1357.8 302.2,-1357.8"/>
<polygon fill="#333333" stroke="#333333" points="302.15,-1360.6 310.15,-1357.8 302.15,-1355 302.15,-1360.6"/>
<text xml:space="preserve" text-anchor="middle" x="252.39" y="-1362.35" font-family="Helvetica,sans-Serif" font-size="11.00"> &#160;verify keys &#160;</text>
</g>
<!-- adv -->
<g id="node5" class="node">
<title>adv</title>
<path fill="#4682b4" stroke="black" stroke-width="1.2" d="M178.8,-1254C178.8,-1254 32.1,-1254 32.1,-1254 26.1,-1254 20.1,-1248 20.1,-1242 20.1,-1242 20.1,-1214.4 20.1,-1214.4 20.1,-1208.4 26.1,-1202.4 32.1,-1202.4 32.1,-1202.4 178.8,-1202.4 178.8,-1202.4 184.8,-1202.4 190.8,-1208.4 190.8,-1214.4 190.8,-1214.4 190.8,-1242 190.8,-1242 190.8,-1248 184.8,-1254 178.8,-1254"/>
<text xml:space="preserve" text-anchor="middle" x="105.45" y="-1229.9" font-family="Helvetica,sans-Serif" font-size="14.00" fill="white">@adversarial</text>
<text xml:space="preserve" text-anchor="middle" x="105.45" y="-1214.9" font-family="Helvetica,sans-Serif" font-size="14.00" fill="white">Review Chapter Brief</text>
</g>
<!-- chexp_b&#45;&gt;adv -->
<g id="edge4" class="edge">
<title>chexp_b&#45;&gt;adv</title>
<path fill="none" stroke="#333333" d="M101.19,-1331.56C99.69,-1321.46 98.19,-1309.71 97.45,-1299 96.65,-1287.4 97.56,-1274.76 99.01,-1263.47"/>
<polygon fill="#333333" stroke="#333333" points="101.74,-1264.17 100.11,-1255.85 96.19,-1263.36 101.74,-1264.17"/>
<text xml:space="preserve" text-anchor="middle" x="106.45" y="-1288.55" font-family="Helvetica,sans-Serif" font-size="11.00"> &#160;3 &#160;</text>
</g>
<!-- adv&#45;&gt;chexp_b -->
<g id="edge5" class="edge">
<title>adv&#45;&gt;chexp_b</title>
<path fill="none" stroke="#b22222" stroke-dasharray="5,2" d="M117.73,-1254.44C122.74,-1267.58 126.85,-1283.99 124.45,-1299 123.19,-1306.87 121.02,-1315.13 118.59,-1322.85"/>
<polygon fill="#b22222" stroke="#b22222" points="116.02,-1321.71 116.13,-1330.19 121.33,-1323.49 116.02,-1321.71"/>
<text xml:space="preserve" text-anchor="middle" x="151.78" y="-1288.55" font-family="Helvetica,sans-Serif" font-size="11.00"> &#160;REVISE &#160;</text>
</g>
<!-- bce -->
<g id="node6" class="node">
<title>bce</title>
<path fill="#b8860b" stroke="black" stroke-width="1.2" d="M182.17,-1124.4C182.17,-1124.4 28.72,-1124.4 28.72,-1124.4 22.72,-1124.4 16.72,-1118.4 16.72,-1112.4 16.72,-1112.4 16.72,-1084.8 16.72,-1084.8 16.72,-1078.8 22.72,-1072.8 28.72,-1072.8 28.72,-1072.8 182.17,-1072.8 182.17,-1072.8 188.17,-1072.8 194.17,-1078.8 194.17,-1084.8 194.17,-1084.8 194.17,-1112.4 194.17,-1112.4 194.17,-1118.4 188.17,-1124.4 182.17,-1124.4"/>
<text xml:space="preserve" text-anchor="middle" x="105.45" y="-1100.3" font-family="Helvetica,sans-Serif" font-size="14.00" fill="white">@book&#45;content&#45;expert</text>
<text xml:space="preserve" text-anchor="middle" x="105.45" y="-1085.3" font-family="Helvetica,sans-Serif" font-size="14.00" fill="white">Draft chapter HTML</text>
</g>
<!-- adv&#45;&gt;bce -->
<g id="edge6" class="edge">
<title>adv&#45;&gt;bce</title>
<path fill="none" stroke="#333333" d="M105.45,-1201.99C105.45,-1182.59 105.45,-1155.57 105.45,-1134.15"/>
<polygon fill="#333333" stroke="#333333" points="108.25,-1134.27 105.45,-1126.27 102.65,-1134.27 108.25,-1134.27"/>
<text xml:space="preserve" text-anchor="middle" x="114.45" y="-1158.95" font-family="Helvetica,sans-Serif" font-size="11.00"> &#160;4 &#160;</text>
</g>
<!-- chexp_r -->
<g id="node7" class="node">
<title>chexp_r</title>
<path fill="#b8860b" stroke="black" stroke-width="1.2" d="M177.67,-994.8C177.67,-994.8 33.23,-994.8 33.23,-994.8 27.22,-994.8 21.22,-988.8 21.22,-982.8 21.22,-982.8 21.22,-955.2 21.22,-955.2 21.22,-949.2 27.22,-943.2 33.22,-943.2 33.22,-943.2 177.67,-943.2 177.67,-943.2 183.67,-943.2 189.67,-949.2 189.67,-955.2 189.67,-955.2 189.67,-982.8 189.67,-982.8 189.67,-988.8 183.67,-994.8 177.67,-994.8"/>
<text xml:space="preserve" text-anchor="middle" x="105.45" y="-970.7" font-family="Helvetica,sans-Serif" font-size="14.00" fill="white">@chapter&#45;NN&#45;expert</text>
<text xml:space="preserve" text-anchor="middle" x="105.45" y="-955.7" font-family="Helvetica,sans-Serif" font-size="14.00" fill="white">Review vs. checklist</text>
</g>
<!-- bce&#45;&gt;chexp_r -->
<g id="edge7" class="edge">
<title>bce&#45;&gt;chexp_r</title>
<path fill="none" stroke="#333333" d="M105.45,-1072.39C105.45,-1052.99 105.45,-1025.97 105.45,-1004.55"/>
<polygon fill="#333333" stroke="#333333" points="108.25,-1004.67 105.45,-996.67 102.65,-1004.67 108.25,-1004.67"/>
<text xml:space="preserve" text-anchor="middle" x="114.45" y="-1029.35" font-family="Helvetica,sans-Serif" font-size="11.00"> &#160;5 &#160;</text>
</g>
<!-- dec -->
<g id="node8" class="node">
<title>dec</title>
<polygon fill="#708090" stroke="black" stroke-width="1.2" points="105.45,-865.2 0,-821.4 105.45,-777.6 210.9,-821.4 105.45,-865.2"/>
<text xml:space="preserve" text-anchor="middle" x="105.45" y="-815.6" font-family="Helvetica,sans-Serif" font-size="14.00" fill="white">ACCEPT?</text>
</g>
<!-- chexp_r&#45;&gt;dec -->
<g id="edge8" class="edge">
<title>chexp_r&#45;&gt;dec</title>
<path fill="none" stroke="#333333" d="M105.45,-942.64C105.45,-924.02 105.45,-898.07 105.45,-875.04"/>
<polygon fill="#333333" stroke="#333333" points="108.25,-875.23 105.45,-867.23 102.65,-875.23 108.25,-875.23"/>
</g>
<!-- dec&#45;&gt;bce -->
<g id="edge10" class="edge">
<title>dec&#45;&gt;bce</title>
<path fill="none" stroke="#b22222" stroke-dasharray="5,2" d="M143.25,-849.9C169.88,-871.79 203.37,-905 218.45,-943.2 226.87,-964.53 227.72,-973.83 218.45,-994.8 205.39,-1024.35 179.17,-1049.05 155.27,-1066.83"/>
<polygon fill="#b22222" stroke="#b22222" points="153.69,-1064.52 148.84,-1071.47 156.97,-1069.06 153.69,-1064.52"/>
<text xml:space="preserve" text-anchor="middle" x="251.71" y="-964.55" font-family="Helvetica,sans-Serif" font-size="11.00"> &#160;REVISE &#160;</text>
</g>
<!-- ec -->
<g id="node9" class="node">
<title>ec</title>
<path fill="#4682b4" stroke="black" stroke-width="1.2" d="M170.55,-699.6C170.55,-699.6 40.35,-699.6 40.35,-699.6 34.35,-699.6 28.35,-693.6 28.35,-687.6 28.35,-687.6 28.35,-660 28.35,-660 28.35,-654 34.35,-648 40.35,-648 40.35,-648 170.55,-648 170.55,-648 176.55,-648 182.55,-654 182.55,-660 182.55,-660 182.55,-687.6 182.55,-687.6 182.55,-693.6 176.55,-699.6 170.55,-699.6"/>
<text xml:space="preserve" text-anchor="middle" x="105.45" y="-675.5" font-family="Helvetica,sans-Serif" font-size="14.00" fill="white">@expert&#45;critic</text>
<text xml:space="preserve" text-anchor="middle" x="105.45" y="-660.5" font-family="Helvetica,sans-Serif" font-size="14.00" fill="white">Audit prose quality</text>
</g>
<!-- dec&#45;&gt;ec -->
<g id="edge9" class="edge">
<title>dec&#45;&gt;ec</title>
<path fill="none" stroke="#333333" d="M105.45,-777.11C105.45,-755.5 105.45,-729.71 105.45,-709.43"/>
<polygon fill="#333333" stroke="#333333" points="108.25,-709.48 105.45,-701.48 102.65,-709.48 108.25,-709.48"/>
<text xml:space="preserve" text-anchor="middle" x="133.95" y="-734.15" font-family="Helvetica,sans-Serif" font-size="11.00"> &#160;ACCEPT &#160;</text>
</g>
<!-- ec&#45;&gt;bce -->
<g id="edge11" class="edge">
<title>ec&#45;&gt;bce</title>
<path fill="none" stroke="#b22222" stroke-dasharray="5,2" d="M151.37,-700.09C180.39,-718.21 216.59,-745.11 239.45,-777.6 265.09,-814.04 323.1,-931.54 292.45,-994.8 275.02,-1030.76 239.09,-1054.66 203.34,-1070.29"/>
<polygon fill="#b22222" stroke="#b22222" points="202.44,-1067.63 196.15,-1073.31 204.61,-1072.79 202.44,-1067.63"/>
<text xml:space="preserve" text-anchor="middle" x="322.86" y="-899.75" font-family="Helvetica,sans-Serif" font-size="11.00"> &#160;REVISE &#160;</text>
</g>
<!-- aw -->
<g id="node10" class="node">
<title>aw</title>
<path fill="#4682b4" stroke="black" stroke-width="1.2" d="M175.05,-570C175.05,-570 35.85,-570 35.85,-570 29.85,-570 23.85,-564 23.85,-558 23.85,-558 23.85,-530.4 23.85,-530.4 23.85,-524.4 29.85,-518.4 35.85,-518.4 35.85,-518.4 175.05,-518.4 175.05,-518.4 181.05,-518.4 187.05,-524.4 187.05,-530.4 187.05,-530.4 187.05,-558 187.05,-558 187.05,-564 181.05,-570 175.05,-570"/>
<text xml:space="preserve" text-anchor="middle" x="105.45" y="-545.9" font-family="Helvetica,sans-Serif" font-size="14.00" fill="white">@argument&#45;weaver</text>
<text xml:space="preserve" text-anchor="middle" x="105.45" y="-530.9" font-family="Helvetica,sans-Serif" font-size="14.00" fill="white">Repair cohesion</text>
</g>
<!-- ec&#45;&gt;aw -->
<g id="edge12" class="edge">
<title>ec&#45;&gt;aw</title>
<path fill="none" stroke="#333333" d="M105.45,-647.59C105.45,-628.19 105.45,-601.17 105.45,-579.75"/>
<polygon fill="#333333" stroke="#333333" points="108.25,-579.87 105.45,-571.87 102.65,-579.87 108.25,-579.87"/>
<text xml:space="preserve" text-anchor="middle" x="114.45" y="-604.55" font-family="Helvetica,sans-Serif" font-size="11.00"> &#160;7 &#160;</text>
</g>
<!-- vs -->
<g id="node11" class="node">
<title>vs</title>
<path fill="#b8860b" stroke="black" stroke-width="1.2" d="M160.8,-440.4C160.8,-440.4 50.1,-440.4 50.1,-440.4 44.1,-440.4 38.1,-434.4 38.1,-428.4 38.1,-428.4 38.1,-400.8 38.1,-400.8 38.1,-394.8 44.1,-388.8 50.1,-388.8 50.1,-388.8 160.8,-388.8 160.8,-388.8 166.8,-388.8 172.8,-394.8 172.8,-400.8 172.8,-400.8 172.8,-428.4 172.8,-428.4 172.8,-434.4 166.8,-440.4 160.8,-440.4"/>
<text xml:space="preserve" text-anchor="middle" x="105.45" y="-416.3" font-family="Helvetica,sans-Serif" font-size="14.00" fill="white">@voice&#45;style</text>
<text xml:space="preserve" text-anchor="middle" x="105.45" y="-401.3" font-family="Helvetica,sans-Serif" font-size="14.00" fill="white">Two&#45;pass audit</text>
</g>
<!-- aw&#45;&gt;vs -->
<g id="edge13" class="edge">
<title>aw&#45;&gt;vs</title>
<path fill="none" stroke="#333333" d="M105.45,-517.99C105.45,-498.59 105.45,-471.57 105.45,-450.15"/>
<polygon fill="#333333" stroke="#333333" points="108.25,-450.27 105.45,-442.27 102.65,-450.27 108.25,-450.27"/>
<text xml:space="preserve" text-anchor="middle" x="114.45" y="-474.95" font-family="Helvetica,sans-Serif" font-size="11.00"> &#160;8 &#160;</text>
</g>
<!-- hdb -->
<g id="node12" class="node">
<title>hdb</title>
<path fill="#b8860b" stroke="black" stroke-width="1.2" d="M190.05,-310.8C190.05,-310.8 20.85,-310.8 20.85,-310.8 14.85,-310.8 8.85,-304.8 8.85,-298.8 8.85,-298.8 8.85,-271.2 8.85,-271.2 8.85,-265.2 14.85,-259.2 20.85,-259.2 20.85,-259.2 190.05,-259.2 190.05,-259.2 196.05,-259.2 202.05,-265.2 202.05,-271.2 202.05,-271.2 202.05,-298.8 202.05,-298.8 202.05,-304.8 196.05,-310.8 190.05,-310.8"/>
<text xml:space="preserve" text-anchor="middle" x="105.45" y="-286.7" font-family="Helvetica,sans-Serif" font-size="14.00" fill="white">@html&#45;document&#45;builder</text>
<text xml:space="preserve" text-anchor="middle" x="105.45" y="-271.7" font-family="Helvetica,sans-Serif" font-size="14.00" fill="white">Validate + convert</text>
</g>
<!-- vs&#45;&gt;hdb -->
<g id="edge14" class="edge">
<title>vs&#45;&gt;hdb</title>
<path fill="none" stroke="#333333" d="M105.45,-388.39C105.45,-368.99 105.45,-341.97 105.45,-320.55"/>
<polygon fill="#333333" stroke="#333333" points="108.25,-320.67 105.45,-312.67 102.65,-320.67 108.25,-320.67"/>
<text xml:space="preserve" text-anchor="middle" x="114.45" y="-345.35" font-family="Helvetica,sans-Serif" font-size="11.00"> &#160;9 &#160;</text>
</g>
<!-- ca -->
<g id="node13" class="node">
<title>ca</title>
<path fill="#4682b4" stroke="black" stroke-width="1.2" d="M171.3,-181.2C171.3,-181.2 39.6,-181.2 39.6,-181.2 33.6,-181.2 27.6,-175.2 27.6,-169.2 27.6,-169.2 27.6,-141.6 27.6,-141.6 27.6,-135.6 33.6,-129.6 39.6,-129.6 39.6,-129.6 171.3,-129.6 171.3,-129.6 177.3,-129.6 183.3,-135.6 183.3,-141.6 183.3,-141.6 183.3,-169.2 183.3,-169.2 183.3,-175.2 177.3,-181.2 171.3,-181.2"/>
<text xml:space="preserve" text-anchor="middle" x="105.45" y="-157.1" font-family="Helvetica,sans-Serif" font-size="14.00" fill="white">@conflict&#45;auditor</text>
<text xml:space="preserve" text-anchor="middle" x="105.45" y="-142.1" font-family="Helvetica,sans-Serif" font-size="14.00" fill="white">Consistency check</text>
</g>
<!-- hdb&#45;&gt;ca -->
<g id="edge15" class="edge">
<title>hdb&#45;&gt;ca</title>
<path fill="none" stroke="#333333" d="M105.45,-258.79C105.45,-239.39 105.45,-212.37 105.45,-190.95"/>
<polygon fill="#333333" stroke="#333333" points="108.25,-191.07 105.45,-183.07 102.65,-191.07 108.25,-191.07"/>
<text xml:space="preserve" text-anchor="middle" x="115.95" y="-215.75" font-family="Helvetica,sans-Serif" font-size="11.00"> &#160;10 </text>
</g>
<!-- au -->
<g id="node14" class="node">
<title>au</title>
<path fill="#4682b4" stroke="black" stroke-width="1.2" d="M164.17,-51.6C164.17,-51.6 46.73,-51.6 46.73,-51.6 40.72,-51.6 34.72,-45.6 34.72,-39.6 34.72,-39.6 34.72,-12 34.72,-12 34.72,-6 40.72,0 46.72,0 46.72,0 164.17,0 164.17,0 170.17,0 176.17,-6 176.17,-12 176.17,-12 176.17,-39.6 176.17,-39.6 176.17,-45.6 170.17,-51.6 164.17,-51.6"/>
<text xml:space="preserve" text-anchor="middle" x="105.45" y="-27.5" font-family="Helvetica,sans-Serif" font-size="14.00" fill="white">@agent&#45;updater</text>
<text xml:space="preserve" text-anchor="middle" x="105.45" y="-12.5" font-family="Helvetica,sans-Serif" font-size="14.00" fill="white">Update tracking</text>
</g>
<!-- ca&#45;&gt;au -->
<g id="edge16" class="edge">
<title>ca&#45;&gt;au</title>
<path fill="none" stroke="#333333" d="M105.45,-129.19C105.45,-109.79 105.45,-82.77 105.45,-61.35"/>
<polygon fill="#333333" stroke="#333333" points="108.25,-61.47 105.45,-53.47 102.65,-61.47 108.25,-61.47"/>
<text xml:space="preserve" text-anchor="middle" x="115.95" y="-86.15" font-family="Helvetica,sans-Serif" font-size="11.00"> &#160;11 </text>
</g>
</g>
</svg>
