<?xml version="1.0" encoding="UTF-8" standalone="no"?>
<!DOCTYPE svg PUBLIC "-//W3C//DTD SVG 1.1//EN"
 "http://www.w3.org/Graphics/SVG/1.1/DTD/svg11.dtd">
<!-- Generated by graphviz version 2.43.0 (0)
 -->
<!-- Title: agent_team Pages: 1 -->
<svg width="3328pt" height="634pt"
 viewBox="0.00 0.00 3328.20 634.00" xmlns="http://www.w3.org/2000/svg" xmlns:xlink="http://www.w3.org/1999/xlink">
<g id="graph0" class="graph" transform="scale(1 1) rotate(0) translate(21.6 612.4)">
<title>agent_team</title>
<polygon fill="white" stroke="transparent" points="-21.6,21.6 -21.6,-612.4 3306.6,-612.4 3306.6,21.6 -21.6,21.6"/>
<!-- orchestrator -->
<g id="node1" class="node">
<title>orchestrator</title>
<path fill="#1a3a5c" stroke="black" d="M2104,-590.8C2104,-590.8 1426,-590.8 1426,-590.8 1420,-590.8 1414,-584.8 1414,-578.8 1414,-578.8 1414,-522.8 1414,-522.8 1414,-516.8 1420,-510.8 1426,-510.8 1426,-510.8 2104,-510.8 2104,-510.8 2110,-510.8 2116,-516.8 2116,-522.8 2116,-522.8 2116,-578.8 2116,-578.8 2116,-584.8 2110,-590.8 2104,-590.8"/>
<text text-anchor="start" x="1700.5" y="-559.4" font-family="Helvetica,sans-Serif" font-weight="bold" font-size="18.00" fill="#ffffff">Orchestrator</text>
<text text-anchor="start" x="1447" y="-534" font-family="Helvetica,sans-Serif" font-size="16.00" fill="#ffffff">routes all agents · holds coordinative knowledge · enforces constitutional rules</text>
</g>
<!-- navigator -->
<g id="node2" class="node">
<title>navigator</title>
<path fill="#2e6da4" stroke="black" d="M937,-445.8C937,-445.8 531,-445.8 531,-445.8 525,-445.8 519,-439.8 519,-433.8 519,-433.8 519,-377.8 519,-377.8 519,-371.8 525,-365.8 531,-365.8 531,-365.8 937,-365.8 937,-365.8 943,-365.8 949,-371.8 949,-377.8 949,-377.8 949,-433.8 949,-433.8 949,-439.8 943,-445.8 937,-445.8"/>
<text text-anchor="start" x="684" y="-414.4" font-family="Helvetica,sans-Serif" font-weight="bold" font-size="18.00" fill="#ffffff">Navigator</text>
<text text-anchor="start" x="552" y="-389" font-family="Helvetica,sans-Serif" font-size="16.00" fill="#ffffff">project mapping · authority&#45;hierarchy lookup</text>
</g>
<!-- orchestrator&#45;&gt;navigator -->
<g id="edge1" class="edge">
<title>orchestrator&#45;&gt;navigator</title>
<path fill="none" stroke="#2e6da4" stroke-width="1.4" d="M1453.21,-510.8C1308.02,-492.1 1133.04,-468.8 976,-445.8 969.78,-444.89 963.48,-443.95 957.12,-443"/>
<polygon fill="#2e6da4" stroke="#2e6da4" stroke-width="1.4" points="949.03,-441.78 957.48,-439.41 953.01,-442.18 956.97,-442.78 956.94,-442.97 956.91,-443.17 952.95,-442.58 956.4,-446.53 949.03,-441.78 949.03,-441.78"/>
<text text-anchor="middle" x="1147.87" y="-480.65" font-family="Helvetica,sans-Serif" font-size="11.00" fill="#2e6da4">project&#45;map lookup</text>
</g>
<!-- security -->
<g id="node3" class="node">
<title>security</title>
<path fill="#4a90c4" stroke="black" d="M852,-300.8C852,-300.8 616,-300.8 616,-300.8 610,-300.8 604,-294.8 604,-288.8 604,-288.8 604,-232.8 604,-232.8 604,-226.8 610,-220.8 616,-220.8 616,-220.8 852,-220.8 852,-220.8 858,-220.8 864,-226.8 864,-232.8 864,-232.8 864,-288.8 864,-288.8 864,-294.8 858,-300.8 852,-300.8"/>
<text text-anchor="start" x="659" y="-269.4" font-family="Helvetica,sans-Serif" font-weight="bold" font-size="18.00" fill="#ffffff">Security Agent</text>
<text text-anchor="start" x="637" y="-244" font-family="Helvetica,sans-Serif" font-size="16.00" fill="#ffffff">constitutional clearance</text>
</g>
<!-- orchestrator&#45;&gt;security -->
<g id="edge2" class="edge">
<title>orchestrator&#45;&gt;security</title>
<path fill="none" stroke="#2e6da4" stroke-width="1.4" d="M1551.92,-510.74C1464.58,-493.21 1362.87,-470.82 1272,-445.8 1121.44,-404.34 951.5,-343.85 843.64,-303.69"/>
<polygon fill="#2e6da4" stroke="#2e6da4" stroke-width="1.4" points="835.98,-300.83 844.73,-300.26 839.8,-302.04 843.54,-303.44 843.47,-303.63 843.4,-303.82 839.66,-302.42 842.22,-307 835.98,-300.83 835.98,-300.83"/>
</g>
<!-- adversarial -->
<g id="node4" class="node">
<title>adversarial</title>
<path fill="#4a90c4" stroke="black" d="M1141.5,-300.8C1141.5,-300.8 912.5,-300.8 912.5,-300.8 906.5,-300.8 900.5,-294.8 900.5,-288.8 900.5,-288.8 900.5,-232.8 900.5,-232.8 900.5,-226.8 906.5,-220.8 912.5,-220.8 912.5,-220.8 1141.5,-220.8 1141.5,-220.8 1147.5,-220.8 1153.5,-226.8 1153.5,-232.8 1153.5,-232.8 1153.5,-288.8 1153.5,-288.8 1153.5,-294.8 1147.5,-300.8 1141.5,-300.8"/>
<text text-anchor="start" x="936.5" y="-269.4" font-family="Helvetica,sans-Serif" font-weight="bold" font-size="18.00" fill="#ffffff">Adversarial Agent</text>
<text text-anchor="start" x="934" y="-244" font-family="Helvetica,sans-Serif" font-size="16.00" fill="#ffffff">presupposition critique</text>
</g>
<!-- orchestrator&#45;&gt;adversarial -->
<g id="edge3" class="edge">
<title>orchestrator&#45;&gt;adversarial</title>
<path fill="none" stroke="#2e6da4" stroke-width="1.4" d="M1655.03,-510.71C1601.97,-491.59 1537.5,-467.96 1480,-445.8 1358.28,-398.89 1219.45,-341.99 1127.92,-304"/>
<polygon fill="#2e6da4" stroke="#2e6da4" stroke-width="1.4" points="1120.31,-300.84 1129.08,-300.59 1124.08,-302.19 1127.78,-303.73 1127.7,-303.91 1127.62,-304.1 1123.93,-302.56 1126.32,-307.24 1120.31,-300.84 1120.31,-300.84"/>
</g>
<!-- conflict_auditor -->
<g id="node5" class="node">
<title>conflict_auditor</title>
<path fill="#4a90c4" stroke="black" d="M1434.5,-300.8C1434.5,-300.8 1201.5,-300.8 1201.5,-300.8 1195.5,-300.8 1189.5,-294.8 1189.5,-288.8 1189.5,-288.8 1189.5,-232.8 1189.5,-232.8 1189.5,-226.8 1195.5,-220.8 1201.5,-220.8 1201.5,-220.8 1434.5,-220.8 1434.5,-220.8 1440.5,-220.8 1446.5,-226.8 1446.5,-232.8 1446.5,-232.8 1446.5,-288.8 1446.5,-288.8 1446.5,-294.8 1440.5,-300.8 1434.5,-300.8"/>
<text text-anchor="start" x="1238.5" y="-269.4" font-family="Helvetica,sans-Serif" font-weight="bold" font-size="18.00" fill="#ffffff">Conflict&#45;Auditor</text>
<text text-anchor="start" x="1223" y="-244" font-family="Helvetica,sans-Serif" font-size="16.00" fill="#ffffff">consistency verification</text>
</g>
<!-- orchestrator&#45;&gt;conflict_auditor -->
<g id="edge4" class="edge">
<title>orchestrator&#45;&gt;conflict_auditor</title>
<path fill="none" stroke="#2e6da4" stroke-width="1.4" d="M1704.25,-510.66C1621.05,-457.05 1472.12,-361.1 1385.51,-305.3"/>
<polygon fill="#2e6da4" stroke="#2e6da4" stroke-width="1.4" points="1378.62,-300.86 1387.29,-302.16 1382.09,-302.85 1385.45,-305.02 1385.34,-305.19 1385.23,-305.36 1381.87,-303.19 1383.39,-308.21 1378.62,-300.86 1378.62,-300.86"/>
</g>
<!-- conflict_res -->
<g id="node6" class="node">
<title>conflict_res</title>
<path fill="#4a90c4" stroke="black" d="M1727,-300.8C1727,-300.8 1495,-300.8 1495,-300.8 1489,-300.8 1483,-294.8 1483,-288.8 1483,-288.8 1483,-232.8 1483,-232.8 1483,-226.8 1489,-220.8 1495,-220.8 1495,-220.8 1727,-220.8 1727,-220.8 1733,-220.8 1739,-226.8 1739,-232.8 1739,-232.8 1739,-288.8 1739,-288.8 1739,-294.8 1733,-300.8 1727,-300.8"/>
<text text-anchor="start" x="1516" y="-269.4" font-family="Helvetica,sans-Serif" font-weight="bold" font-size="18.00" fill="#ffffff">Conflict&#45;Resolution</text>
<text text-anchor="start" x="1531" y="-244" font-family="Helvetica,sans-Serif" font-size="16.00" fill="#ffffff">contradiction repair</text>
</g>
<!-- orchestrator&#45;&gt;conflict_res -->
<g id="edge5" class="edge">
<title>orchestrator&#45;&gt;conflict_res</title>
<path fill="none" stroke="#2e6da4" stroke-width="1.4" d="M1744.07,-510.66C1715.89,-457.97 1665.84,-364.36 1635.8,-308.19"/>
<polygon fill="#2e6da4" stroke="#2e6da4" stroke-width="1.4" points="1631.88,-300.86 1638.83,-306.21 1633.95,-304.29 1635.83,-307.82 1635.66,-307.91 1635.48,-308 1633.59,-304.48 1632.48,-309.61 1631.88,-300.86 1631.88,-300.86"/>
</g>
<!-- code_hygiene -->
<g id="node7" class="node">
<title>code_hygiene</title>
<path fill="#4a90c4" stroke="black" d="M2051,-300.8C2051,-300.8 1787,-300.8 1787,-300.8 1781,-300.8 1775,-294.8 1775,-288.8 1775,-288.8 1775,-232.8 1775,-232.8 1775,-226.8 1781,-220.8 1787,-220.8 1787,-220.8 2051,-220.8 2051,-220.8 2057,-220.8 2063,-226.8 2063,-232.8 2063,-232.8 2063,-288.8 2063,-288.8 2063,-294.8 2057,-300.8 2051,-300.8"/>
<text text-anchor="start" x="1808" y="-269.4" font-family="Helvetica,sans-Serif" font-weight="bold" font-size="18.00" fill="#ffffff">Code&#45;Hygiene Auditor</text>
<text text-anchor="start" x="1842.5" y="-244" font-family="Helvetica,sans-Serif" font-size="16.00" fill="#ffffff">technical accuracy</text>
</g>
<!-- orchestrator&#45;&gt;code_hygiene -->
<g id="edge6" class="edge">
<title>orchestrator&#45;&gt;code_hygiene</title>
<path fill="none" stroke="#2e6da4" stroke-width="1.4" d="M1785.93,-510.66C1814.11,-457.97 1864.16,-364.36 1894.2,-308.19"/>
<polygon fill="#2e6da4" stroke="#2e6da4" stroke-width="1.4" points="1898.12,-300.86 1897.52,-309.61 1896.41,-304.48 1894.52,-308 1894.34,-307.91 1894.17,-307.82 1896.05,-304.29 1891.17,-306.21 1898.12,-300.86 1898.12,-300.86"/>
</g>
<!-- agent_refactorer -->
<g id="node8" class="node">
<title>agent_refactorer</title>
<path fill="#4a90c4" stroke="black" d="M2327,-300.8C2327,-300.8 2111,-300.8 2111,-300.8 2105,-300.8 2099,-294.8 2099,-288.8 2099,-288.8 2099,-232.8 2099,-232.8 2099,-226.8 2105,-220.8 2111,-220.8 2111,-220.8 2327,-220.8 2327,-220.8 2333,-220.8 2339,-226.8 2339,-232.8 2339,-232.8 2339,-288.8 2339,-288.8 2339,-294.8 2333,-300.8 2327,-300.8"/>
<text text-anchor="start" x="2132" y="-269.4" font-family="Helvetica,sans-Serif" font-weight="bold" font-size="18.00" fill="#ffffff">Agent&#45;Refactorer</text>
<text text-anchor="start" x="2133" y="-244" font-family="Helvetica,sans-Serif" font-size="16.00" fill="#ffffff">structural refactoring</text>
</g>
<!-- orchestrator&#45;&gt;agent_refactorer -->
<g id="edge7" class="edge">
<title>orchestrator&#45;&gt;agent_refactorer</title>
<path fill="none" stroke="#2e6da4" stroke-width="1.4" d="M1826.7,-510.66C1911.21,-457.05 2062.47,-361.1 2150.43,-305.3"/>
<polygon fill="#2e6da4" stroke="#2e6da4" stroke-width="1.4" points="2157.43,-300.86 2152.61,-308.18 2154.16,-303.17 2150.79,-305.31 2150.68,-305.14 2150.57,-304.97 2153.95,-302.83 2148.75,-302.1 2157.43,-300.86 2157.43,-300.86"/>
</g>
<!-- agent_updater -->
<g id="node9" class="node">
<title>agent_updater</title>
<path fill="#4a90c4" stroke="black" d="M2595,-300.8C2595,-300.8 2387,-300.8 2387,-300.8 2381,-300.8 2375,-294.8 2375,-288.8 2375,-288.8 2375,-232.8 2375,-232.8 2375,-226.8 2381,-220.8 2387,-220.8 2387,-220.8 2595,-220.8 2595,-220.8 2601,-220.8 2607,-226.8 2607,-232.8 2607,-232.8 2607,-288.8 2607,-288.8 2607,-294.8 2601,-300.8 2595,-300.8"/>
<text text-anchor="start" x="2416.5" y="-269.4" font-family="Helvetica,sans-Serif" font-weight="bold" font-size="18.00" fill="#ffffff">Agent&#45;Updater</text>
<text text-anchor="start" x="2408" y="-244" font-family="Helvetica,sans-Serif" font-size="16.00" fill="#ffffff">documentation sync</text>
</g>
<!-- orchestrator&#45;&gt;agent_updater -->
<g id="edge8" class="edge">
<title>orchestrator&#45;&gt;agent_updater</title>
<path fill="none" stroke="#2e6da4" stroke-width="1.4" d="M1863.67,-510.66C1999.89,-456.62 2244.58,-359.55 2384.71,-303.96"/>
<polygon fill="#2e6da4" stroke="#2e6da4" stroke-width="1.4" points="2392.55,-300.86 2386.44,-307.15 2388.9,-302.52 2385.19,-303.99 2385.11,-303.81 2385.04,-303.62 2388.76,-302.14 2383.78,-300.46 2392.55,-300.86 2392.55,-300.86"/>
</g>
<!-- cleanup -->
<g id="node10" class="node">
<title>cleanup</title>
<path fill="#4a90c4" stroke="black" d="M2845,-300.8C2845,-300.8 2655,-300.8 2655,-300.8 2649,-300.8 2643,-294.8 2643,-288.8 2643,-288.8 2643,-232.8 2643,-232.8 2643,-226.8 2649,-220.8 2655,-220.8 2655,-220.8 2845,-220.8 2845,-220.8 2851,-220.8 2857,-226.8 2857,-232.8 2857,-232.8 2857,-288.8 2857,-288.8 2857,-294.8 2851,-300.8 2845,-300.8"/>
<text text-anchor="start" x="2676" y="-269.4" font-family="Helvetica,sans-Serif" font-weight="bold" font-size="18.00" fill="#ffffff">Cleanup Agent</text>
<text text-anchor="start" x="2685.5" y="-244" font-family="Helvetica,sans-Serif" font-size="16.00" fill="#ffffff">artifact removal</text>
</g>
<!-- orchestrator&#45;&gt;cleanup -->
<g id="edge9" class="edge">
<title>orchestrator&#45;&gt;cleanup</title>
<path fill="none" stroke="#2e6da4" stroke-width="1.4" d="M1917.65,-510.71C1990.07,-491.77 2077.69,-468.31 2156,-445.8 2365.69,-385.52 2416.64,-365.51 2625,-300.8 2628.39,-299.75 2631.83,-298.68 2635.3,-297.6"/>
<polygon fill="#2e6da4" stroke="#2e6da4" stroke-width="1.4" points="2642.95,-295.22 2636.38,-301.03 2639.19,-296.6 2635.37,-297.79 2635.31,-297.6 2635.25,-297.4 2639.07,-296.22 2634.24,-294.16 2642.95,-295.22 2642.95,-295.22"/>
</g>
<!-- dom_bus -->
<g id="node20" class="node">
<title>dom_bus</title>
<ellipse fill="#b08a20" stroke="#b08a20" cx="1823" cy="-150.4" rx="5.4" ry="5.4"/>
</g>
<!-- orchestrator&#45;&gt;dom_bus -->
<g id="edge10" class="edge">
<title>orchestrator&#45;&gt;dom_bus</title>
<path fill="none" stroke="#b08a20" stroke-width="1.4" stroke-dasharray="5,2" d="M2116.32,-519.12C2405.62,-485.6 2782.68,-420.01 2875,-300.8 2896.77,-272.69 2899.3,-246.76 2875,-220.8 2836.69,-179.88 1908.17,-153.72 1828.45,-151.55"/>
<text text-anchor="middle" x="1928.53" y="-159.32" font-family="Helvetica,sans-Serif" font-size="11.00" fill="#b08a20">workflow dispatch</text>
</g>
<!-- navigator&#45;&gt;security -->
<!-- security&#45;&gt;dom_bus -->
<!-- book_content -->
<g id="node11" class="node">
<title>book_content</title>
<path fill="#c8a951" stroke="black" d="M270,-80C270,-80 12,-80 12,-80 6,-80 0,-74 0,-68 0,-68 0,-12 0,-12 0,-6 6,0 12,0 12,0 270,0 270,0 276,0 282,-6 282,-12 282,-12 282,-68 282,-68 282,-74 276,-80 270,-80"/>
<text text-anchor="start" x="37" y="-48.6" font-family="Helvetica,sans-Serif" font-weight="bold" font-size="18.00" fill="#1a1a1a">Book&#45;Content Expert</text>
<text text-anchor="start" x="33" y="-23.2" font-family="Helvetica,sans-Serif" font-size="16.00" fill="#1a1a1a">chapter prose composition</text>
</g>
<!-- expert_critic -->
<g id="node12" class="node">
<title>expert_critic</title>
<path fill="#c8a951" stroke="black" d="M684,-80C684,-80 330,-80 330,-80 324,-80 318,-74 318,-68 318,-68 318,-12 318,-12 318,-6 324,0 330,0 330,0 684,0 684,0 690,0 696,-6 696,-12 696,-12 696,-68 696,-68 696,-74 690,-80 684,-80"/>
<text text-anchor="start" x="443.5" y="-48.6" font-family="Helvetica,sans-Serif" font-weight="bold" font-size="18.00" fill="#1a1a1a">Expert&#45;Critic</text>
<text text-anchor="start" x="351" y="-23.2" font-family="Helvetica,sans-Serif" font-size="16.00" fill="#1a1a1a">prose&#45;quality audit &amp; structural review</text>
</g>
<!-- argument_weaver -->
<g id="node13" class="node">
<title>argument_weaver</title>
<path fill="#c8a951" stroke="black" d="M1029.5,-80C1029.5,-80 744.5,-80 744.5,-80 738.5,-80 732.5,-74 732.5,-68 732.5,-68 732.5,-12 732.5,-12 732.5,-6 738.5,0 744.5,0 744.5,0 1029.5,0 1029.5,0 1035.5,0 1041.5,-6 1041.5,-12 1041.5,-12 1041.5,-68 1041.5,-68 1041.5,-74 1035.5,-80 1029.5,-80"/>
<text text-anchor="start" x="795.5" y="-48.6" font-family="Helvetica,sans-Serif" font-weight="bold" font-size="18.00" fill="#1a1a1a">Argument&#45;Weaver</text>
<text text-anchor="start" x="766" y="-23.2" font-family="Helvetica,sans-Serif" font-size="16.00" fill="#1a1a1a">within&#45;section cohesion repair</text>
</g>
<!-- voice_style -->
<g id="node14" class="node">
<title>voice_style</title>
<path fill="#c8a951" stroke="black" d="M1381,-80C1381,-80 1089,-80 1089,-80 1083,-80 1077,-74 1077,-68 1077,-68 1077,-12 1077,-12 1077,-6 1083,0 1089,0 1089,0 1381,0 1381,0 1387,0 1393,-6 1393,-12 1393,-12 1393,-68 1393,-68 1393,-74 1387,-80 1381,-80"/>
<text text-anchor="start" x="1146" y="-48.6" font-family="Helvetica,sans-Serif" font-weight="bold" font-size="18.00" fill="#1a1a1a">Voice&#45;Style Agent</text>
<text text-anchor="start" x="1110" y="-23.2" font-family="Helvetica,sans-Serif" font-size="16.00" fill="#1a1a1a">voice calibration &amp; AI&#45;tell audit</text>
</g>
<!-- html_builder -->
<g id="node15" class="node">
<title>html_builder</title>
<path fill="#8fb8a8" stroke="black" d="M1797,-80C1797,-80 1441,-80 1441,-80 1435,-80 1429,-74 1429,-68 1429,-68 1429,-12 1429,-12 1429,-6 1435,0 1441,0 1441,0 1797,0 1797,0 1803,0 1809,-6 1809,-12 1809,-12 1809,-68 1809,-68 1809,-74 1803,-80 1797,-80"/>
<text text-anchor="start" x="1496" y="-48.6" font-family="Helvetica,sans-Serif" font-weight="bold" font-size="18.00" fill="#1a1a1a">HTML&#45;Document&#45;Builder</text>
<text text-anchor="start" x="1462" y="-23.2" font-family="Helvetica,sans-Serif" font-size="16.00" fill="#1a1a1a">validation &amp; HTML to LaTeX conversion</text>
</g>
<!-- graphviz_expert -->
<g id="node16" class="node">
<title>graphviz_expert</title>
<path fill="#8fb8a8" stroke="black" d="M2196.5,-80C2196.5,-80 1857.5,-80 1857.5,-80 1851.5,-80 1845.5,-74 1845.5,-68 1845.5,-68 1845.5,-12 1845.5,-12 1845.5,-6 1851.5,0 1857.5,0 1857.5,0 2196.5,0 2196.5,0 2202.5,0 2208.5,-6 2208.5,-12 2208.5,-12 2208.5,-68 2208.5,-68 2208.5,-74 2202.5,-80 2196.5,-80"/>
<text text-anchor="start" x="1946.5" y="-48.6" font-family="Helvetica,sans-Serif" font-weight="bold" font-size="18.00" fill="#1a1a1a">Graphviz Expert</text>
<text text-anchor="start" x="1879" y="-23.2" font-family="Helvetica,sans-Serif" font-size="16.00" fill="#1a1a1a">publication&#45;quality figure generation</text>
</g>
<!-- latex_specialist -->
<g id="node17" class="node">
<title>latex_specialist</title>
<path fill="#8fb8a8" stroke="black" d="M2491,-80C2491,-80 2257,-80 2257,-80 2251,-80 2245,-74 2245,-68 2245,-68 2245,-12 2245,-12 2245,-6 2251,0 2257,0 2257,0 2491,0 2491,0 2497,0 2503,-6 2503,-12 2503,-12 2503,-68 2503,-68 2503,-74 2497,-80 2491,-80"/>
<text text-anchor="start" x="2292.5" y="-48.6" font-family="Helvetica,sans-Serif" font-weight="bold" font-size="18.00" fill="#1a1a1a">LaTeX Specialist</text>
<text text-anchor="start" x="2278" y="-23.2" font-family="Helvetica,sans-Serif" font-size="16.00" fill="#1a1a1a">manuscript compilation</text>
</g>
<!-- bibliography_mgr -->
<g id="node18" class="node">
<title>bibliography_mgr</title>
<path fill="#c8a951" stroke="black" d="M2899,-80C2899,-80 2551,-80 2551,-80 2545,-80 2539,-74 2539,-68 2539,-68 2539,-12 2539,-12 2539,-6 2545,0 2551,0 2551,0 2899,0 2899,0 2905,0 2911,-6 2911,-12 2911,-12 2911,-68 2911,-68 2911,-74 2905,-80 2899,-80"/>
<text text-anchor="start" x="2613" y="-48.6" font-family="Helvetica,sans-Serif" font-weight="bold" font-size="18.00" fill="#1a1a1a">Bibliography&#45;Manager</text>
<text text-anchor="start" x="2572" y="-23.2" font-family="Helvetica,sans-Serif" font-size="16.00" fill="#1a1a1a">citation verification &amp; zero&#45;fabrication</text>
</g>
<!-- chapter_expert -->
<g id="node19" class="node">
<title>chapter_expert</title>
<path fill="#c8a951" stroke="black" d="M3273,-80C3273,-80 2959,-80 2959,-80 2953,-80 2947,-74 2947,-68 2947,-68 2947,-12 2947,-12 2947,-6 2953,0 2959,0 2959,0 3273,0 3273,0 3279,0 3285,-6 3285,-12 3285,-12 3285,-68 3285,-68 3285,-74 3279,-80 3273,-80"/>
<text text-anchor="start" x="3020.5" y="-48.6" font-family="Helvetica,sans-Serif" font-weight="bold" font-size="18.00" fill="#1a1a1a">Chapter&#45;NN&#45;Expert</text>
<text text-anchor="start" x="2980" y="-23.2" font-family="Helvetica,sans-Serif" font-size="16.00" fill="#1a1a1a">per&#45;chapter theoretical brief (x N)</text>
</g>
<!-- dom_bus&#45;&gt;book_content -->
<g id="edge11" class="edge">
<title>dom_bus&#45;&gt;book_content</title>
<path fill="none" stroke="#b08a20" stroke-width="1.4" stroke-dasharray="5,2" d="M1817.68,-149.3C1731.51,-147.71 622.24,-126.41 300,-80 296.68,-79.52 293.32,-79 289.95,-78.45"/>
<polygon fill="#b08a20" stroke="#b08a20" stroke-width="1.4" points="282.03,-77.1 290.52,-74.9 286.01,-77.58 289.95,-78.25 289.92,-78.45 289.88,-78.64 285.94,-77.97 289.31,-82 282.03,-77.1 282.03,-77.1"/>
</g>
<!-- dom_bus&#45;&gt;expert_critic -->
<g id="edge12" class="edge">
<title>dom_bus&#45;&gt;expert_critic</title>
<path fill="none" stroke="#b08a20" stroke-width="1.4" stroke-dasharray="5,2" d="M1817.57,-149.32C1755.69,-148.35 1177.24,-137.91 714,-80 710.78,-79.6 707.52,-79.17 704.25,-78.74"/>
<polygon fill="#b08a20" stroke="#b08a20" stroke-width="1.4" points="696.09,-77.61 704.51,-75.14 700.08,-77.96 704.04,-78.5 704.01,-78.7 703.99,-78.9 700.02,-78.35 703.52,-82.27 696.09,-77.61 696.09,-77.61"/>
</g>
<!-- dom_bus&#45;&gt;argument_weaver -->
<g id="edge13" class="edge">
<title>dom_bus&#45;&gt;argument_weaver</title>
<path fill="none" stroke="#b08a20" stroke-width="1.4" stroke-dasharray="5,2" d="M1817.5,-149.18C1766.66,-147.09 1373.41,-129.7 1059,-80 1055.86,-79.5 1052.69,-78.98 1049.5,-78.44"/>
<polygon fill="#b08a20" stroke="#b08a20" stroke-width="1.4" points="1041.52,-77.05 1050.02,-74.88 1045.5,-77.54 1049.44,-78.23 1049.4,-78.43 1049.37,-78.62 1045.43,-77.94 1048.79,-81.97 1041.52,-77.05 1041.52,-77.05"/>
</g>
<!-- dom_bus&#45;&gt;voice_style -->
<g id="edge14" class="edge">
<title>dom_bus&#45;&gt;voice_style</title>
<path fill="none" stroke="#b08a20" stroke-width="1.4" stroke-dasharray="5,2" d="M1817.64,-148.6C1782.1,-143.3 1576.89,-112.33 1411,-80 1407.81,-79.38 1404.59,-78.74 1401.34,-78.09"/>
<polygon fill="#b08a20" stroke="#b08a20" stroke-width="1.4" points="1393.23,-76.46 1401.78,-74.51 1397.19,-77.06 1401.11,-77.84 1401.07,-78.04 1401.03,-78.24 1397.11,-77.45 1400.36,-81.57 1393.23,-76.46 1393.23,-76.46"/>
</g>
<!-- dom_bus&#45;&gt;html_builder -->
<g id="edge15" class="edge">
<title>dom_bus&#45;&gt;html_builder</title>
<path fill="none" stroke="#b08a20" stroke-width="1.4" stroke-dasharray="5,2" d="M1818.36,-146.93C1802.36,-138.43 1747.92,-109.5 1699.96,-84.02"/>
<polygon fill="#b08a20" stroke="#b08a20" stroke-width="1.4" points="1692.63,-80.13 1701.39,-80.7 1696.26,-81.83 1699.79,-83.7 1699.7,-83.88 1699.6,-84.06 1696.07,-82.18 1698.01,-87.06 1692.63,-80.13 1692.63,-80.13"/>
</g>
<!-- dom_bus&#45;&gt;graphviz_expert -->
<g id="edge16" class="edge">
<title>dom_bus&#45;&gt;graphviz_expert</title>
<path fill="none" stroke="#b08a20" stroke-width="1.4" stroke-dasharray="5,2" d="M1825.16,-145.28C1838.05,-135.11 1886.76,-107.87 1933.25,-83.79"/>
<polygon fill="#b08a20" stroke="#b08a20" stroke-width="1.4" points="1940.38,-80.1 1934.93,-86.97 1936.92,-82.12 1933.37,-83.95 1933.27,-83.77 1933.18,-83.6 1936.74,-81.76 1931.62,-80.57 1940.38,-80.1 1940.38,-80.1"/>
</g>
<!-- dom_bus&#45;&gt;graphviz_expert -->
<!-- dom_bus&#45;&gt;latex_specialist -->
<g id="edge17" class="edge">
<title>dom_bus&#45;&gt;latex_specialist</title>
<path fill="none" stroke="#b08a20" stroke-width="1.4" stroke-dasharray="5,2" d="M1828.26,-148.67C1863.12,-143.81 2064.36,-115.15 2226,-80 2229.53,-79.23 2233.1,-78.44 2236.7,-77.62"/>
<polygon fill="#b08a20" stroke="#b08a20" stroke-width="1.4" points="2244.61,-75.79 2237.63,-81.1 2240.76,-76.89 2236.86,-77.79 2236.82,-77.59 2236.77,-77.4 2240.67,-76.5 2236.01,-74.08 2244.61,-75.79 2244.61,-75.79"/>
</g>
<!-- dom_bus&#45;&gt;bibliography_mgr -->
<g id="edge18" class="edge">
<title>dom_bus&#45;&gt;bibliography_mgr</title>
<path fill="none" stroke="#b08a20" stroke-width="1.4" stroke-dasharray="5,2" d="M1828.31,-149.06C1875.87,-145.93 2233.57,-121.68 2521,-80 2524.22,-79.53 2527.47,-79.05 2530.73,-78.55"/>
<polygon fill="#b08a20" stroke="#b08a20" stroke-width="1.4" points="2538.89,-77.29 2531.54,-82.07 2534.97,-78.1 2531.02,-78.71 2530.99,-78.52 2530.96,-78.32 2534.91,-77.71 2530.44,-74.96 2538.89,-77.29 2538.89,-77.29"/>
</g>
<!-- dom_bus&#45;&gt;chapter_expert -->
<g id="edge19" class="edge">
<title>dom_bus&#45;&gt;chapter_expert</title>
<path fill="none" stroke="#b08a20" stroke-width="1.4" stroke-dasharray="5,2" d="M1828.42,-149.36C1890.19,-148.83 2467.59,-142.27 2929,-80 2932.33,-79.55 2935.68,-79.08 2939.06,-78.58"/>
<polygon fill="#b08a20" stroke="#b08a20" stroke-width="1.4" points="2946.98,-77.38 2939.61,-82.14 2943.06,-78.18 2939.1,-78.78 2939.07,-78.58 2939.04,-78.38 2943,-77.78 2938.53,-75.02 2946.98,-77.38 2946.98,-77.38"/>
</g>
</g>
</svg>
