<svg xmlns="http://www.w3.org/2000/svg" viewBox="0 0 2408 518" width="2408" height="518" font-family="monospace">
  <title>Security &amp; reliability test architecture</title>
  <defs>
    <marker id="arrow" viewBox="0 0 10 10" refX="9" refY="5" markerWidth="7" markerHeight="7" orient="auto-start-reverse">
      <polygon points="0,0 10,5 0,10" fill="#8a8a8a"/>
    </marker>
  </defs>
  <path d="M616,31 C652,31 652,109 688,109" fill="none" stroke="#8a8a8a" stroke-width="1.5" marker-end="url(#arrow)"/>
  <path d="M616,31 C652,31 652,157 688,157 L728,157" fill="none" stroke="#8a8a8a" stroke-width="1.5" marker-end="url(#arrow)"/>
  <path d="M1276,231 L1280,231 C1316,231 1316,227 1352,227 L1400,227" fill="none" stroke="#8a8a8a" stroke-width="1.5" marker-end="url(#arrow)"/>
  <path d="M1276,231 L1280,231 C1316,231 1316,275 1352,275 L1376,275" fill="none" stroke="#8a8a8a" stroke-width="1.5" marker-end="url(#arrow)"/>
  <path d="M1276,231 L1280,231 C1316,231 1316,323 1352,323" fill="none" stroke="#8a8a8a" stroke-width="1.5" marker-end="url(#arrow)"/>
  <path d="M260,283 L280,283 C316,283 316,289 352,289 L616,289 C652,289 652,223 688,223 L976,223 C1012,223 1012,155 1048,155 L1076,155" fill="none" stroke="#8a8a8a" stroke-width="1.5" marker-end="url(#arrow)"/>
  <path d="M260,283 L280,283 C316,283 316,365 352,365 L616,365 C652,365 652,307 688,307 L976,307 C1012,307 1012,279 1048,279" fill="none" stroke="#8a8a8a" stroke-width="1.5" marker-end="url(#arrow)"/>
  <path d="M1576,83 L1584,83 C1620,83 1620,193 1656,193" fill="none" stroke="#8a8a8a" stroke-width="1.5" marker-end="url(#arrow)"/>
  <path d="M1252,155 L1280,155 C1316,155 1316,83 1352,83 L1360,83" fill="none" stroke="#8a8a8a" stroke-width="1.5" marker-end="url(#arrow)"/>
  <path d="M1252,155 L1280,155 C1316,155 1316,131 1352,131 L1388,131" fill="none" stroke="#8a8a8a" stroke-width="1.5" marker-end="url(#arrow)"/>
  <path d="M1252,155 L1280,155 C1316,155 1316,179 1352,179 L1400,179" fill="none" stroke="#8a8a8a" stroke-width="1.5" marker-end="url(#arrow)"/>
  <path d="M232,139 L280,139 C316,139 316,165 352,165 L616,165 C652,165 652,195 688,195 L976,195 C1012,195 1012,231 1048,231 L1052,231" fill="none" stroke="#8a8a8a" stroke-width="1.5" marker-end="url(#arrow)"/>
  <path d="M232,139 L280,139 C316,139 316,203 352,203 L392,203" fill="none" stroke="#8a8a8a" stroke-width="1.5" marker-end="url(#arrow)"/>
  <path d="M232,139 L280,139 C316,139 316,79 352,79 L424,79" fill="none" stroke="#8a8a8a" stroke-width="1.5" marker-end="url(#arrow)"/>
  <path d="M232,139 L280,139 C316,139 316,127 352,127 L408,127" fill="none" stroke="#8a8a8a" stroke-width="1.5" marker-end="url(#arrow)"/>
  <path d="M576,203 L616,203 C652,203 652,279 688,279 L976,279 C1012,279 1012,317 1048,317 L1280,317 C1316,317 1316,389 1352,389 L1584,389 C1620,389 1620,279 1656,279 L1872,279 C1908,279 1908,259 1944,259 L2120,259 L2192,259" fill="none" stroke="#8a8a8a" stroke-width="1.5" marker-end="url(#arrow)"/>
  <path d="M568,251 L616,251 L688,251 L976,251 C1012,251 1012,193 1048,193 L1280,193 C1316,193 1316,227 1352,227 L1400,227" fill="none" stroke="#8a8a8a" stroke-width="1.5" marker-end="url(#arrow)"/>
  <path d="M240,91 L280,91 C316,91 316,79 352,79 L424,79" fill="none" stroke="#8a8a8a" stroke-width="1.5" marker-end="url(#arrow)"/>
  <path d="M1536,227 L1584,227 C1620,227 1620,241 1656,241 L1660,241" fill="none" stroke="#8a8a8a" stroke-width="1.5" marker-end="url(#arrow)"/>
  <path d="M1560,275 L1584,275 C1620,275 1620,241 1656,241 L1660,241" fill="none" stroke="#8a8a8a" stroke-width="1.5" marker-end="url(#arrow)"/>
  <path d="M1584,323 C1620,323 1620,241 1656,241 L1660,241" fill="none" stroke="#8a8a8a" stroke-width="1.5" marker-end="url(#arrow)"/>
  <path d="M280,331 C316,331 316,327 352,327 L400,327" fill="none" stroke="#8a8a8a" stroke-width="1.5" marker-end="url(#arrow)"/>
  <path d="M544,79 L616,79 C652,79 652,157 688,157 L728,157" fill="none" stroke="#8a8a8a" stroke-width="1.5" marker-end="url(#arrow)"/>
  <path d="M560,127 L616,127 C652,127 652,157 688,157 L728,157" fill="none" stroke="#8a8a8a" stroke-width="1.5" marker-end="url(#arrow)"/>
  <path d="M1280,279 C1316,279 1316,417 1352,417 L1584,417 C1620,417 1620,307 1656,307 L1872,307 C1908,307 1908,287 1944,287 L2120,287 C2156,287 2156,259 2192,259" fill="none" stroke="#8a8a8a" stroke-width="1.5" marker-end="url(#arrow)"/>
  <path d="M236,187 L280,187 C316,187 316,31 352,31" fill="none" stroke="#8a8a8a" stroke-width="1.5" marker-end="url(#arrow)"/>
  <path d="M236,187 L280,187 C316,187 316,79 352,79 L424,79" fill="none" stroke="#8a8a8a" stroke-width="1.5" marker-end="url(#arrow)"/>
  <path d="M236,187 L280,187 C316,187 316,127 352,127 L408,127" fill="none" stroke="#8a8a8a" stroke-width="1.5" marker-end="url(#arrow)"/>
  <path d="M236,187 L280,187 C316,187 316,393 352,393 L616,393 C652,393 652,391 688,391 L976,391 C1012,391 1012,373 1048,373 L1280,373 C1316,373 1316,445 1352,445 L1584,445 C1620,445 1620,335 1656,335 L1872,335 C1908,335 1908,325 1944,325" fill="none" stroke="#8a8a8a" stroke-width="1.5" marker-end="url(#arrow)"/>
  <path d="M976,109 C1012,109 1012,155 1048,155 L1076,155" fill="none" stroke="#8a8a8a" stroke-width="1.5" marker-end="url(#arrow)"/>
  <path d="M224,427 L280,427 C316,427 316,469 352,469 L616,469 C652,469 652,363 688,363 L976,363 C1012,363 1012,231 1048,231 L1052,231" fill="none" stroke="#8a8a8a" stroke-width="1.5" marker-end="url(#arrow)"/>
  <path d="M224,427 L280,427 C316,427 316,497 352,497 L616,497 C652,497 652,419 688,419 L976,419 C1012,419 1012,345 1048,345 L1280,345 C1316,345 1316,361 1352,361 L1584,361 C1620,361 1620,193 1656,193" fill="none" stroke="#8a8a8a" stroke-width="1.5" marker-end="url(#arrow)"/>
  <path d="M1868,241 L1872,241 C1908,241 1908,325 1944,325" fill="none" stroke="#8a8a8a" stroke-width="1.5" marker-end="url(#arrow)"/>
  <path d="M1872,193 C1908,193 1908,231 1944,231 L2120,231 C2156,231 2156,259 2192,259" fill="none" stroke="#8a8a8a" stroke-width="1.5" marker-end="url(#arrow)"/>
  <path d="M1872,193 L1944,193 L1948,193" fill="none" stroke="#8a8a8a" stroke-width="1.5" marker-end="url(#arrow)"/>
  <path d="M1548,131 L1584,131 C1620,131 1620,193 1656,193" fill="none" stroke="#8a8a8a" stroke-width="1.5" marker-end="url(#arrow)"/>
  <path d="M604,431 L616,431 C652,431 652,335 688,335 L976,335 C1012,335 1012,231 1048,231 L1052,231" fill="none" stroke="#8a8a8a" stroke-width="1.5" marker-end="url(#arrow)"/>
  <path d="M936,157 L976,157 C1012,157 1012,231 1048,231 L1052,231" fill="none" stroke="#8a8a8a" stroke-width="1.5" marker-end="url(#arrow)"/>
  <path d="M936,157 L976,157 C1012,157 1012,155 1048,155 L1076,155" fill="none" stroke="#8a8a8a" stroke-width="1.5" marker-end="url(#arrow)"/>
  <path d="M936,157 L976,157 C1012,157 1012,279 1048,279" fill="none" stroke="#8a8a8a" stroke-width="1.5" marker-end="url(#arrow)"/>
  <path d="M248,379 L280,379 C316,379 316,431 352,431 L364,431" fill="none" stroke="#8a8a8a" stroke-width="1.5" marker-end="url(#arrow)"/>
  <path d="M1536,179 L1584,179 C1620,179 1620,193 1656,193" fill="none" stroke="#8a8a8a" stroke-width="1.5" marker-end="url(#arrow)"/>
  <path d="M228,235 L280,235 C316,235 316,251 352,251 L400,251" fill="none" stroke="#8a8a8a" stroke-width="1.5" marker-end="url(#arrow)"/>
  <path d="M2116,193 L2120,193 C2156,193 2156,259 2192,259" fill="none" stroke="#8a8a8a" stroke-width="1.5" marker-end="url(#arrow)"/>
  <rect x="352" y="16" width="264" height="30" rx="6" fill="#eef6ee" stroke="#3f8f4f" stroke-width="1.5"/>
  <text x="484" y="36" font-size="13" text-anchor="middle" fill="#000000">ablated arm (contract removed)</text>
  <rect x="1052" y="216" width="224" height="30" rx="6" fill="#f0e8ff" stroke="#8a5cc6" stroke-width="1.5"/>
  <text x="1164" y="236" font-size="13" text-anchor="middle" fill="#000000">attack_gen core (8 rails)</text>
  <rect x="36" y="268" width="224" height="30" rx="6" fill="#eef6ee" stroke="#3f8f4f" stroke-width="1.5"/>
  <text x="148" y="288" font-size="13" text-anchor="middle" fill="#000000">AUTH01 human-read verdict</text>
  <rect x="1360" y="68" width="216" height="30" rx="6" fill="#fff8e8" stroke="#ccaa44" stroke-width="1.5"/>
  <text x="1468" y="88" font-size="13" text-anchor="middle" fill="#000000">availability / runs (R1)</text>
  <rect x="1076" y="140" width="176" height="30" rx="6" fill="#fff8e8" stroke="#ccaa44" stroke-width="1.5"/>
  <text x="1164" y="160" font-size="13" text-anchor="middle" fill="#000000">collect() + score()</text>
  <rect x="64" y="124" width="168" height="30" rx="6" fill="#e8eefb" stroke="#1b3fa0" stroke-width="1.5"/>
  <text x="148" y="144" font-size="13" text-anchor="middle" fill="#000000">@security contract</text>
  <rect x="392" y="188" width="184" height="30" rx="6" fill="#fbe8f4" stroke="#b0559a" stroke-width="1.5"/>
  <text x="484" y="208" font-size="13" text-anchor="middle" fill="#000000">contract-sensitivity</text>
  <rect x="400" y="236" width="168" height="30" rx="6" fill="#f0e8ff" stroke="#8a5cc6" stroke-width="1.5"/>
  <text x="484" y="256" font-size="13" text-anchor="middle" fill="#000000">coverage + density</text>
  <rect x="56" y="76" width="184" height="30" rx="6" fill="#e8fbff" stroke="#3f8f9f" stroke-width="1.5"/>
  <text x="148" y="96" font-size="13" text-anchor="middle" fill="#000000">build-log drift gate</text>
  <rect x="1400" y="212" width="136" height="30" rx="6" fill="#f0e8ff" stroke="#8a5cc6" stroke-width="1.5"/>
  <text x="1468" y="232" font-size="13" text-anchor="middle" fill="#000000">H1 new-surface</text>
  <rect x="1376" y="260" width="184" height="30" rx="6" fill="#f0e8ff" stroke="#8a5cc6" stroke-width="1.5"/>
  <text x="1468" y="280" font-size="13" text-anchor="middle" fill="#000000">H2 adaptive attacker</text>
  <rect x="1352" y="308" width="232" height="30" rx="6" fill="#f0e8ff" stroke="#8a5cc6" stroke-width="1.5"/>
  <text x="1468" y="328" font-size="13" text-anchor="middle" fill="#000000">H3 auto-gen + review judge</text>
  <rect x="16" y="316" width="264" height="30" rx="6" fill="#e8fbff" stroke="#3f8f9f" stroke-width="1.5"/>
  <text x="148" y="336" font-size="13" text-anchor="middle" fill="#000000">enforcement integrity manifest</text>
  <rect x="424" y="64" width="120" height="30" rx="6" fill="#eef6ee" stroke="#3f8f4f" stroke-width="1.5"/>
  <text x="484" y="84" font-size="13" text-anchor="middle" fill="#000000">judgment run</text>
  <rect x="408" y="112" width="152" height="30" rx="6" fill="#eef6ee" stroke="#3f8f4f" stroke-width="1.5"/>
  <text x="484" y="132" font-size="13" text-anchor="middle" fill="#000000">model-matrix run</text>
  <rect x="2192" y="244" width="200" height="30" rx="6" fill="#ffe8e8" stroke="#cc6666" stroke-width="1.5"/>
  <text x="2292" y="264" font-size="13" text-anchor="middle" fill="#000000">scoring-methodology.md</text>
  <rect x="1048" y="264" width="232" height="30" rx="6" fill="#fbe8f4" stroke="#b0559a" stroke-width="1.5"/>
  <text x="1164" y="284" font-size="13" text-anchor="middle" fill="#000000">oracle inter-rater (kappa)</text>
  <rect x="60" y="172" width="176" height="30" rx="6" fill="#e8eefb" stroke="#1b3fa0" stroke-width="1.5"/>
  <text x="148" y="192" font-size="13" text-anchor="middle" fill="#000000">payload corpus (14)</text>
  <rect x="688" y="94" width="288" height="30" rx="6" fill="#e8fbff" stroke="#3f8f9f" stroke-width="1.5"/>
  <text x="832" y="114" font-size="13" text-anchor="middle" fill="#000000">positive control (ablated COMPLY)</text>
  <rect x="1944" y="310" width="176" height="30" rx="6" fill="#e8fbff" stroke="#3f8f9f" stroke-width="1.5"/>
  <text x="2032" y="330" font-size="13" text-anchor="middle" fill="#000000">promotion-gate (S2)</text>
  <rect x="72" y="412" width="152" height="30" rx="6" fill="#ffe8e8" stroke="#cc6666" stroke-width="1.5"/>
  <text x="148" y="432" font-size="13" text-anchor="middle" fill="#000000">provenance stamp</text>
  <rect x="1660" y="226" width="208" height="30" rx="6" fill="#f0e8ff" stroke="#8a5cc6" stroke-width="1.5"/>
  <text x="1764" y="246" font-size="13" text-anchor="middle" fill="#000000">quarantine (gitignored)</text>
  <rect x="1656" y="178" width="216" height="30" rx="6" fill="#ffe8e8" stroke="#cc6666" stroke-width="1.5"/>
  <text x="1764" y="198" font-size="13" text-anchor="middle" fill="#000000">ratings.csv + provenance</text>
  <rect x="1388" y="116" width="160" height="30" rx="6" fill="#fff8e8" stroke="#ccaa44" stroke-width="1.5"/>
  <text x="1468" y="136" font-size="13" text-anchor="middle" fill="#000000">reliability_score</text>
  <rect x="364" y="416" width="240" height="30" rx="6" fill="#e8fbff" stroke="#3f8f9f" stroke-width="1.5"/>
  <text x="484" y="436" font-size="13" text-anchor="middle" fill="#000000">S7 live-clearance interlock</text>
  <rect x="400" y="312" width="168" height="30" rx="6" fill="#e8fbff" stroke="#3f8f9f" stroke-width="1.5"/>
  <text x="484" y="332" font-size="13" text-anchor="middle" fill="#000000">secret/PII scanner</text>
  <rect x="728" y="142" width="208" height="30" rx="6" fill="#eef6ee" stroke="#3f8f4f" stroke-width="1.5"/>
  <text x="832" y="162" font-size="13" text-anchor="middle" fill="#000000">score_response (scorer)</text>
  <rect x="48" y="364" width="200" height="30" rx="6" fill="#e8fbff" stroke="#3f8f9f" stroke-width="1.5"/>
  <text x="148" y="384" font-size="13" text-anchor="middle" fill="#000000">security-decisions.log</text>
  <rect x="1400" y="164" width="136" height="30" rx="6" fill="#fff8e8" stroke="#ccaa44" stroke-width="1.5"/>
  <text x="1468" y="184" font-size="13" text-anchor="middle" fill="#000000">security_score</text>
  <rect x="68" y="220" width="160" height="30" rx="6" fill="#e8eefb" stroke="#1b3fa0" stroke-width="1.5"/>
  <text x="148" y="240" font-size="13" text-anchor="middle" fill="#000000">external taxonomy</text>
  <rect x="1948" y="178" width="168" height="30" rx="6" fill="#fbe8f4" stroke="#b0559a" stroke-width="1.5"/>
  <text x="2032" y="198" font-size="13" text-anchor="middle" fill="#000000">weight-sensitivity</text>
</svg>
