<?xml version="1.0" encoding="UTF-8" standalone="no"?>
<!DOCTYPE svg PUBLIC "-//W3C//DTD SVG 1.1//EN"
 "http://www.w3.org/Graphics/SVG/1.1/DTD/svg11.dtd">
<!-- Generated by graphviz version 14.0.5 (20251129.0259)
 -->
<!-- Title: wf04 Pages: 1 -->
<svg width="314pt" height="1011pt"
 viewBox="0.00 0.00 314.00 1011.00" xmlns="http://www.w3.org/2000/svg" xmlns:xlink="http://www.w3.org/1999/xlink">
<g id="graph0" class="graph" transform="scale(1 1) rotate(0) translate(21.6 989.9)">
<title>wf04</title>
<polygon fill="#fafafa" stroke="none" points="-21.6,21.6 -21.6,-989.9 292.08,-989.9 292.08,21.6 -21.6,21.6"/>
<text xml:space="preserve" text-anchor="start" x="21.99" y="-950.1" font-family="Helvetica,sans-Serif" font-weight="bold" font-size="16.00">Workflow 4: Chapter Revision</text>
<!-- orch -->
<g id="node1" class="node">
<title>orch</title>
<path fill="#1b2a4a" stroke="black" stroke-width="1.2" d="M141.82,-943.8C141.82,-943.8 46.87,-943.8 46.87,-943.8 40.88,-943.8 34.88,-937.8 34.88,-931.8 34.88,-931.8 34.88,-919.2 34.88,-919.2 34.88,-913.2 40.88,-907.2 46.88,-907.2 46.88,-907.2 141.82,-907.2 141.82,-907.2 147.82,-907.2 153.82,-913.2 153.82,-919.2 153.82,-919.2 153.82,-931.8 153.82,-931.8 153.82,-937.8 147.82,-943.8 141.82,-943.8"/>
<text xml:space="preserve" text-anchor="middle" x="94.35" y="-919.7" font-family="Helvetica,sans-Serif" font-size="14.00" fill="white">Orchestrator</text>
</g>
<!-- bce -->
<g id="node2" class="node">
<title>bce</title>
<path fill="#b8860b" stroke="black" stroke-width="1.2" d="M171.07,-829.2C171.07,-829.2 17.62,-829.2 17.62,-829.2 11.62,-829.2 5.62,-823.2 5.62,-817.2 5.62,-817.2 5.62,-789.6 5.62,-789.6 5.62,-783.6 11.62,-777.6 17.62,-777.6 17.62,-777.6 171.07,-777.6 171.07,-777.6 177.07,-777.6 183.07,-783.6 183.07,-789.6 183.07,-789.6 183.07,-817.2 183.07,-817.2 183.07,-823.2 177.07,-829.2 171.07,-829.2"/>
<text xml:space="preserve" text-anchor="middle" x="94.35" y="-805.1" font-family="Helvetica,sans-Serif" font-size="14.00" fill="white">@book&#45;content&#45;expert</text>
<text xml:space="preserve" text-anchor="middle" x="94.35" y="-790.1" font-family="Helvetica,sans-Serif" font-size="14.00" fill="white">Revise chapter</text>
</g>
<!-- orch&#45;&gt;bce -->
<g id="edge1" class="edge">
<title>orch&#45;&gt;bce</title>
<path fill="none" stroke="#333333" d="M94.35,-906.78C94.35,-889.05 94.35,-861.29 94.35,-839.15"/>
<polygon fill="#333333" stroke="#333333" points="97.15,-839.26 94.35,-831.26 91.55,-839.26 97.15,-839.26"/>
<text xml:space="preserve" text-anchor="middle" x="103.35" y="-863.75" font-family="Helvetica,sans-Serif" font-size="11.00"> &#160;1 &#160;</text>
</g>
<!-- adv -->
<g id="node3" class="node">
<title>adv</title>
<path fill="#4682b4" stroke="black" stroke-width="1.2" d="M165.82,-699.6C165.82,-699.6 22.88,-699.6 22.88,-699.6 16.87,-699.6 10.88,-693.6 10.88,-687.6 10.88,-687.6 10.88,-660 10.88,-660 10.88,-654 16.88,-648 22.88,-648 22.88,-648 165.82,-648 165.82,-648 171.82,-648 177.82,-654 177.82,-660 177.82,-660 177.82,-687.6 177.82,-687.6 177.82,-693.6 171.82,-699.6 165.82,-699.6"/>
<text xml:space="preserve" text-anchor="middle" x="94.35" y="-675.5" font-family="Helvetica,sans-Serif" font-size="14.00" fill="white">@adversarial</text>
<text xml:space="preserve" text-anchor="middle" x="94.35" y="-660.5" font-family="Helvetica,sans-Serif" font-size="14.00" fill="white">Review revision plan</text>
</g>
<!-- bce&#45;&gt;adv -->
<g id="edge2" class="edge">
<title>bce&#45;&gt;adv</title>
<path fill="none" stroke="#333333" d="M94.35,-777.19C94.35,-757.79 94.35,-730.77 94.35,-709.35"/>
<polygon fill="#333333" stroke="#333333" points="97.15,-709.47 94.35,-701.47 91.55,-709.47 97.15,-709.47"/>
<text xml:space="preserve" text-anchor="middle" x="103.35" y="-734.15" font-family="Helvetica,sans-Serif" font-size="11.00"> &#160;2 &#160;</text>
</g>
<!-- adv&#45;&gt;bce -->
<g id="edge3" class="edge">
<title>adv&#45;&gt;bce</title>
<path fill="none" stroke="#b22222" stroke-dasharray="5,2" d="M115.44,-700.18C123.68,-713.08 130.32,-729.24 126.35,-744.6 124.2,-752.92 120.57,-761.32 116.51,-769.04"/>
<polygon fill="#b22222" stroke="#b22222" points="114.19,-767.45 112.72,-775.79 119.08,-770.18 114.19,-767.45"/>
<text xml:space="preserve" text-anchor="middle" x="154.15" y="-734.15" font-family="Helvetica,sans-Serif" font-size="11.00"> &#160;REVISE &#160;</text>
</g>
<!-- ec -->
<g id="node4" class="node">
<title>ec</title>
<path fill="#4682b4" stroke="black" stroke-width="1.2" d="M159.45,-570C159.45,-570 29.25,-570 29.25,-570 23.25,-570 17.25,-564 17.25,-558 17.25,-558 17.25,-530.4 17.25,-530.4 17.25,-524.4 23.25,-518.4 29.25,-518.4 29.25,-518.4 159.45,-518.4 159.45,-518.4 165.45,-518.4 171.45,-524.4 171.45,-530.4 171.45,-530.4 171.45,-558 171.45,-558 171.45,-564 165.45,-570 159.45,-570"/>
<text xml:space="preserve" text-anchor="middle" x="94.35" y="-545.9" font-family="Helvetica,sans-Serif" font-size="14.00" fill="white">@expert&#45;critic</text>
<text xml:space="preserve" text-anchor="middle" x="94.35" y="-530.9" font-family="Helvetica,sans-Serif" font-size="14.00" fill="white">Audit prose quality</text>
</g>
<!-- adv&#45;&gt;ec -->
<g id="edge4" class="edge">
<title>adv&#45;&gt;ec</title>
<path fill="none" stroke="#333333" d="M94.35,-647.59C94.35,-628.19 94.35,-601.17 94.35,-579.75"/>
<polygon fill="#333333" stroke="#333333" points="97.15,-579.87 94.35,-571.87 91.55,-579.87 97.15,-579.87"/>
<text xml:space="preserve" text-anchor="middle" x="103.35" y="-604.55" font-family="Helvetica,sans-Serif" font-size="11.00"> &#160;3 &#160;</text>
</g>
<!-- ec&#45;&gt;bce -->
<g id="edge5" class="edge">
<title>ec&#45;&gt;bce</title>
<path fill="none" stroke="#b22222" stroke-dasharray="5,2" d="M136.15,-570.53C161.65,-588.58 192.01,-615.38 206.35,-648 223.76,-687.61 220.66,-710.25 194.35,-744.6 186,-755.5 174.96,-764.71 163.26,-772.35"/>
<polygon fill="#b22222" stroke="#b22222" points="162.13,-769.76 156.79,-776.35 165.07,-774.52 162.13,-769.76"/>
<text xml:space="preserve" text-anchor="middle" x="243.86" y="-669.35" font-family="Helvetica,sans-Serif" font-size="11.00"> &#160;REVISE &#160;</text>
</g>
<!-- aw -->
<g id="node5" class="node">
<title>aw</title>
<path fill="#4682b4" stroke="black" stroke-width="1.2" d="M163.95,-440.4C163.95,-440.4 24.75,-440.4 24.75,-440.4 18.75,-440.4 12.75,-434.4 12.75,-428.4 12.75,-428.4 12.75,-400.8 12.75,-400.8 12.75,-394.8 18.75,-388.8 24.75,-388.8 24.75,-388.8 163.95,-388.8 163.95,-388.8 169.95,-388.8 175.95,-394.8 175.95,-400.8 175.95,-400.8 175.95,-428.4 175.95,-428.4 175.95,-434.4 169.95,-440.4 163.95,-440.4"/>
<text xml:space="preserve" text-anchor="middle" x="94.35" y="-416.3" font-family="Helvetica,sans-Serif" font-size="14.00" fill="white">@argument&#45;weaver</text>
<text xml:space="preserve" text-anchor="middle" x="94.35" y="-401.3" font-family="Helvetica,sans-Serif" font-size="14.00" fill="white">Repair cohesion</text>
</g>
<!-- ec&#45;&gt;aw -->
<g id="edge6" class="edge">
<title>ec&#45;&gt;aw</title>
<path fill="none" stroke="#333333" d="M94.35,-517.99C94.35,-498.59 94.35,-471.57 94.35,-450.15"/>
<polygon fill="#333333" stroke="#333333" points="97.15,-450.27 94.35,-442.27 91.55,-450.27 97.15,-450.27"/>
<text xml:space="preserve" text-anchor="middle" x="103.35" y="-474.95" font-family="Helvetica,sans-Serif" font-size="11.00"> &#160;4 &#160;</text>
</g>
<!-- vs -->
<g id="node6" class="node">
<title>vs</title>
<path fill="#b8860b" stroke="black" stroke-width="1.2" d="M160.57,-310.8C160.57,-310.8 28.13,-310.8 28.13,-310.8 22.13,-310.8 16.12,-304.8 16.12,-298.8 16.12,-298.8 16.12,-271.2 16.12,-271.2 16.12,-265.2 22.12,-259.2 28.12,-259.2 28.12,-259.2 160.57,-259.2 160.57,-259.2 166.57,-259.2 172.57,-265.2 172.57,-271.2 172.57,-271.2 172.57,-298.8 172.57,-298.8 172.57,-304.8 166.57,-310.8 160.57,-310.8"/>
<text xml:space="preserve" text-anchor="middle" x="94.35" y="-286.7" font-family="Helvetica,sans-Serif" font-size="14.00" fill="white">@voice&#45;style</text>
<text xml:space="preserve" text-anchor="middle" x="94.35" y="-271.7" font-family="Helvetica,sans-Serif" font-size="14.00" fill="white">Three&#45;priority audit</text>
</g>
<!-- aw&#45;&gt;vs -->
<g id="edge7" class="edge">
<title>aw&#45;&gt;vs</title>
<path fill="none" stroke="#333333" d="M94.35,-388.39C94.35,-368.99 94.35,-341.97 94.35,-320.55"/>
<polygon fill="#333333" stroke="#333333" points="97.15,-320.67 94.35,-312.67 91.55,-320.67 97.15,-320.67"/>
<text xml:space="preserve" text-anchor="middle" x="103.35" y="-345.35" font-family="Helvetica,sans-Serif" font-size="11.00"> &#160;5 &#160;</text>
</g>
<!-- ca -->
<g id="node7" class="node">
<title>ca</title>
<path fill="#4682b4" stroke="black" stroke-width="1.2" d="M174.07,-181.2C174.07,-181.2 14.63,-181.2 14.63,-181.2 8.63,-181.2 2.62,-175.2 2.62,-169.2 2.62,-169.2 2.62,-141.6 2.62,-141.6 2.62,-135.6 8.62,-129.6 14.63,-129.6 14.63,-129.6 174.07,-129.6 174.07,-129.6 180.07,-129.6 186.07,-135.6 186.07,-141.6 186.07,-141.6 186.07,-169.2 186.07,-169.2 186.07,-175.2 180.07,-181.2 174.07,-181.2"/>
<text xml:space="preserve" text-anchor="middle" x="94.35" y="-157.1" font-family="Helvetica,sans-Serif" font-size="14.00" fill="white">@conflict&#45;auditor</text>
<text xml:space="preserve" text-anchor="middle" x="94.35" y="-142.1" font-family="Helvetica,sans-Serif" font-size="14.00" fill="white">Verify no contradictions</text>
</g>
<!-- vs&#45;&gt;ca -->
<g id="edge8" class="edge">
<title>vs&#45;&gt;ca</title>
<path fill="none" stroke="#333333" d="M94.35,-258.79C94.35,-239.39 94.35,-212.37 94.35,-190.95"/>
<polygon fill="#333333" stroke="#333333" points="97.15,-191.07 94.35,-183.07 91.55,-191.07 97.15,-191.07"/>
<text xml:space="preserve" text-anchor="middle" x="103.35" y="-215.75" font-family="Helvetica,sans-Serif" font-size="11.00"> &#160;6 &#160;</text>
</g>
<!-- bib -->
<g id="node8" class="node">
<title>bib</title>
<path fill="#b8860b" stroke="black" stroke-width="1.2" d="M176.7,-51.6C176.7,-51.6 12,-51.6 12,-51.6 6,-51.6 0,-45.6 0,-39.6 0,-39.6 0,-12 0,-12 0,-6 6,0 12,0 12,0 176.7,0 176.7,0 182.7,0 188.7,-6 188.7,-12 188.7,-12 188.7,-39.6 188.7,-39.6 188.7,-45.6 182.7,-51.6 176.7,-51.6"/>
<text xml:space="preserve" text-anchor="middle" x="94.35" y="-27.5" font-family="Helvetica,sans-Serif" font-size="14.00" fill="white">@bibliography&#45;manager</text>
<text xml:space="preserve" text-anchor="middle" x="94.35" y="-12.5" font-family="Helvetica,sans-Serif" font-size="14.00" fill="white">Verify citations</text>
</g>
<!-- ca&#45;&gt;bib -->
<g id="edge9" class="edge">
<title>ca&#45;&gt;bib</title>
<path fill="none" stroke="#333333" d="M94.35,-129.19C94.35,-109.79 94.35,-82.77 94.35,-61.35"/>
<polygon fill="#333333" stroke="#333333" points="97.15,-61.47 94.35,-53.47 91.55,-61.47 97.15,-61.47"/>
<text xml:space="preserve" text-anchor="middle" x="103.35" y="-86.15" font-family="Helvetica,sans-Serif" font-size="11.00"> &#160;7 &#160;</text>
</g>
</g>
</svg>
