<?xml version="1.0" encoding="UTF-8" standalone="no"?>
<!DOCTYPE svg PUBLIC "-//W3C//DTD SVG 1.1//EN"
 "http://www.w3.org/Graphics/SVG/1.1/DTD/svg11.dtd">
<!-- Generated by graphviz version 14.0.5 (20251129.0259)
 -->
<!-- Title: wf05 Pages: 1 -->
<svg width="353pt" height="1311pt"
 viewBox="0.00 0.00 353.00 1311.00" xmlns="http://www.w3.org/2000/svg" xmlns:xlink="http://www.w3.org/1999/xlink">
<g id="graph0" class="graph" transform="scale(1 1) rotate(0) translate(21.6 1289.1)">
<title>wf05</title>
<polygon fill="#fafafa" stroke="none" points="-21.6,21.6 -21.6,-1289.1 331.58,-1289.1 331.58,21.6 -21.6,21.6"/>
<text xml:space="preserve" text-anchor="start" x="31.61" y="-1249.3" font-family="Helvetica,sans-Serif" font-weight="bold" font-size="16.00">Workflow 5: Code Hygiene Audit</text>
<!-- orch -->
<g id="node1" class="node">
<title>orch</title>
<path fill="#1b2a4a" stroke="black" stroke-width="1.2" d="M243.2,-1243C243.2,-1243 148.25,-1243 148.25,-1243 142.25,-1243 136.25,-1237 136.25,-1231 136.25,-1231 136.25,-1218.4 136.25,-1218.4 136.25,-1212.4 142.25,-1206.4 148.25,-1206.4 148.25,-1206.4 243.2,-1206.4 243.2,-1206.4 249.2,-1206.4 255.2,-1212.4 255.2,-1218.4 255.2,-1218.4 255.2,-1231 255.2,-1231 255.2,-1237 249.2,-1243 243.2,-1243"/>
<text xml:space="preserve" text-anchor="middle" x="195.72" y="-1218.9" font-family="Helvetica,sans-Serif" font-size="14.00" fill="white">Orchestrator</text>
</g>
<!-- ch -->
<g id="node2" class="node">
<title>ch</title>
<path fill="#4682b4" stroke="black" stroke-width="1.2" d="M252.95,-1128.4C252.95,-1128.4 138.5,-1128.4 138.5,-1128.4 132.5,-1128.4 126.5,-1122.4 126.5,-1116.4 126.5,-1116.4 126.5,-1088.8 126.5,-1088.8 126.5,-1082.8 132.5,-1076.8 138.5,-1076.8 138.5,-1076.8 252.95,-1076.8 252.95,-1076.8 258.95,-1076.8 264.95,-1082.8 264.95,-1088.8 264.95,-1088.8 264.95,-1116.4 264.95,-1116.4 264.95,-1122.4 258.95,-1128.4 252.95,-1128.4"/>
<text xml:space="preserve" text-anchor="middle" x="195.72" y="-1104.3" font-family="Helvetica,sans-Serif" font-size="14.00" fill="white">@code&#45;hygiene</text>
<text xml:space="preserve" text-anchor="middle" x="195.72" y="-1089.3" font-family="Helvetica,sans-Serif" font-size="14.00" fill="white">Full audit</text>
</g>
<!-- orch&#45;&gt;ch -->
<g id="edge1" class="edge">
<title>orch&#45;&gt;ch</title>
<path fill="none" stroke="#333333" d="M195.72,-1205.98C195.72,-1188.25 195.72,-1160.49 195.72,-1138.35"/>
<polygon fill="#333333" stroke="#333333" points="198.53,-1138.46 195.73,-1130.46 192.93,-1138.46 198.53,-1138.46"/>
<text xml:space="preserve" text-anchor="middle" x="204.72" y="-1162.95" font-family="Helvetica,sans-Serif" font-size="11.00"> &#160;1 &#160;</text>
</g>
<!-- rev -->
<g id="node3" class="node">
<title>rev</title>
<path fill="#e8edf2" stroke="black" stroke-width="1.2" stroke-dasharray="5,2" d="M252.57,-998.8C252.57,-998.8 138.88,-998.8 138.88,-998.8 132.88,-998.8 126.88,-992.8 126.88,-986.8 126.88,-986.8 126.88,-974.2 126.88,-974.2 126.88,-968.2 132.88,-962.2 138.88,-962.2 138.88,-962.2 252.57,-962.2 252.57,-962.2 258.57,-962.2 264.57,-968.2 264.57,-974.2 264.57,-974.2 264.57,-986.8 264.57,-986.8 264.57,-992.8 258.57,-998.8 252.57,-998.8"/>
<text xml:space="preserve" text-anchor="middle" x="195.72" y="-974.7" font-family="Helvetica,sans-Serif" font-size="14.00" fill="#333333">Review findings</text>
</g>
<!-- ch&#45;&gt;rev -->
<g id="edge2" class="edge">
<title>ch&#45;&gt;rev</title>
<path fill="none" stroke="#333333" d="M195.72,-1076.42C195.72,-1056.56 195.72,-1028.91 195.72,-1008.58"/>
<polygon fill="#333333" stroke="#333333" points="198.53,-1008.76 195.73,-1000.76 192.93,-1008.76 198.53,-1008.76"/>
<text xml:space="preserve" text-anchor="middle" x="204.72" y="-1033.35" font-family="Helvetica,sans-Serif" font-size="11.00"> &#160;2 &#160;</text>
</g>
<!-- dec -->
<g id="node4" class="node">
<title>dec</title>
<polygon fill="#708090" stroke="black" stroke-width="1.2" points="195.72,-895.2 83.53,-836.4 195.72,-777.6 307.92,-836.4 195.72,-895.2"/>
<text xml:space="preserve" text-anchor="middle" x="195.72" y="-838.1" font-family="Helvetica,sans-Serif" font-size="14.00" fill="white">Corrections</text>
<text xml:space="preserve" text-anchor="middle" x="195.72" y="-823.1" font-family="Helvetica,sans-Serif" font-size="14.00" fill="white">needed?</text>
</g>
<!-- rev&#45;&gt;dec -->
<g id="edge3" class="edge">
<title>rev&#45;&gt;dec</title>
<path fill="none" stroke="#333333" d="M195.72,-961.79C195.72,-947.34 195.72,-925.95 195.72,-904.96"/>
<polygon fill="#333333" stroke="#333333" points="198.53,-905.21 195.73,-897.21 192.93,-905.21 198.53,-905.21"/>
</g>
<!-- bce -->
<g id="node5" class="node">
<title>bce</title>
<path fill="#b8860b" stroke="black" stroke-width="1.2" d="M181.45,-699.6C181.45,-699.6 28,-699.6 28,-699.6 22,-699.6 16,-693.6 16,-687.6 16,-687.6 16,-660 16,-660 16,-654 22,-648 28,-648 28,-648 181.45,-648 181.45,-648 187.45,-648 193.45,-654 193.45,-660 193.45,-660 193.45,-687.6 193.45,-687.6 193.45,-693.6 187.45,-699.6 181.45,-699.6"/>
<text xml:space="preserve" text-anchor="middle" x="104.72" y="-675.5" font-family="Helvetica,sans-Serif" font-size="14.00" fill="white">@book&#45;content&#45;expert</text>
<text xml:space="preserve" text-anchor="middle" x="104.72" y="-660.5" font-family="Helvetica,sans-Serif" font-size="14.00" fill="white">Update chapter drafts</text>
</g>
<!-- dec&#45;&gt;bce -->
<g id="edge4" class="edge">
<title>dec&#45;&gt;bce</title>
<path fill="none" stroke="#333333" d="M170.38,-790.66C155.51,-764.43 137.05,-731.85 123.49,-707.92"/>
<polygon fill="#333333" stroke="#333333" points="126.04,-706.74 119.66,-701.16 121.17,-709.5 126.04,-706.74"/>
<text xml:space="preserve" text-anchor="middle" x="156.7" y="-734.15" font-family="Helvetica,sans-Serif" font-size="11.00"> &#160;Yes &#160;</text>
</g>
<!-- au -->
<g id="node9" class="node">
<title>au</title>
<path fill="#4682b4" stroke="black" stroke-width="1.2" d="M264.45,-181.2C264.45,-181.2 147,-181.2 147,-181.2 141,-181.2 135,-175.2 135,-169.2 135,-169.2 135,-141.6 135,-141.6 135,-135.6 141,-129.6 147,-129.6 147,-129.6 264.45,-129.6 264.45,-129.6 270.45,-129.6 276.45,-135.6 276.45,-141.6 276.45,-141.6 276.45,-169.2 276.45,-169.2 276.45,-175.2 270.45,-181.2 264.45,-181.2"/>
<text xml:space="preserve" text-anchor="middle" x="205.72" y="-157.1" font-family="Helvetica,sans-Serif" font-size="14.00" fill="white">@agent&#45;updater</text>
<text xml:space="preserve" text-anchor="middle" x="205.72" y="-142.1" font-family="Helvetica,sans-Serif" font-size="14.00" fill="white">Update docs</text>
</g>
<!-- dec&#45;&gt;au -->
<g id="edge5" class="edge">
<title>dec&#45;&gt;au</title>
<path fill="none" stroke="#333333" stroke-dasharray="5,2" d="M231.77,-796.05C256.07,-765.36 283.73,-720.42 283.73,-674.8 283.73,-674.8 283.73,-674.8 283.73,-284 283.73,-247.37 260.04,-212.36 238.77,-188.31"/>
<polygon fill="#333333" stroke="#333333" points="241.05,-186.66 233.59,-182.64 236.92,-190.43 241.05,-186.66"/>
<text xml:space="preserve" text-anchor="middle" x="296.85" y="-474.95" font-family="Helvetica,sans-Serif" font-size="11.00"> &#160;No &#160;</text>
</g>
<!-- ec -->
<g id="node6" class="node">
<title>ec</title>
<path fill="#4682b4" stroke="black" stroke-width="1.2" d="M183.45,-570C183.45,-570 12,-570 12,-570 6,-570 0,-564 0,-558 0,-558 0,-530.4 0,-530.4 0,-524.4 6,-518.4 12,-518.4 12,-518.4 183.45,-518.4 183.45,-518.4 189.45,-518.4 195.45,-524.4 195.45,-530.4 195.45,-530.4 195.45,-558 195.45,-558 195.45,-564 189.45,-570 183.45,-570"/>
<text xml:space="preserve" text-anchor="middle" x="97.72" y="-545.9" font-family="Helvetica,sans-Serif" font-size="14.00" fill="white">@expert&#45;critic</text>
<text xml:space="preserve" text-anchor="middle" x="97.72" y="-530.9" font-family="Helvetica,sans-Serif" font-size="14.00" fill="white">Audit corrected passages</text>
</g>
<!-- bce&#45;&gt;ec -->
<g id="edge6" class="edge">
<title>bce&#45;&gt;ec</title>
<path fill="none" stroke="#333333" d="M101.61,-647.52C100.49,-637.42 99.35,-625.68 98.72,-615 98.05,-603.58 97.74,-591.1 97.61,-579.89"/>
<polygon fill="#333333" stroke="#333333" points="100.41,-579.91 97.56,-571.93 94.81,-579.95 100.41,-579.91"/>
<text xml:space="preserve" text-anchor="middle" x="107.72" y="-604.55" font-family="Helvetica,sans-Serif" font-size="11.00"> &#160;4 &#160;</text>
</g>
<!-- ec&#45;&gt;bce -->
<g id="edge7" class="edge">
<title>ec&#45;&gt;bce</title>
<path fill="none" stroke="#b22222" stroke-dasharray="5,2" d="M113.56,-570.4C118.85,-580.19 124.06,-591.75 126.72,-603 129.52,-614.8 127.17,-627.51 123.12,-638.81"/>
<polygon fill="#b22222" stroke="#b22222" points="120.57,-637.65 120.15,-646.12 125.76,-639.76 120.57,-637.65"/>
<text xml:space="preserve" text-anchor="middle" x="154.57" y="-604.55" font-family="Helvetica,sans-Serif" font-size="11.00"> &#160;REVISE &#160;</text>
</g>
<!-- aw -->
<g id="node7" class="node">
<title>aw</title>
<path fill="#4682b4" stroke="black" stroke-width="1.2" d="M179.32,-440.4C179.32,-440.4 40.12,-440.4 40.12,-440.4 34.12,-440.4 28.12,-434.4 28.12,-428.4 28.12,-428.4 28.12,-400.8 28.12,-400.8 28.12,-394.8 34.12,-388.8 40.12,-388.8 40.12,-388.8 179.32,-388.8 179.32,-388.8 185.32,-388.8 191.32,-394.8 191.32,-400.8 191.32,-400.8 191.32,-428.4 191.32,-428.4 191.32,-434.4 185.32,-440.4 179.32,-440.4"/>
<text xml:space="preserve" text-anchor="middle" x="109.72" y="-416.3" font-family="Helvetica,sans-Serif" font-size="14.00" fill="white">@argument&#45;weaver</text>
<text xml:space="preserve" text-anchor="middle" x="109.72" y="-401.3" font-family="Helvetica,sans-Serif" font-size="14.00" fill="white">Repair cohesion</text>
</g>
<!-- ec&#45;&gt;aw -->
<g id="edge8" class="edge">
<title>ec&#45;&gt;aw</title>
<path fill="none" stroke="#333333" d="M100.1,-517.99C101.92,-498.59 104.46,-471.57 106.48,-450.15"/>
<polygon fill="#333333" stroke="#333333" points="109.26,-450.49 107.22,-442.26 103.68,-449.97 109.26,-450.49"/>
<text xml:space="preserve" text-anchor="middle" x="113.08" y="-474.95" font-family="Helvetica,sans-Serif" font-size="11.00"> &#160;5 &#160;</text>
</g>
<!-- vs -->
<g id="node8" class="node">
<title>vs</title>
<path fill="#b8860b" stroke="black" stroke-width="1.2" d="M180.07,-310.8C180.07,-310.8 69.38,-310.8 69.38,-310.8 63.38,-310.8 57.38,-304.8 57.38,-298.8 57.38,-298.8 57.38,-271.2 57.38,-271.2 57.38,-265.2 63.38,-259.2 69.38,-259.2 69.38,-259.2 180.07,-259.2 180.07,-259.2 186.07,-259.2 192.07,-265.2 192.07,-271.2 192.07,-271.2 192.07,-298.8 192.07,-298.8 192.07,-304.8 186.07,-310.8 180.07,-310.8"/>
<text xml:space="preserve" text-anchor="middle" x="124.72" y="-286.7" font-family="Helvetica,sans-Serif" font-size="14.00" fill="white">@voice&#45;style</text>
<text xml:space="preserve" text-anchor="middle" x="124.72" y="-271.7" font-family="Helvetica,sans-Serif" font-size="14.00" fill="white">Two&#45;pass audit</text>
</g>
<!-- aw&#45;&gt;vs -->
<g id="edge9" class="edge">
<title>aw&#45;&gt;vs</title>
<path fill="none" stroke="#333333" d="M112.69,-388.39C114.97,-368.99 118.15,-341.97 120.66,-320.55"/>
<polygon fill="#333333" stroke="#333333" points="123.44,-320.93 121.59,-312.66 117.88,-320.28 123.44,-320.93"/>
<text xml:space="preserve" text-anchor="middle" x="126.67" y="-345.35" font-family="Helvetica,sans-Serif" font-size="11.00"> &#160;6 &#160;</text>
</g>
<!-- vs&#45;&gt;au -->
<g id="edge10" class="edge">
<title>vs&#45;&gt;au</title>
<path fill="none" stroke="#333333" d="M140.73,-258.79C153.32,-238.95 170.97,-211.15 184.7,-189.52"/>
<polygon fill="#333333" stroke="#333333" points="187.02,-191.09 188.94,-182.84 182.29,-188.09 187.02,-191.09"/>
<text xml:space="preserve" text-anchor="middle" x="176.65" y="-215.75" font-family="Helvetica,sans-Serif" font-size="11.00"> &#160;7 &#160;</text>
</g>
<!-- ca -->
<g id="node10" class="node">
<title>ca</title>
<path fill="#4682b4" stroke="black" stroke-width="1.2" d="M269.7,-51.6C269.7,-51.6 141.75,-51.6 141.75,-51.6 135.75,-51.6 129.75,-45.6 129.75,-39.6 129.75,-39.6 129.75,-12 129.75,-12 129.75,-6 135.75,0 141.75,0 141.75,0 269.7,0 269.7,0 275.7,0 281.7,-6 281.7,-12 281.7,-12 281.7,-39.6 281.7,-39.6 281.7,-45.6 275.7,-51.6 269.7,-51.6"/>
<text xml:space="preserve" text-anchor="middle" x="205.72" y="-27.5" font-family="Helvetica,sans-Serif" font-size="14.00" fill="white">@conflict&#45;auditor</text>
<text xml:space="preserve" text-anchor="middle" x="205.72" y="-12.5" font-family="Helvetica,sans-Serif" font-size="14.00" fill="white">Verify consistency</text>
</g>
<!-- au&#45;&gt;ca -->
<g id="edge11" class="edge">
<title>au&#45;&gt;ca</title>
<path fill="none" stroke="#333333" d="M205.72,-129.19C205.72,-109.79 205.72,-82.77 205.72,-61.35"/>
<polygon fill="#333333" stroke="#333333" points="208.53,-61.47 205.73,-53.47 202.93,-61.47 208.53,-61.47"/>
<text xml:space="preserve" text-anchor="middle" x="214.72" y="-86.15" font-family="Helvetica,sans-Serif" font-size="11.00"> &#160;8 &#160;</text>
</g>
</g>
</svg>
