<?xml version="1.0" encoding="UTF-8" standalone="no"?>
<!DOCTYPE svg PUBLIC "-//W3C//DTD SVG 1.1//EN"
 "http://www.w3.org/Graphics/SVG/1.1/DTD/svg11.dtd">
<!-- Generated by graphviz version 14.0.5 (20251129.0259)
 -->
<!-- Title: wf08 Pages: 1 -->
<svg width="372pt" height="937pt"
 viewBox="0.00 0.00 372.00 937.00" xmlns="http://www.w3.org/2000/svg" xmlns:xlink="http://www.w3.org/1999/xlink">
<g id="graph0" class="graph" transform="scale(1 1) rotate(0) translate(21.6 915.3)">
<title>wf08</title>
<polygon fill="#fafafa" stroke="none" points="-21.6,21.6 -21.6,-915.3 350.02,-915.3 350.02,21.6 -21.6,21.6"/>
<text xml:space="preserve" text-anchor="start" x="85.09" y="-875.5" font-family="Helvetica,sans-Serif" font-weight="bold" font-size="16.00">Workflow 8: Cleanup</text>
<!-- orch -->
<g id="node1" class="node">
<title>orch</title>
<path fill="#1b2a4a" stroke="black" stroke-width="1.2" d="M276.45,-869.2C276.45,-869.2 181.5,-869.2 181.5,-869.2 175.5,-869.2 169.5,-863.2 169.5,-857.2 169.5,-857.2 169.5,-844.6 169.5,-844.6 169.5,-838.6 175.5,-832.6 181.5,-832.6 181.5,-832.6 276.45,-832.6 276.45,-832.6 282.45,-832.6 288.45,-838.6 288.45,-844.6 288.45,-844.6 288.45,-857.2 288.45,-857.2 288.45,-863.2 282.45,-869.2 276.45,-869.2"/>
<text xml:space="preserve" text-anchor="middle" x="228.97" y="-845.1" font-family="Helvetica,sans-Serif" font-size="14.00" fill="white">Orchestrator</text>
</g>
<!-- ch -->
<g id="node2" class="node">
<title>ch</title>
<path fill="#4682b4" stroke="black" stroke-width="1.2" d="M294.82,-754.6C294.82,-754.6 163.12,-754.6 163.12,-754.6 157.12,-754.6 151.12,-748.6 151.12,-742.6 151.12,-742.6 151.12,-715 151.12,-715 151.12,-709 157.12,-703 163.12,-703 163.12,-703 294.82,-703 294.82,-703 300.82,-703 306.82,-709 306.82,-715 306.82,-715 306.82,-742.6 306.82,-742.6 306.82,-748.6 300.82,-754.6 294.82,-754.6"/>
<text xml:space="preserve" text-anchor="middle" x="228.97" y="-730.5" font-family="Helvetica,sans-Serif" font-size="14.00" fill="white">@code&#45;hygiene</text>
<text xml:space="preserve" text-anchor="middle" x="228.97" y="-715.5" font-family="Helvetica,sans-Serif" font-size="14.00" fill="white">Identify candidates</text>
</g>
<!-- orch&#45;&gt;ch -->
<g id="edge1" class="edge">
<title>orch&#45;&gt;ch</title>
<path fill="none" stroke="#333333" d="M228.97,-832.18C228.97,-814.45 228.97,-786.69 228.97,-764.55"/>
<polygon fill="#333333" stroke="#333333" points="231.78,-764.66 228.98,-756.66 226.18,-764.66 231.78,-764.66"/>
<text xml:space="preserve" text-anchor="middle" x="237.97" y="-789.15" font-family="Helvetica,sans-Serif" font-size="11.00"> &#160;1 &#160;</text>
</g>
<!-- dec -->
<g id="node3" class="node">
<title>dec</title>
<polygon fill="#708090" stroke="black" stroke-width="1.2" points="228.97,-636 129.53,-577.2 228.97,-518.4 328.42,-577.2 228.97,-636"/>
<text xml:space="preserve" text-anchor="middle" x="228.97" y="-578.9" font-family="Helvetica,sans-Serif" font-size="14.00" fill="white">Deletions</text>
<text xml:space="preserve" text-anchor="middle" x="228.97" y="-563.9" font-family="Helvetica,sans-Serif" font-size="14.00" fill="white">needed?</text>
</g>
<!-- ch&#45;&gt;dec -->
<g id="edge2" class="edge">
<title>ch&#45;&gt;dec</title>
<path fill="none" stroke="#333333" d="M228.97,-702.42C228.97,-686.88 228.97,-666.18 228.97,-646.14"/>
<polygon fill="#333333" stroke="#333333" points="231.78,-646.21 228.98,-638.21 226.18,-646.21 231.78,-646.21"/>
</g>
<!-- adv -->
<g id="node4" class="node">
<title>adv</title>
<path fill="#4682b4" stroke="black" stroke-width="1.2" d="M162.82,-440.4C162.82,-440.4 19.13,-440.4 19.13,-440.4 13.13,-440.4 7.12,-434.4 7.12,-428.4 7.12,-428.4 7.12,-400.8 7.12,-400.8 7.12,-394.8 13.12,-388.8 19.12,-388.8 19.12,-388.8 162.82,-388.8 162.82,-388.8 168.82,-388.8 174.82,-394.8 174.82,-400.8 174.82,-400.8 174.82,-428.4 174.82,-428.4 174.82,-434.4 168.82,-440.4 162.82,-440.4"/>
<text xml:space="preserve" text-anchor="middle" x="90.97" y="-416.3" font-family="Helvetica,sans-Serif" font-size="14.00" fill="white">@adversarial</text>
<text xml:space="preserve" text-anchor="middle" x="90.97" y="-401.3" font-family="Helvetica,sans-Serif" font-size="14.00" fill="white">Review deletion plan</text>
</g>
<!-- dec&#45;&gt;adv -->
<g id="edge3" class="edge">
<title>dec&#45;&gt;adv</title>
<path fill="none" stroke="#333333" d="M195.92,-537.73C172.31,-510.25 140.9,-473.7 118.61,-447.76"/>
<polygon fill="#333333" stroke="#333333" points="120.91,-446.14 113.57,-441.89 116.66,-449.79 120.91,-446.14"/>
<text xml:space="preserve" text-anchor="middle" x="162.24" y="-474.95" font-family="Helvetica,sans-Serif" font-size="11.00"> &#160;Yes &#160;</text>
</g>
<!-- done -->
<g id="node8" class="node">
<title>done</title>
<ellipse fill="#e8edf2" stroke="black" stroke-width="1.2" cx="275.98" cy="-414.6" rx="43.17" ry="22.83"/>
<text xml:space="preserve" text-anchor="middle" x="275.98" y="-408.8" font-family="Helvetica,sans-Serif" font-size="14.00" fill="#333333">Done</text>
</g>
<!-- dec&#45;&gt;done -->
<g id="edge4" class="edge">
<title>dec&#45;&gt;done</title>
<path fill="none" stroke="#333333" stroke-dasharray="5,2" d="M243.46,-526.7C251.14,-500.46 260.34,-469.04 266.98,-446.32"/>
<polygon fill="#333333" stroke="#333333" points="269.59,-447.38 269.15,-438.91 264.22,-445.8 269.59,-447.38"/>
<text xml:space="preserve" text-anchor="middle" x="271.19" y="-474.95" font-family="Helvetica,sans-Serif" font-size="11.00"> &#160;No &#160;</text>
</g>
<!-- sec -->
<g id="node5" class="node">
<title>sec</title>
<path fill="#4682b4" stroke="black" stroke-width="1.2" d="M152.7,-310.8C152.7,-310.8 29.25,-310.8 29.25,-310.8 23.25,-310.8 17.25,-304.8 17.25,-298.8 17.25,-298.8 17.25,-271.2 17.25,-271.2 17.25,-265.2 23.25,-259.2 29.25,-259.2 29.25,-259.2 152.7,-259.2 152.7,-259.2 158.7,-259.2 164.7,-265.2 164.7,-271.2 164.7,-271.2 164.7,-298.8 164.7,-298.8 164.7,-304.8 158.7,-310.8 152.7,-310.8"/>
<text xml:space="preserve" text-anchor="middle" x="90.97" y="-286.7" font-family="Helvetica,sans-Serif" font-size="14.00" fill="white">@security</text>
<text xml:space="preserve" text-anchor="middle" x="90.97" y="-271.7" font-family="Helvetica,sans-Serif" font-size="14.00" fill="white">Clearance review</text>
</g>
<!-- adv&#45;&gt;sec -->
<g id="edge5" class="edge">
<title>adv&#45;&gt;sec</title>
<path fill="none" stroke="#333333" d="M90.97,-388.39C90.97,-368.99 90.97,-341.97 90.97,-320.55"/>
<polygon fill="#333333" stroke="#333333" points="93.78,-320.67 90.98,-312.67 88.18,-320.67 93.78,-320.67"/>
<text xml:space="preserve" text-anchor="middle" x="99.97" y="-345.35" font-family="Helvetica,sans-Serif" font-size="11.00"> &#160;3 &#160;</text>
</g>
<!-- cln -->
<g id="node6" class="node">
<title>cln</title>
<path fill="#4682b4" stroke="black" stroke-width="1.2" d="M169.95,-181.2C169.95,-181.2 12,-181.2 12,-181.2 6,-181.2 0,-175.2 0,-169.2 0,-169.2 0,-141.6 0,-141.6 0,-135.6 6,-129.6 12,-129.6 12,-129.6 169.95,-129.6 169.95,-129.6 175.95,-129.6 181.95,-135.6 181.95,-141.6 181.95,-141.6 181.95,-169.2 181.95,-169.2 181.95,-175.2 175.95,-181.2 169.95,-181.2"/>
<text xml:space="preserve" text-anchor="middle" x="90.97" y="-157.1" font-family="Helvetica,sans-Serif" font-size="14.00" fill="white">@cleanup</text>
<text xml:space="preserve" text-anchor="middle" x="90.97" y="-142.1" font-family="Helvetica,sans-Serif" font-size="14.00" fill="white">Remove approved files</text>
</g>
<!-- sec&#45;&gt;cln -->
<g id="edge6" class="edge">
<title>sec&#45;&gt;cln</title>
<path fill="none" stroke="#333333" d="M90.97,-258.79C90.97,-239.39 90.97,-212.37 90.97,-190.95"/>
<polygon fill="#333333" stroke="#333333" points="93.78,-191.07 90.98,-183.07 88.18,-191.07 93.78,-191.07"/>
<text xml:space="preserve" text-anchor="middle" x="99.97" y="-215.75" font-family="Helvetica,sans-Serif" font-size="11.00"> &#160;4 &#160;</text>
</g>
<!-- au -->
<g id="node7" class="node">
<title>au</title>
<path fill="#4682b4" stroke="black" stroke-width="1.2" d="M149.7,-51.6C149.7,-51.6 32.25,-51.6 32.25,-51.6 26.25,-51.6 20.25,-45.6 20.25,-39.6 20.25,-39.6 20.25,-12 20.25,-12 20.25,-6 26.25,0 32.25,0 32.25,0 149.7,0 149.7,0 155.7,0 161.7,-6 161.7,-12 161.7,-12 161.7,-39.6 161.7,-39.6 161.7,-45.6 155.7,-51.6 149.7,-51.6"/>
<text xml:space="preserve" text-anchor="middle" x="90.97" y="-27.5" font-family="Helvetica,sans-Serif" font-size="14.00" fill="white">@agent&#45;updater</text>
<text xml:space="preserve" text-anchor="middle" x="90.97" y="-12.5" font-family="Helvetica,sans-Serif" font-size="14.00" fill="white">Update docs</text>
</g>
<!-- cln&#45;&gt;au -->
<g id="edge7" class="edge">
<title>cln&#45;&gt;au</title>
<path fill="none" stroke="#333333" d="M90.97,-129.19C90.97,-109.79 90.97,-82.77 90.97,-61.35"/>
<polygon fill="#333333" stroke="#333333" points="93.78,-61.47 90.98,-53.47 88.18,-61.47 93.78,-61.47"/>
<text xml:space="preserve" text-anchor="middle" x="99.97" y="-86.15" font-family="Helvetica,sans-Serif" font-size="11.00"> &#160;5 &#160;</text>
</g>
</g>
</svg>
